<svg width="608" height="834" viewBox="0 0 608 834" fill="none" xmlns="http://www.w3.org/2000/svg">
<path d="M86.9421 27.306C35.6995 59.0347 15.6705 103.386 15.5954 145.827C15.5726 162.102 12.9566 178.269 7.84564 193.721C-2.17285 224.031 -1.04467 256.922 11.0272 286.475C23.099 316.028 45.3218 340.302 73.6967 354.93C79.8875 358.16 85.5869 362.255 90.6237 367.091C111.242 386.794 138.669 397.779 167.187 397.757C227.639 397.757 277.443 348.78 278.334 288.327C278.599 272.167 275.32 256.146 268.728 241.389C268.803 239.554 268.846 237.707 268.846 235.851C268.869 217.607 265.15 199.553 257.919 182.805C261.32 183.26 264.748 183.493 268.18 183.502C287.389 183.508 305.918 176.397 320.191 163.542C334.463 150.686 343.467 132.999 345.463 113.895C387.56 110.674 430.516 109.837 443.021 111.222L444.094 85.7938C444.094 85.7938 209.306 -48.5489 86.9421 27.306Z" fill="#C3D8DD"/>
<path d="M250.62 316.804L165.147 274.009C165.147 274.009 169.978 347.599 243.503 367.284C254.822 356.59 263.786 343.652 269.822 329.298C259.411 322.01 250.62 316.804 250.62 316.804Z" fill="#2B4257"/>
<path d="M1.07374 235.851C1.06622 260.456 7.84047 284.588 20.6523 305.596C33.4642 326.603 51.8181 343.673 73.6978 354.93C79.8885 358.16 85.588 362.255 90.6248 367.091C111.243 386.794 138.67 397.779 167.188 397.757C227.64 397.757 277.444 348.78 278.335 288.328" stroke="#2B4257" stroke-width="2" stroke-miterlimit="10" stroke-linecap="round"/>
<path d="M268.18 183.545C287.389 183.551 305.918 176.44 320.191 163.585C334.463 150.729 343.467 133.042 345.463 113.938" stroke="#2B4257" stroke-width="2" stroke-miterlimit="10" stroke-linecap="round"/>
<path d="M86.9438 27.3064C-35.4201 103.151 20.2233 250.567 100.361 273.108C180.499 295.648 237.655 148.414 252.361 131.573C267.066 114.732 417.659 108.421 443.001 111.179L444.075 85.7513C444.075 85.7513 209.308 -48.5485 86.9438 27.3064Z" fill="#C3D8DD"/>
<path d="M134.03 169.592C127.56 168.468 121.567 165.451 116.811 160.922C112.055 156.392 108.748 150.554 107.31 144.146C105.871 137.738 106.365 131.047 108.729 124.919C111.093 118.791 115.221 113.502 120.59 109.72C125.96 105.939 132.331 103.834 138.896 103.672C145.462 103.511 151.929 105.299 157.478 108.813C163.027 112.326 167.41 117.406 170.072 123.409C172.735 129.413 173.557 136.072 172.436 142.543" stroke="white" stroke-width="16" stroke-miterlimit="10" stroke-linecap="round"/>
<path d="M134.031 169.592C140.503 170.714 146.497 173.73 151.254 178.258C156.012 182.786 159.32 188.624 160.76 195.032C162.201 201.441 161.708 208.133 159.345 214.261C156.982 220.39 152.855 225.68 147.485 229.463C142.115 233.246 135.745 235.351 129.178 235.514C122.612 235.676 116.145 233.887 110.595 230.374C105.045 226.861 100.662 221.781 97.9995 215.776C95.3368 209.772 94.5146 203.112 95.6366 196.641" stroke="white" stroke-width="16" stroke-miterlimit="10" stroke-linecap="round"/>
<path d="M118.629 258.478L122.686 235.078" stroke="white" stroke-width="16" stroke-miterlimit="10" stroke-linecap="round"/>
<path d="M145.388 104.181L149.445 80.7705" stroke="white" stroke-width="16" stroke-miterlimit="10" stroke-linecap="round"/>
<path d="M342.661 114.11C385.596 110.718 430.226 109.816 443 111.222" stroke="#2B4257" stroke-width="2" stroke-miterlimit="10" stroke-linecap="round"/>
<path d="M466.023 74.7176C452.477 78.8608 442.999 114.175 442.999 114.175L480.792 130.694C502.528 102.507 479.569 70.5851 466.023 74.7176Z" fill="#FBC2A5"/>
<path d="M480.793 130.694C502.529 102.507 479.569 70.5851 466.023 74.7176" stroke="#2B4257" stroke-width="2" stroke-miterlimit="10" stroke-linecap="round"/>
<path d="M229.85 654.067L156.539 670.307L173.509 735.761L185.488 716.022L239.993 712.416" fill="#4075B5"/>
<path d="M229.85 654.067L156.528 670.307" stroke="#2B4257" stroke-width="2" stroke-miterlimit="10" stroke-linecap="round"/>
<path d="M214.148 696.111L208.792 714.487" stroke="#2B4257" stroke-width="2" stroke-miterlimit="10" stroke-linecap="round"/>
<path d="M204.079 696.314L198.734 714.68" stroke="#2B4257" stroke-width="2" stroke-miterlimit="10" stroke-linecap="round"/>
<path d="M194.022 696.519L188.676 714.884" stroke="#2B4257" stroke-width="2" stroke-miterlimit="10" stroke-linecap="round"/>
<path d="M351.71 757.39L353.718 832.45L421.2 828.232L404.102 812.722L410.928 758.517" fill="#4075B5"/>
<path d="M351.71 757.39L353.718 832.45" stroke="#2B4257" stroke-width="2" stroke-miterlimit="10" stroke-linecap="round"/>
<path d="M390.008 780.8L407.021 789.548" stroke="#2B4257" stroke-width="2" stroke-miterlimit="10" stroke-linecap="round"/>
<path d="M388.29 790.718L405.302 799.455" stroke="#2B4257" stroke-width="2" stroke-miterlimit="10" stroke-linecap="round"/>
<path d="M386.574 800.636L403.587 809.373" stroke="#2B4257" stroke-width="2" stroke-miterlimit="10" stroke-linecap="round"/>
<path d="M407.881 225.976C386.736 225.976 362.488 218.773 335.386 204.401C317.437 194.793 300.388 183.592 284.444 170.933L318.459 129.426L301.446 150.174L318.437 129.405C331.846 139.948 346.16 149.286 361.211 157.312C386.242 170.472 407.538 175.323 418.185 170.3C428.833 165.277 435.145 144.722 435.241 114.066L488.91 114.238C488.738 168.765 472.637 203.961 441.059 218.849C430.668 223.663 419.333 226.098 407.881 225.976Z" fill="#4F6FB7"/>
<path d="M488.952 114.281C488.781 168.808 472.68 204.004 441.102 218.892C430.701 223.695 419.358 226.115 407.902 225.976C386.757 225.976 362.51 218.774 335.407 204.401" stroke="#2B4257" stroke-width="2" stroke-miterlimit="10" stroke-linecap="round"/>
<path d="M441.153 218.892C430.752 223.695 419.41 226.115 407.954 225.976C386.809 225.976 362.562 218.774 335.459 204.401" stroke="#2B4257" stroke-width="2" stroke-miterlimit="10" stroke-linecap="round"/>
<path d="M441.153 218.892C430.752 223.695 419.41 226.115 407.954 225.976C386.809 225.976 362.562 218.774 335.459 204.401" stroke="#2B4257" stroke-width="2" stroke-miterlimit="10" stroke-linecap="round"/>
<path d="M520.045 90.6672C520.045 90.6672 543.176 83.7225 533.516 74.3628C523.856 65.003 456.545 89.3899 456.545 89.3899L452.627 102.474C452.627 102.474 492.138 149.702 515.215 140.042C538.292 130.382 512.8 120.968 512.8 120.968C512.8 120.968 525.755 123.265 536.682 110.449C549.026 96.0663 520.045 90.6672 520.045 90.6672Z" fill="#C3D8DD"/>
<path d="M520.046 90.6668C520.046 90.6668 543.177 83.7221 533.517 74.3623" stroke="#2B4257" stroke-width="2" stroke-miterlimit="10" stroke-linecap="round"/>
<path d="M512.8 121.065C512.8 121.065 525.756 123.362 536.683 110.546" stroke="#2B4257" stroke-width="2" stroke-miterlimit="10" stroke-linecap="round"/>
<path d="M452.627 102.528C452.627 102.528 492.138 149.756 515.215 140.096" stroke="#2B4257" stroke-width="2" stroke-miterlimit="10" stroke-linecap="round"/>
<path d="M239.994 727.743L220.041 644.257L230.001 686.011L220.041 644.268C248.94 636.611 276.949 625.922 303.602 612.378C337.875 594.721 380.509 565.493 388.967 526.508C393.464 505.76 388.065 481.803 372.92 455.29C352 418.689 313.434 378.233 258.285 335.073L311.212 267.451C376.13 318.264 420.696 365.815 447.53 412.817C473.516 458.35 482.017 502.798 472.808 544.938C465.584 578.019 447.594 608.6 419.279 635.767C398.595 655.635 372.287 673.764 341.084 689.65C308.846 705.925 274.956 718.696 239.994 727.743Z" fill="#2B4257"/>
<path d="M285.377 316.729C285.377 316.729 389.494 582.978 381.476 763.25" stroke="#2B4257" stroke-width="30" stroke-miterlimit="10"/>
<path d="M230.043 282.296H340.708V295.885C340.708 310.56 334.878 324.634 324.501 335.01C314.124 345.387 300.051 351.217 285.376 351.217C270.701 351.217 256.627 345.387 246.25 335.01C235.873 324.634 230.043 310.56 230.043 295.885V282.296Z" fill="#2B4257"/>
<path d="M285.376 117.319C300.051 117.319 314.124 123.149 324.501 133.526C334.878 143.903 340.708 157.976 340.708 172.651V282.296H230.043V172.651C230.043 157.976 235.873 143.903 246.25 133.526C256.627 123.149 270.701 117.319 285.376 117.319Z" fill="#628ECC"/>
<path d="M230.043 172.651V282.264" stroke="#2B4257" stroke-width="2" stroke-miterlimit="10" stroke-linecap="round"/>
<path d="M340.709 282.296V172.651C340.709 157.976 334.879 143.903 324.503 133.526C314.126 123.149 300.052 117.319 285.377 117.319" stroke="#FFF1D7" stroke-width="2" stroke-miterlimit="10" stroke-linecap="round"/>
<path d="M279.848 195.085C279.848 176.473 260.334 160.63 233.038 154.673C231.054 160.459 230.043 166.535 230.043 172.652V236.141C258.885 230.678 279.848 214.363 279.848 195.085Z" fill="#2B4257"/>
<path d="M264.403 127.323L306.35 127.849V84.6994L264.403 79.998V127.323Z" fill="#FBC2A5"/>
<path d="M264.403 79.998V121.645" stroke="#2B4257" stroke-width="2" stroke-miterlimit="10" stroke-linecap="round"/>
<path d="M324.736 21.585L318.511 70.6378H331.928L324.736 21.585Z" fill="#F39B92"/>
<path d="M318.511 70.6387H331.928" stroke="#2B4257" stroke-width="2" stroke-miterlimit="10" stroke-linecap="round"/>
<path d="M306.349 122.879V84.6992" stroke="#FFF1D7" stroke-width="2" stroke-miterlimit="10" stroke-linecap="round"/>
<path d="M273.183 21.585H324.705V77.1532C324.705 80.064 324.131 82.9462 323.017 85.6354C321.904 88.3246 320.271 90.7681 318.213 92.8263C316.154 94.8845 313.711 96.5172 311.022 97.6311C308.333 98.7449 305.45 99.3183 302.54 99.3183H299.47C289.976 99.3183 280.871 95.5468 274.158 88.8336C267.444 82.1204 263.673 73.0154 263.673 63.5215V31.1272C263.666 29.8748 263.907 28.6335 264.382 27.4746C264.857 26.3158 265.557 25.2625 266.441 24.3754C267.325 23.4884 268.376 22.7851 269.533 22.3062C270.69 21.8272 271.931 21.5821 273.183 21.585Z" fill="#FBC2A5"/>
<path d="M328.075 70.6386C328.075 70.6386 339.152 104.739 323.137 109.162C307.123 113.584 272.356 113.241 281.072 69.007L277.798 62.0731L271.358 69.007C271.358 69.007 271.852 81.3937 264.07 89.7552C264.07 89.7552 233.103 32.373 252.714 15.2957C259.026 9.76006 266.976 6.44262 275.351 5.8501C279.221 5.58311 283.06 4.97975 286.825 4.04684C300.221 0.751602 329.76 -4.00342 335.524 16.1866C340.408 33.2961 327.109 40.8741 327.109 40.8741L323.18 27.3067C323.18 27.3067 309.441 44.867 296.496 50.631C294.296 51.633 292.454 53.2831 291.217 55.3605C289.979 57.4378 289.406 59.8435 289.573 62.2556C290.099 70.1448 292.246 79.6226 299.727 78.0448C312.221 75.458 312.801 66.9569 328.075 70.6386Z" fill="#2B4257"/>
<path d="M329.19 74.5986C331.54 83.7223 335.769 105.726 323.136 109.161" stroke="#586977" stroke-width="2" stroke-miterlimit="10" stroke-linecap="round"/>
<path d="M286.783 4.04684C300.179 0.751602 329.718 -4.00342 335.482 16.1866C340.366 33.2961 327.067 40.8741 327.067 40.8741" stroke="#586977" stroke-width="2" stroke-miterlimit="10" stroke-linecap="round"/>
<path d="M323.138 27.3066C323.138 27.3066 309.442 44.8669 296.497 50.6309" stroke="#586977" stroke-width="2" stroke-miterlimit="10" stroke-linecap="round"/>
<path d="M305.567 57.4678C305.783 57.2958 305.978 57.0975 306.146 56.8775C306.406 56.564 306.735 56.3154 307.108 56.1515C307.481 55.9875 307.886 55.9127 308.293 55.9329H318.79V63.3821C318.79 64.4402 318.582 65.4879 318.177 66.4653C317.771 67.4427 317.177 68.3306 316.429 69.0783C315.68 69.826 314.791 70.4187 313.813 70.8226C312.836 71.2266 311.788 71.4338 310.729 71.4324C309.671 71.4338 308.623 71.2266 307.645 70.8226C306.668 70.4187 305.779 69.826 305.03 69.0783C304.281 68.3306 303.688 67.4427 303.282 66.4653C302.877 65.4879 302.668 64.4402 302.668 63.3821C302.665 62.24 302.925 61.1124 303.427 60.0867C303.93 59.0611 304.662 58.165 305.567 57.4678Z" fill="#F4AB9D"/>
<path d="M305.458 56.7812C306.016 53.7758 308.946 51.9404 312.66 52.5414C315.034 52.9497 317.197 54.158 318.789 55.9655C318.231 58.9602 315.29 60.7956 311.576 60.1946C309.206 59.7901 307.047 58.5854 305.458 56.7812Z" fill="#F7F7F7"/>
<path d="M318.791 55.9658C318.233 58.9605 315.292 60.796 311.578 60.1949C309.216 59.7858 307.064 58.5815 305.481 56.7816" stroke="#2B4257" stroke-width="2" stroke-miterlimit="10" stroke-linecap="round"/>
<path d="M314.873 56.856C315.277 56.856 315.603 56.4427 315.603 55.9329C315.603 55.4231 315.277 55.0098 314.873 55.0098C314.47 55.0098 314.144 55.4231 314.144 55.9329C314.144 56.4427 314.47 56.856 314.873 56.856Z" fill="#2B4257"/>
<path d="M301.489 73.247C304.571 73.247 307.07 70.7481 307.07 67.6655C307.07 64.5829 304.571 62.084 301.489 62.084C298.406 62.084 295.907 64.5829 295.907 67.6655C295.907 70.7481 298.406 73.247 301.489 73.247Z" fill="#E57873"/>
<path d="M319.541 47.8082C317.755 46.6922 315.706 46.0668 313.601 45.9952C311.496 45.9236 309.409 46.4083 307.551 47.4003" stroke="#2B4257" stroke-width="2" stroke-miterlimit="10" stroke-linecap="round"/>
<path d="M310.782 76.2627C312.003 77.3355 313.487 78.0656 315.082 78.3786C316.677 78.6916 318.326 78.5763 319.862 78.0445" stroke="#EDB2B0" stroke-width="2" stroke-miterlimit="10" stroke-linecap="round"/>
<path d="M273.623 73.5039C278.715 73.5039 282.843 69.3759 282.843 64.2837C282.843 59.1915 278.715 55.0635 273.623 55.0635C268.531 55.0635 264.403 59.1915 264.403 64.2837C264.403 69.3759 268.531 73.5039 273.623 73.5039Z" fill="#FBC2A5"/>
<path d="M273.622 69.0072C276.23 69.0072 278.345 66.8927 278.345 64.2843C278.345 61.676 276.23 59.5615 273.622 59.5615C271.013 59.5615 268.899 61.676 268.899 64.2843C268.899 66.8927 271.013 69.0072 273.622 69.0072Z" fill="#F4AB9D"/>
<path d="M606.999 832.45H282.058" stroke="#2B4257" stroke-width="2" stroke-miterlimit="10" stroke-linecap="round"/>
<path d="M260.87 832.45H248.87" stroke="#2B4257" stroke-width="2" stroke-miterlimit="10" stroke-linecap="round"/>
<path d="M310.343 360.394C219.322 342.233 171.321 311.706 163.593 267.097C158.226 236.302 173.435 204.015 208.674 171.127C223.542 157.422 239.675 145.156 256.857 134.493L284.443 180.53L270.65 157.517L284.443 180.519C270.286 189.4 256.991 199.584 244.728 210.938C225.129 229.357 214.578 246.939 216.499 257.963C220.363 280.095 272.947 298.203 320.873 307.767L310.343 360.394Z" fill="#628ECC"/>
<path d="M323.931 292.32L308.196 371.17" stroke="#FFF1D7" stroke-width="2" stroke-miterlimit="10" stroke-linecap="round"/>
<path d="M299.706 358.172C215.576 339.785 171.01 309.935 163.593 267.097C158.226 236.302 173.435 204.015 208.674 171.127" stroke="#2B4257" stroke-width="2" stroke-miterlimit="10" stroke-linecap="round"/>
<path d="M284.442 180.519C270.286 189.4 256.99 199.584 244.728 210.938C225.128 229.357 214.577 246.939 216.498 257.962C220.362 280.095 272.946 298.203 320.872 307.766" stroke="#FFF1D7" stroke-width="2" stroke-miterlimit="10" stroke-linecap="round"/>
<path d="M252.361 131.573L263.105 110.546L312.577 120.979L307.07 136.586" fill="#628ECC"/>
<path d="M252.361 131.573L263.105 110.546L312.577 120.979" stroke="#2B4257" stroke-width="2" stroke-miterlimit="10" stroke-linecap="round"/>
<path d="M303.579 612.378C337.852 594.721 380.486 565.493 388.944 526.509C393.441 505.76 388.042 481.803 372.897 455.291C359.351 431.591 338.41 406.281 310.352 379.65" stroke="#FFF1D7" stroke-width="2" stroke-miterlimit="10" stroke-linecap="round"/>
<path d="M419.28 635.767C398.596 655.635 372.288 673.764 341.085 689.65C308.847 705.925 274.957 718.696 239.995 727.743" stroke="#FFF1D7" stroke-width="2" stroke-miterlimit="10" stroke-linecap="round"/>
<path d="M444.04 79.1821C433.994 83.3575 435.904 103.15 437.439 114.024L462.932 114.367C469.608 100.413 454.999 92.8998 454.999 92.8998C454.999 92.8998 462.878 94.3703 468.052 93.5223C473.225 92.6744 457.554 73.5684 444.04 79.1821Z" fill="#FBC2A5"/>
<path d="M468.053 93.5013C473.216 92.6426 457.555 73.5689 444.042 79.1826" stroke="#FFF1D7" stroke-width="2" stroke-miterlimit="10" stroke-linecap="round"/>
<path d="M462.933 114.367C469.61 100.413 455.001 92.8994 455.001 92.8994C455.001 92.8994 462.879 94.3699 468.053 93.522" stroke="#2B4257" stroke-width="2" stroke-miterlimit="10" stroke-linecap="round"/>
<path d="M508.057 85.8691C508.057 85.8691 487.309 91.032 483.928 102.528C480.547 114.024 495.992 117.233 495.992 117.233" stroke="#2B4257" stroke-width="2" stroke-miterlimit="10" stroke-linecap="round"/>
<path d="M483.928 102.528C482.071 108.775 485.796 112.575 489.585 114.743C493.384 112.596 497.098 108.775 495.252 102.528C494.183 99.4114 492.21 96.6837 489.585 94.6924C486.966 96.6875 484.997 99.4142 483.928 102.528Z" fill="#2B4257"/>
</svg>
