<svg width="547" height="623" viewBox="0 0 547 623" fill="none" xmlns="http://www.w3.org/2000/svg">
<path d="M478.581 40.5029C478.581 40.5029 523.591 65.9246 545.341 48.3016C545.341 48.3016 552.419 78.4571 525.108 90.9897C497.797 103.522 493.284 149.541 493.284 149.541C493.284 149.541 430.029 143.805 424.468 119.871C424.468 119.871 422.951 97.9615 449.245 84.3138C475.539 70.666 478.581 40.5029 478.581 40.5029Z" fill="#EFEEED"/>
<path d="M545.342 48.3018C545.342 48.3018 552.42 78.4573 525.109 90.9898C497.798 103.522 493.284 149.541 493.284 149.541" stroke="#2B4257" stroke-miterlimit="10" stroke-linecap="round"/>
<path d="M191.857 26.5824C191.857 11.9013 179.957 0 165.278 0C150.599 0 138.7 11.9013 138.7 26.5824V240.645C138.7 255.326 150.599 267.227 165.278 267.227C179.957 267.227 191.857 255.326 191.857 240.645V26.5824Z" fill="#EFEEED"/>
<path d="M189.293 106.352C189.293 106.352 189.103 84.1699 176.207 83.5933C163.31 83.0168 147.758 77.9643 148.896 81.8181C150.034 85.672 163.719 89.6168 163.719 89.6168C163.719 89.6168 149.306 112.785 171.465 119.044" fill="#FBC2A5"/>
<path d="M163.72 89.6094C163.72 89.6094 149.306 112.778 171.465 119.037" stroke="#2B4257" stroke-miterlimit="10" stroke-linecap="round"/>
<path d="M396.141 565.801L363.777 577.939C363.777 577.939 377.433 603.224 357.2 605.758C336.967 608.292 342.999 622 342.999 622H416.881L396.141 565.801Z" fill="#E57873"/>
<path d="M416.881 622L396.14 565.801" stroke="#2B4257" stroke-miterlimit="10" stroke-linecap="round"/>
<path d="M315.225 565.801L279.251 574.396C279.251 574.396 287.406 601.707 269.708 604.741C252.009 607.776 256.052 622 256.052 622H328.881L315.225 565.801Z" fill="#C16B6B"/>
<path d="M328.881 622L315.226 565.801" stroke="#2B4257" stroke-miterlimit="10" stroke-linecap="round"/>
<path d="M476.282 140.491C476.282 140.491 473.817 134.991 468.506 135.56C463.196 136.129 460.92 146.939 460.92 146.939L455.23 154.526L471.162 169.319C477.61 162.681 500.179 145.801 505.3 138.974C510.421 132.146 476.282 140.491 476.282 140.491Z" fill="#FBC2A5"/>
<path d="M471.162 169.319C477.61 162.681 500.18 145.801 505.3 138.974" stroke="#2B4257" stroke-miterlimit="10" stroke-linecap="round"/>
<path d="M415.98 197.418C412.177 197.416 408.378 197.196 404.6 196.758C347.772 190.18 305.417 135.468 303.642 133.139L333.798 110.122L318.724 121.631L333.798 110.092C334.139 110.539 368.384 154.464 409.114 159.092C425.865 160.996 441.341 155.883 456.422 143.471L480.524 172.755C460.61 189.149 438.944 197.418 415.98 197.418Z" fill="#C16B6B"/>
<path d="M352.398 177.109C352.163 154.032 344.873 135.514 335.913 135.514C330.36 135.514 325.444 142.645 322.455 153.554C331.65 162.356 341.679 170.245 352.398 177.109Z" fill="#2B4257"/>
<path d="M320.946 110.214L291.298 110.585V80.0884L320.946 76.7656V110.214Z" fill="#FBC2A5"/>
<path d="M320.945 76.7734V110.214" stroke="#2B4257" stroke-miterlimit="10" stroke-linecap="round"/>
<path d="M278.303 35.4814L282.703 70.1508H273.22L278.303 35.4814Z" fill="#F39B92"/>
<path d="M282.703 70.1504H273.22" stroke="#2B4257" stroke-miterlimit="10" stroke-linecap="round"/>
<path d="M291.298 110.586V80.0889" stroke="#FFF1D7" stroke-miterlimit="10" stroke-linecap="round"/>
<path d="M296.139 90.4209H293.97C291.913 90.4209 289.875 90.0157 287.975 89.2284C286.074 88.4411 284.347 87.2872 282.892 85.8325C281.438 84.3778 280.284 82.6509 279.497 80.7502C278.709 78.8496 278.304 76.8125 278.304 74.7552V35.481L314.718 35.481C316.497 35.481 318.203 36.1875 319.46 37.4452C320.718 38.7029 321.425 40.4086 321.425 42.1873V65.113C321.425 68.4355 320.77 71.7255 319.499 74.795C318.227 77.8646 316.364 80.6537 314.014 83.003C311.665 85.3524 308.876 87.216 305.806 88.4874C302.737 89.7589 299.447 90.4133 296.124 90.4133L296.139 90.4209Z" fill="#FBC2A5"/>
<path d="M313.254 32.4316H313.148C311.896 32.0674 286.3 24.7618 277.295 33.395C269.876 40.5034 277.75 45.9807 281.134 47.8621C281.261 47.924 281.402 47.9492 281.542 47.9351C281.683 47.921 281.816 47.868 281.928 47.7821C282.04 47.6962 282.126 47.5808 282.176 47.4488C282.226 47.3169 282.238 47.1737 282.211 47.0352C282.185 46.888 282.203 46.7363 282.262 46.5993C282.322 46.4622 282.421 46.3458 282.547 46.2648C282.672 46.1837 282.819 46.1416 282.969 46.1437C283.118 46.1458 283.264 46.192 283.387 46.2766C285.966 48.3021 291.155 52.0422 295.199 52.7856L296.299 52.9828C296.478 53.0081 296.64 53.1002 296.754 53.2408C298.658 55.6456 303.271 62.5112 301.442 70.6893C299.166 80.8094 288.462 67.594 275.33 70.1734C275.231 70.1938 275.137 70.2339 275.054 70.2912C274.97 70.3485 274.899 70.422 274.845 70.5072C273.419 72.7831 263.898 88.8812 275.399 97.5751C287.119 106.436 309.84 100.458 308.179 68.421C308.182 68.2748 308.228 68.1328 308.31 68.0119C308.392 67.8911 308.507 67.7965 308.642 67.7396C308.777 67.6827 308.925 67.6659 309.069 67.6912C309.213 67.7165 309.346 67.7829 309.453 67.8823L315.887 74.8617C315.929 74.9012 315.974 74.9368 316.023 74.9679L320.302 77.8355C320.397 77.8942 320.504 77.931 320.615 77.9433C320.727 77.9557 320.839 77.9433 320.945 77.9071C321.051 77.8708 321.147 77.8116 321.228 77.7337C321.308 77.6557 321.37 77.561 321.409 77.4562C323.473 71.2127 334.556 34.7757 313.254 32.4316Z" fill="#2B4257"/>
<path d="M273.584 72.7295C270.822 77.9792 265.815 90.36 275.397 97.5973C283.143 103.454 295.69 102.832 302.837 92.4842" stroke="#586977" stroke-miterlimit="10" stroke-linecap="round"/>
<path d="M313.146 32.4081C311.894 32.044 286.298 24.7384 277.293 33.3716C269.874 40.48 277.748 45.9573 281.132 47.8387" stroke="#586977" stroke-miterlimit="10" stroke-linecap="round"/>
<path d="M283.386 46.2764C285.966 48.3019 291.155 52.0419 295.198 52.7854" stroke="#586977" stroke-miterlimit="10" stroke-linecap="round"/>
<path d="M291.852 60.842C291.699 60.7204 291.561 60.5802 291.443 60.4248C291.259 60.2032 291.026 60.0275 290.763 59.9116C290.499 59.7958 290.213 59.7429 289.925 59.7572H282.498V65.0221C282.498 65.7699 282.646 66.5104 282.932 67.2012C283.219 67.892 283.638 68.5195 284.167 69.048C284.697 69.5764 285.325 69.9954 286.016 70.2809C286.707 70.5663 287.448 70.7128 288.196 70.7118C289.705 70.7118 291.153 70.1126 292.222 69.0458C293.29 67.9789 293.891 66.5318 293.893 65.0221C293.896 64.2155 293.714 63.4189 293.36 62.6941C293.006 61.9692 292.49 61.3355 291.852 60.842Z" fill="#F4AB9D"/>
<path d="M291.928 60.3564C291.534 58.2323 289.463 56.935 286.838 57.3219C285.166 57.6138 283.643 58.4675 282.521 59.742C282.916 61.8585 284.995 63.1558 287.619 62.731C289.285 62.4555 290.806 61.6174 291.928 60.3564Z" fill="#F7F7F7"/>
<path d="M282.521 59.7803C282.916 61.8968 284.995 63.1941 287.619 62.7693C289.29 62.4837 290.812 61.6318 291.928 60.3568" stroke="#2B4257" stroke-miterlimit="10" stroke-linecap="round"/>
<path d="M285.275 60.0685C285.56 60.0685 285.791 59.7764 285.791 59.4161C285.791 59.0558 285.56 58.7637 285.275 58.7637C284.99 58.7637 284.759 59.0558 284.759 59.4161C284.759 59.7764 284.99 60.0685 285.275 60.0685Z" fill="#2B4257"/>
<path d="M294.734 71.9942C296.913 71.9942 298.679 70.2281 298.679 68.0494C298.679 65.8707 296.913 64.1045 294.734 64.1045C292.555 64.1045 290.789 65.8707 290.789 68.0494C290.789 70.2281 292.555 71.9942 294.734 71.9942Z" fill="#E57873"/>
<path d="M280.996 53.8093C282.42 52.9205 284.053 52.4218 285.731 52.3633C287.408 52.3047 289.072 52.6883 290.555 53.4755" stroke="#2B4257" stroke-miterlimit="10" stroke-linecap="round"/>
<path d="M286.269 74.4971C285.666 75.0272 284.934 75.3885 284.146 75.5444C283.359 75.7003 282.544 75.6452 281.785 75.3847" stroke="#E9EEF2" stroke-miterlimit="10" stroke-linecap="round"/>
<path d="M314.429 72.1758C318.028 72.1758 320.946 69.2582 320.946 65.6592C320.946 62.0602 318.028 59.1426 314.429 59.1426C310.83 59.1426 307.912 62.0602 307.912 65.6592C307.912 69.2582 310.83 72.1758 314.429 72.1758Z" fill="#FBC2A5"/>
<path d="M314.428 68.9972C316.272 68.9972 317.766 67.5028 317.766 65.6593C317.766 63.8157 316.272 62.3213 314.428 62.3213C312.585 62.3213 311.09 63.8157 311.09 65.6593C311.09 67.5028 312.585 68.9972 314.428 68.9972Z" fill="#F4AB9D"/>
<path d="M306.122 268.44C295.75 268.44 285.803 264.32 278.469 256.986C271.135 249.652 267.015 239.705 267.015 229.333V219.729H345.207V229.333C345.207 239.701 341.09 249.645 333.761 256.978C326.431 264.312 316.49 268.434 306.122 268.44Z" fill="#2B4257"/>
<path d="M341.208 124.969C340.127 122.765 339.605 120.329 339.691 117.875C339.911 111.313 337.028 103.955 325.345 99.5924C311.803 94.5399 300.348 99.7365 292.724 105.502C285.193 108.257 278.69 113.26 274.095 119.832C269.501 126.405 267.037 134.231 267.037 142.25V219.721H345.251V142.25C345.252 136.255 343.868 130.341 341.208 124.969Z" fill="#E57873"/>
<path d="M345.23 142.25C345.238 136.257 343.862 130.343 341.209 124.969L345.23 142.25Z" fill="#E57873"/>
<path d="M267.241 219.722C294.749 193.792 302.009 138.64 302.009 138.64L267.037 168.788V219.722H267.241Z" fill="#2B4257"/>
<path d="M494.314 622H264.662" stroke="#2B4257" stroke-miterlimit="10" stroke-linecap="round"/>
<path d="M249.688 622H241.199" stroke="#2B4257" stroke-miterlimit="10" stroke-linecap="round"/>
<path d="M298.559 237.064C298.559 237.064 268.585 485.895 297.216 582.999" stroke="#2B4257" stroke-miterlimit="10"/>
<path d="M352.224 596.32C294.645 478.467 279.851 251.963 279.252 242.374L339.821 238.581L309.521 240.485L339.806 238.581C339.942 240.804 354.455 462.665 406.74 569.685L352.224 596.32Z" fill="#2B4257"/>
<path d="M352.223 596.321C310.969 511.885 291.677 371.676 283.833 295.426" stroke="#FFF1D7" stroke-miterlimit="10" stroke-linecap="round"/>
<path d="M235.017 203.623C227.611 203.641 220.422 201.122 214.648 196.485C189.613 176.571 163.402 123.793 160.497 117.845L194.574 101.155C203.678 119.727 222.492 152.378 236.208 165.001C239.197 163.484 246.267 158.872 257.859 144.685C263.828 137.324 269.361 129.618 274.427 121.608L306.738 141.484C300.845 150.841 294.4 159.839 287.438 168.431C270.513 189.209 255.348 200.528 241.086 203.024C239.084 203.399 237.053 203.599 235.017 203.623Z" fill="#E57873"/>
<path d="M233.484 167.611C236.86 165.95 244.81 160.715 257.858 144.746" stroke="#FFF1D7" stroke-miterlimit="10" stroke-linecap="round"/>
<path d="M306.738 141.545C300.845 150.902 294.4 159.9 287.438 168.492C270.513 189.271 255.348 200.589 241.086 203.085C239.082 203.44 237.051 203.62 235.017 203.624C227.611 203.642 220.422 201.122 214.648 196.485C189.613 176.571 163.402 123.793 160.497 117.846" stroke="#2B4257" stroke-miterlimit="10" stroke-linecap="round"/>
<path d="M345.23 219.722V142.25C345.238 136.257 343.862 130.343 341.209 124.969" stroke="#2B4257" stroke-miterlimit="10" stroke-linecap="round"/>
<path d="M296.904 244.081C296.904 244.081 306.311 264.496 319.868 265.952" stroke="#FFF1D7" stroke-miterlimit="10" stroke-linecap="round"/>
<path d="M319.869 265.952C319.869 265.952 338.213 469.963 379.52 565.8" stroke="#FFF1D7" stroke-miterlimit="10" stroke-linecap="round" stroke-dasharray="6 6"/>
<path d="M286.907 323.176C286.907 323.176 284.934 494.709 298.559 565.77" stroke="#FFF1D7" stroke-miterlimit="10" stroke-linecap="round" stroke-dasharray="6 6"/>
<path d="M26.5825 38.5078H70.5678H165.283" stroke="#2B4257" stroke-miterlimit="10" stroke-linecap="round"/>
<path d="M71.3264 50.3578C75.7257 50.3578 79.2921 45.0524 79.2921 38.508C79.2921 31.9635 75.7257 26.6582 71.3264 26.6582C66.9272 26.6582 63.3608 31.9635 63.3608 38.508C63.3608 45.0524 66.9272 50.3578 71.3264 50.3578Z" fill="#E57873"/>
<path d="M60.7061 38.5078H70.06" stroke="#2B4257" stroke-miterlimit="10" stroke-linecap="round"/>
<path d="M92.1885 50.3578C96.5878 50.3578 100.154 45.0524 100.154 38.508C100.154 31.9635 96.5878 26.6582 92.1885 26.6582C87.7892 26.6582 84.2229 31.9635 84.2229 38.508C84.2229 45.0524 87.7892 50.3578 92.1885 50.3578Z" fill="#6CC4BF"/>
<path d="M81.5671 38.5078H90.921" stroke="#2B4257" stroke-miterlimit="10" stroke-linecap="round"/>
<path d="M113.051 50.3578C117.451 50.3578 121.017 45.0524 121.017 38.508C121.017 31.9635 117.451 26.6582 113.051 26.6582C108.652 26.6582 105.086 31.9635 105.086 38.508C105.086 45.0524 108.652 50.3578 113.051 50.3578Z" fill="#628ECC"/>
<path d="M102.431 38.5078H111.785" stroke="#2B4257" stroke-miterlimit="10" stroke-linecap="round"/>
<path d="M26.5825 75.7871H70.5678H165.283" stroke="#2B4257" stroke-miterlimit="10" stroke-linecap="round"/>
<path d="M89.9136 87.6371C94.3129 87.6371 97.8792 82.3317 97.8792 75.7873C97.8792 69.2428 94.3129 63.9375 89.9136 63.9375C85.5143 63.9375 81.948 69.2428 81.948 75.7873C81.948 82.3317 85.5143 87.6371 89.9136 87.6371Z" fill="#6CC4BF"/>
<path d="M79.2925 75.7871H88.6464" stroke="#2B4257" stroke-miterlimit="10" stroke-linecap="round"/>
<path d="M110.319 87.6371C114.719 87.6371 118.285 82.3317 118.285 75.7873C118.285 69.2428 114.719 63.9375 110.319 63.9375C105.92 63.9375 102.354 69.2428 102.354 75.7873C102.354 82.3317 105.92 87.6371 110.319 87.6371Z" fill="#628ECC"/>
<path d="M99.698 75.7871H109.059" stroke="#2B4257" stroke-miterlimit="10" stroke-linecap="round"/>
<path d="M140.028 87.6371C144.427 87.6371 147.993 82.3317 147.993 75.7873C147.993 69.2428 144.427 63.9375 140.028 63.9375C135.628 63.9375 132.062 69.2428 132.062 75.7873C132.062 82.3317 135.628 87.6371 140.028 87.6371Z" fill="#E57873"/>
<path d="M129.407 75.7871H138.761" stroke="#2B4257" stroke-miterlimit="10" stroke-linecap="round"/>
<path d="M26.5825 113.059H70.5678H165.283" stroke="#2B4257" stroke-miterlimit="10" stroke-linecap="round"/>
<path d="M83.2744 124.909C87.6737 124.909 91.2401 119.603 91.2401 113.059C91.2401 106.514 87.6737 101.209 83.2744 101.209C78.8752 101.209 75.3088 106.514 75.3088 113.059C75.3088 119.603 78.8752 124.909 83.2744 124.909Z" fill="#628ECC"/>
<path d="M72.6531 113.059H82.007" stroke="#2B4257" stroke-miterlimit="10" stroke-linecap="round"/>
<path d="M108.013 124.909C112.412 124.909 115.979 119.603 115.979 113.059C115.979 106.514 112.412 101.209 108.013 101.209C103.614 101.209 100.047 106.514 100.047 113.059C100.047 119.603 103.614 124.909 108.013 124.909Z" fill="#E57873"/>
<path d="M97.3916 113.059H106.753" stroke="#2B4257" stroke-miterlimit="10" stroke-linecap="round"/>
<path d="M144.707 124.909C149.107 124.909 152.673 119.603 152.673 113.059C152.673 106.514 149.107 101.209 144.707 101.209C140.308 101.209 136.742 106.514 136.742 113.059C136.742 119.603 140.308 124.909 144.707 124.909Z" fill="#6CC4BF"/>
<path d="M134.089 113.059H143.443" stroke="#2B4257" stroke-miterlimit="10" stroke-linecap="round"/>
<path d="M26.5825 150.338H70.5678H165.283" stroke="#2B4257" stroke-miterlimit="10" stroke-linecap="round"/>
<path d="M71.3264 162.187C75.7257 162.187 79.2921 156.882 79.2921 150.337C79.2921 143.793 75.7257 138.487 71.3264 138.487C66.9272 138.487 63.3608 143.793 63.3608 150.337C63.3608 156.882 66.9272 162.187 71.3264 162.187Z" fill="#6CC4BF"/>
<path d="M60.7061 150.338H70.06" stroke="#2B4257" stroke-miterlimit="10" stroke-linecap="round"/>
<path d="M99.2061 162.187C103.605 162.187 107.172 156.882 107.172 150.337C107.172 143.793 103.605 138.487 99.2061 138.487C94.8068 138.487 91.2405 143.793 91.2405 150.337C91.2405 156.882 94.8068 162.187 99.2061 162.187Z" fill="#E57873"/>
<path d="M88.5847 150.338H97.9386" stroke="#2B4257" stroke-miterlimit="10" stroke-linecap="round"/>
<path d="M144.77 162.187C149.169 162.187 152.735 156.882 152.735 150.337C152.735 143.793 149.169 138.487 144.77 138.487C140.371 138.487 136.804 143.793 136.804 150.337C136.804 156.882 140.371 162.187 144.77 162.187Z" fill="#628ECC"/>
<path d="M134.148 150.338H143.502" stroke="#2B4257" stroke-miterlimit="10" stroke-linecap="round"/>
<path d="M26.5825 187.616H70.5678H165.283" stroke="#2B4257" stroke-miterlimit="10" stroke-linecap="round"/>
<path d="M97.2566 199.466C101.656 199.466 105.222 194.161 105.222 187.616C105.222 181.072 101.656 175.767 97.2566 175.767C92.8573 175.767 89.291 181.072 89.291 187.616C89.291 194.161 92.8573 199.466 97.2566 199.466Z" fill="#628ECC"/>
<path d="M86.6362 187.616H95.9977" stroke="#2B4257" stroke-miterlimit="10" stroke-linecap="round"/>
<path d="M129.597 199.466C133.997 199.466 137.563 194.161 137.563 187.616C137.563 181.072 133.997 175.767 129.597 175.767C125.198 175.767 121.632 181.072 121.632 187.616C121.632 194.161 125.198 199.466 129.597 199.466Z" fill="#6CC4BF"/>
<path d="M118.976 187.616H128.33" stroke="#2B4257" stroke-miterlimit="10" stroke-linecap="round"/>
<path d="M150.459 199.466C154.858 199.466 158.424 194.161 158.424 187.616C158.424 181.072 154.858 175.767 150.459 175.767C146.059 175.767 142.493 181.072 142.493 187.616C142.493 194.161 146.059 199.466 150.459 199.466Z" fill="#E57873"/>
<path d="M139.838 187.616H149.192" stroke="#2B4257" stroke-miterlimit="10" stroke-linecap="round"/>
<path d="M26.5825 224.896H70.5678H165.283" stroke="#2B4257" stroke-miterlimit="10" stroke-linecap="round"/>
<path d="M71.3264 236.745C75.7257 236.745 79.2921 231.44 79.2921 224.896C79.2921 218.351 75.7257 213.046 71.3264 213.046C66.9272 213.046 63.3608 218.351 63.3608 224.896C63.3608 231.44 66.9272 236.745 71.3264 236.745Z" fill="#628ECC"/>
<path d="M60.7061 224.896H70.06" stroke="#2B4257" stroke-miterlimit="10" stroke-linecap="round"/>
<path d="M111.914 236.745C116.313 236.745 119.879 231.44 119.879 224.896C119.879 218.351 116.313 213.046 111.914 213.046C107.514 213.046 103.948 218.351 103.948 224.896C103.948 231.44 107.514 236.745 111.914 236.745Z" fill="#6CC4BF"/>
<path d="M101.292 224.896H110.646" stroke="#2B4257" stroke-miterlimit="10" stroke-linecap="round"/>
<path d="M132.775 236.745C137.174 236.745 140.74 231.44 140.74 224.896C140.74 218.351 137.174 213.046 132.775 213.046C128.375 213.046 124.809 218.351 124.809 224.896C124.809 231.44 128.375 236.745 132.775 236.745Z" fill="#E57873"/>
<path d="M122.154 224.896H131.508" stroke="#2B4257" stroke-miterlimit="10" stroke-linecap="round"/>
<path d="M53.1571 26.5824C53.1571 11.9013 41.2575 0 26.5786 0C11.8996 0 0 11.9013 0 26.5824V240.645C0 255.326 11.8996 267.227 26.5786 267.227C41.2575 267.227 53.1571 255.326 53.1571 240.645V26.5824Z" fill="#EFEEED"/>
<path d="M391.089 608.117C395.015 608.117 398.197 604.935 398.197 601.009C398.197 597.083 395.015 593.9 391.089 593.9C387.163 593.9 383.98 597.083 383.98 601.009C383.98 604.935 387.163 608.117 391.089 608.117Z" fill="#2B4257"/>
</svg>
