<svg width="732" height="896" viewBox="0 0 732 896" fill="none" xmlns="http://www.w3.org/2000/svg">
<path d="M269.506 219.413C269.506 219.413 255.839 255.066 265.109 254.848C274.379 254.63 285.599 227.782 285.599 227.782L269.506 219.413Z" fill="#2B4257"/>
<path d="M235.12 247.361C244.389 247.182 255.61 220.334 255.61 220.334L239.517 211.936C239.517 211.936 225.81 247.588 235.12 247.361Z" fill="#2B4257"/>
<path d="M252.817 149.434C259.69 161.081 264.473 179.006 259.175 182.116C253.876 185.226 240.497 172.381 233.624 160.734C226.75 149.088 228.989 143.066 234.287 139.937C239.585 136.807 245.944 137.788 252.817 149.434Z" fill="#2B4257"/>
<path d="M319.646 82.6846C328.074 86.0419 328.054 101.194 328.054 101.194L314.467 98.5599C310.188 84.5068 319.646 82.6846 319.646 82.6846Z" fill="#F39B92"/>
<path d="M291.311 90.7064C300.382 90.548 306.166 104.571 306.166 104.571L292.608 107.384C283.249 96.0642 291.311 90.7064 291.311 90.7064Z" fill="#F39B92"/>
<path d="M319.646 82.6846C328.074 86.0419 328.054 101.194 328.054 101.194L314.467 98.5599C310.188 84.5068 319.646 82.6846 319.646 82.6846Z" stroke="#2B4257" stroke-width="2" stroke-miterlimit="10" stroke-linecap="round"/>
<path d="M291.311 90.7064C300.382 90.548 306.166 104.571 306.166 104.571L292.608 107.384C283.249 96.0642 291.311 90.7064 291.311 90.7064Z" stroke="#2B4257" stroke-width="2" stroke-miterlimit="10" stroke-linecap="round"/>
<path d="M305.128 129.488C297.205 129.488 290.184 135.232 285.648 144.185C282.962 149.588 278.626 153.997 273.268 156.773C266.971 159.924 262.184 165.449 259.96 172.13C257.736 178.812 258.257 186.103 261.409 192.401C264.561 198.698 270.085 203.485 276.767 205.709C283.448 207.933 290.74 207.412 297.037 204.26C299.521 205.621 302.305 206.342 305.138 206.36C318.815 206.36 329.897 189.157 329.897 167.924C329.897 146.691 318.805 129.488 305.128 129.488Z" fill="#2B4257"/>
<path d="M522.659 89.2312C503.842 91.816 554.013 117.268 554.013 117.268C554.013 117.268 548.16 140.888 580.941 136.818L592.379 105.463C592.379 105.463 541.475 86.6463 522.659 89.2312Z" fill="#FBC2A5"/>
<path d="M522.659 89.2305C503.842 91.8153 554.013 117.267 554.013 117.267C554.013 117.267 548.16 140.887 580.941 136.817" stroke="#2B4257" stroke-width="2" stroke-miterlimit="10" stroke-linecap="round"/>
<path d="M570.987 825.441C561.965 818.508 548.734 792.531 548.734 792.531L511.259 806.396C511.259 806.396 526.609 821.895 533.294 835.463C539.979 849.031 517.102 886.961 514.794 890.24C512.487 893.518 519.112 898.093 524.589 891.23C530.065 884.367 526.569 885.931 540.375 882.317C554.181 878.702 553.913 853.596 566.629 852.834C579.345 852.071 580.009 832.403 570.987 825.441Z" fill="#FBC2A5"/>
<path d="M514.794 890.328C512.477 893.596 519.112 898.182 524.589 891.319C530.065 884.455 526.569 886.02 540.375 882.405C554.181 878.791 553.913 853.685 566.629 852.923C579.345 852.16 580.009 832.363 570.987 825.401C561.965 818.438 548.734 792.491 548.734 792.491L511.259 806.356" stroke="#2B4257" stroke-width="2" stroke-miterlimit="10" stroke-linecap="round"/>
<path d="M511.259 806.436C511.259 806.436 526.609 821.935 533.294 835.502C539.979 849.07 517.102 887.001 514.794 890.279" stroke="#FFF1D7" stroke-width="2" stroke-miterlimit="10" stroke-linecap="round"/>
<path d="M132.322 151.752C113.506 154.336 163.677 179.789 163.677 179.789C163.677 179.789 157.824 203.418 190.605 199.338L202.043 167.984C202.043 167.984 151.129 149.167 132.322 151.752Z" fill="#FBC2A5"/>
<path d="M132.322 151.752C113.506 154.337 163.677 179.789 163.677 179.789C163.677 179.789 157.824 203.419 190.605 199.338" stroke="#2B4257" stroke-width="2" stroke-miterlimit="10" stroke-linecap="round"/>
<path d="M505.091 840.642C476.117 787.703 454.633 730.999 441.252 672.153C430.213 623.683 424.157 574.212 423.179 524.511C421.376 438.399 434.914 379.642 435.489 377.186L512.627 395.289L474.063 386.237L512.687 395.21C512.558 395.735 500.604 448.58 502.486 525.333C503.5 569.314 508.985 613.079 518.857 655.95C530.608 707.105 549.336 756.4 574.514 802.453L505.091 840.642Z" fill="#706F6F"/>
<path d="M435.132 378.811C433.597 385.743 427.882 413.85 424.882 455.95C433.626 458.903 442.798 460.389 452.027 460.347C475.637 460.347 496.088 451.087 506.11 437.569C507.527 424.763 509.081 414.493 510.329 407.274C507.659 401.224 503.527 395.932 498.306 391.874L474.063 386.239L439.311 378.088C437.895 378.316 436.498 378.534 435.132 378.811Z" fill="#2B4257"/>
<path d="M480.916 573.414C469.696 571.434 445.927 554.598 445.927 554.598L419.188 584.308C419.188 584.308 439.985 590.914 452.196 599.827C464.407 608.74 461.773 652.97 461.238 656.931C460.703 660.892 468.705 661.883 470.389 653.306C472.073 644.73 469.696 647.691 480.293 638.114C490.889 628.537 478.975 606.423 489.869 599.827C500.763 593.231 492.137 575.395 480.916 573.414Z" fill="#FBC2A5"/>
<path d="M461.238 656.931C460.704 660.892 468.706 661.883 470.389 653.306C472.073 644.73 469.696 647.691 480.293 638.114C490.89 628.537 478.976 606.423 489.87 599.827C500.763 593.231 492.177 575.395 480.956 573.414C469.736 571.434 445.967 554.598 445.967 554.598L419.228 584.308" stroke="#2B4257" stroke-width="2" stroke-miterlimit="10" stroke-linecap="round"/>
<path d="M419.188 584.309C419.188 584.309 439.985 590.914 452.196 599.827C464.407 608.741 461.773 652.97 461.238 656.931" stroke="#FFF1D7" stroke-width="2" stroke-miterlimit="10" stroke-linecap="round"/>
<path d="M510.567 131.638C520.849 131.638 529.185 123.302 529.185 113.019C529.185 102.736 520.849 94.4004 510.567 94.4004C500.284 94.4004 491.948 102.736 491.948 113.019C491.948 123.302 500.284 131.638 510.567 131.638Z" fill="#2B4257"/>
<path d="M491.948 113.019C491.947 110.573 492.427 108.151 493.362 105.891C494.298 103.631 495.669 101.577 497.398 99.8474C499.127 98.1175 501.18 96.7451 503.439 95.8088C505.699 94.8725 508.121 94.3906 510.567 94.3906" stroke="#586977" stroke-width="2" stroke-miterlimit="10" stroke-linecap="round"/>
<path d="M496.87 146.137C506.015 146.137 513.428 138.723 513.428 129.578C513.428 120.433 506.015 113.02 496.87 113.02C487.724 113.02 480.311 120.433 480.311 129.578C480.311 138.723 487.724 146.137 496.87 146.137Z" fill="#5BC0C3"/>
<path d="M342.167 894.845H641.977" stroke="#2B4257" stroke-width="2" stroke-miterlimit="10" stroke-linecap="round"/>
<path d="M661.525 894.845H672.598" stroke="#2B4257" stroke-width="2" stroke-miterlimit="10" stroke-linecap="round"/>
<path d="M499.743 218.779L461.04 219.264V179.452L499.743 175.124V218.779Z" fill="#FBC2A5"/>
<path d="M499.741 175.124V218.779" stroke="#2B4257" stroke-width="2" stroke-miterlimit="10" stroke-linecap="round"/>
<path d="M433.042 370.848H539.752V383.96C539.752 398.112 534.13 411.684 524.123 421.691C514.116 431.698 500.544 437.32 486.392 437.32C472.24 437.32 458.668 431.698 448.661 421.691C438.654 411.684 433.032 398.112 433.032 383.96V370.848H433.042Z" fill="#828181"/>
<path d="M486.401 211.797C500.552 211.8 514.121 217.423 524.126 227.429C534.131 237.436 539.752 251.007 539.752 265.157V370.848H433.041V265.157C433.041 251.005 438.663 237.433 448.67 227.426C458.677 217.419 472.249 211.797 486.401 211.797Z" fill="#628ECC"/>
<path d="M461.038 239.726C461.038 239.726 338.383 230.664 190.82 183.83" stroke="#628ECC" stroke-width="20" stroke-miterlimit="10"/>
<path d="M439.478 239.725C435.239 247.53 433.026 256.274 433.041 265.157V370.847" stroke="#FFF1D7" stroke-width="2" stroke-miterlimit="10" stroke-linecap="round"/>
<path d="M444.075 121.229L449.829 166.489H437.439L444.075 121.229Z" fill="#F39B92"/>
<path d="M449.829 166.488H437.439" stroke="#2B4257" stroke-width="2" stroke-miterlimit="10" stroke-linecap="round"/>
<path d="M461.04 219.264V179.452" stroke="#FFF1D7" stroke-width="2" stroke-miterlimit="10" stroke-linecap="round"/>
<path d="M467.357 192.94H464.525C459.101 192.94 453.899 190.786 450.064 186.951C446.229 183.115 444.074 177.914 444.074 172.49V121.219H491.611C493.933 121.219 496.16 122.141 497.802 123.783C499.444 125.425 500.366 127.652 500.366 129.974V159.912C500.366 168.668 496.889 177.066 490.699 183.26C484.51 189.453 476.114 192.935 467.357 192.94Z" fill="#FBC2A5"/>
<path d="M441.005 167.221C441.005 167.221 421.633 209.717 449.829 218.779C478.024 227.841 496.375 181.037 482.728 160.615L495.118 167.221L495.058 171.183C495.035 172.606 495.512 173.992 496.406 175.099C497.3 176.207 498.555 176.965 499.95 177.243C499.95 177.243 520.134 146.384 512.32 127.815C504.506 109.246 451.73 94.341 444.075 121.229C444.075 121.229 473.062 122.625 477.529 129.221C484.907 140.115 479.569 176.818 467.16 173.361C454.751 169.905 449.878 164.121 441.005 167.221Z" fill="#2B4257"/>
<path d="M488.72 110.266C470.785 103.958 448.809 104.601 444.075 121.229" stroke="#586977" stroke-width="2" stroke-miterlimit="10" stroke-linecap="round"/>
<path d="M441.005 167.221C441.005 167.221 421.633 209.717 449.829 218.779C465.486 223.81 478.103 211.608 483.887 196.258" stroke="#586977" stroke-width="2" stroke-miterlimit="10" stroke-linecap="round"/>
<path d="M461.762 154.337C461.562 154.175 461.383 153.989 461.228 153.782C460.986 153.496 460.682 153.27 460.338 153.12C459.994 152.971 459.621 152.903 459.247 152.921H449.631V159.784C449.631 161.757 450.414 163.648 451.809 165.043C453.204 166.438 455.096 167.222 457.068 167.222C459.041 167.222 460.933 166.438 462.327 165.043C463.722 163.648 464.506 161.757 464.506 159.784C464.5 158.726 464.249 157.684 463.773 156.739C463.297 155.794 462.609 154.972 461.762 154.337Z" fill="#F4AB9D"/>
<path d="M461.872 153.692C461.357 150.929 458.643 149.236 455.217 149.79C453.034 150.166 451.045 151.277 449.582 152.94C450.097 155.703 452.81 157.406 456.237 156.852C458.42 156.471 460.408 155.356 461.872 153.692Z" fill="#F7F7F7"/>
<path d="M449.631 152.94C450.146 155.704 452.859 157.407 456.286 156.852C458.469 156.471 460.457 155.357 461.921 153.693" stroke="#2B4257" stroke-width="2" stroke-miterlimit="10" stroke-linecap="round"/>
<path d="M453.385 154.416C453.757 154.416 454.059 154.035 454.059 153.565C454.059 153.094 453.757 152.713 453.385 152.713C453.013 152.713 452.712 153.094 452.712 153.565C452.712 154.035 453.013 154.416 453.385 154.416Z" fill="#2B4257"/>
<path d="M465.525 168.886C468.369 168.886 470.675 166.58 470.675 163.736C470.675 160.892 468.369 158.586 465.525 158.586C462.681 158.586 460.375 160.892 460.375 163.736C460.375 166.58 462.681 168.886 465.525 168.886Z" fill="#E57873"/>
<path d="M447.59 145.146C449.456 143.984 451.595 143.333 453.792 143.258C455.989 143.183 458.167 143.688 460.108 144.72" stroke="#2B4257" stroke-width="2" stroke-miterlimit="10" stroke-linecap="round"/>
<path d="M458.642 171.331C457.295 172.509 455.661 173.312 453.906 173.659C452.15 174.007 450.334 173.887 448.64 173.312" stroke="#BF6060" stroke-width="2" stroke-miterlimit="10" stroke-linecap="round"/>
<path d="M491.234 169.123C495.932 169.123 499.741 165.314 499.741 160.616C499.741 155.917 495.932 152.108 491.234 152.108C486.536 152.108 482.727 155.917 482.727 160.616C482.727 165.314 486.536 169.123 491.234 169.123Z" fill="#FBC2A5"/>
<path d="M491.236 164.973C493.643 164.973 495.594 163.022 495.594 160.615C495.594 158.209 493.643 156.258 491.236 156.258C488.83 156.258 486.879 158.209 486.879 160.615C486.879 163.022 488.83 164.973 491.236 164.973Z" fill="#F4AB9D"/>
<path d="M501.554 264.484L500.336 214.966L500.94 239.725L500.326 214.966C526.139 214.044 551.873 211.557 577.385 207.518C599.282 203.904 617.069 199.338 630.26 193.97C644.413 188.207 649.186 183.017 649.85 181.492C649.78 180.974 649.65 180.465 649.463 179.977C648.215 176.51 641.541 164.299 607.373 152.722C593.842 148.2 579.945 144.857 565.838 142.73L572.434 93.6377C589.724 96.2105 606.757 100.29 623.338 105.829C662.754 119.189 687.245 138.511 696.129 163.269C701.972 179.541 699.961 196.139 690.474 209.994C674.777 232.901 638.282 248.43 578.891 257.472C553.265 261.267 527.445 263.608 501.554 264.484Z" fill="#628ECC"/>
<path d="M690.436 209.955C674.739 232.862 638.244 248.391 578.853 257.433C560.452 260.225 542.903 261.939 529.196 262.969" stroke="#2B4257" stroke-width="2" stroke-miterlimit="10" stroke-linecap="round"/>
<path d="M430.11 619.199C428.07 618.209 379.602 594.222 335.036 558.094C307.158 535.534 286.232 512.597 272.822 489.928C247.657 447.343 252.48 412.047 260.938 389.903C271.545 362.222 291.639 342.167 318.933 331.898C352.179 319.409 395.735 321.766 448.392 338.919C484.293 350.585 539.752 370.848 536.613 372.928L476.37 435.954L494.889 400.925L476.37 435.974C459.083 427.261 441.155 419.884 422.742 413.909C389.575 403.233 361.875 400.38 346.752 406.085C340.711 408.363 337.393 411.77 334.918 418.256C331.62 426.863 329.797 451.651 384.009 495.821C421.712 526.522 464.654 547.904 465.09 548.112L430.11 619.199Z" fill="#828181"/>
<path d="M318.905 331.907C352.151 319.419 395.707 321.776 448.364 338.929" stroke="#FFF1D7" stroke-width="2" stroke-miterlimit="10" stroke-linecap="round"/>
<path d="M346.772 406.045C340.731 408.323 337.413 411.73 334.937 418.216C331.639 426.823 329.817 451.611 384.029 495.781C421.732 526.482 464.673 547.864 465.109 548.072" stroke="#2B4257" stroke-width="2" stroke-miterlimit="10" stroke-linecap="round"/>
<path d="M422.762 413.909C389.595 403.233 361.895 400.381 346.772 406.085" stroke="#2B4257" stroke-width="2" stroke-miterlimit="10" stroke-linecap="round"/>
<path d="M486.115 266.059C487.273 261.87 489.59 258.094 492.799 255.165C493.154 253.538 493.333 251.878 493.334 250.213C493.344 247.062 492.708 243.943 491.467 241.048C490.225 238.152 488.404 235.542 486.115 233.377C483.826 235.542 482.004 238.152 480.762 241.048C479.521 243.943 478.885 247.062 478.895 250.213C478.896 251.878 479.076 253.538 479.43 255.165C482.636 258.097 484.953 261.872 486.115 266.059Z" fill="#7FADE5"/>
<path d="M486.115 267.396C484.953 271.582 482.636 275.358 479.43 278.289C479.077 279.916 478.897 281.576 478.895 283.241C478.885 286.392 479.521 289.511 480.762 292.406C482.004 295.302 483.826 297.912 486.115 300.077C488.404 297.912 490.225 295.302 491.467 292.406C492.708 289.511 493.344 286.392 493.334 283.241C493.332 281.576 493.152 279.916 492.799 278.289C489.59 275.36 487.273 271.584 486.115 267.396Z" fill="#7FADE5"/>
<path d="M485.531 266.405C482.482 263.306 480.367 259.41 479.43 255.165C476.481 252.478 472.889 250.597 469.001 249.706C465.113 248.814 461.061 248.941 457.236 250.074C458.167 253.953 460.084 257.525 462.802 260.445C465.519 263.365 468.944 265.534 472.745 266.742C476.891 265.43 481.322 265.314 485.531 266.405Z" fill="#7FADE5"/>
<path d="M485.531 266.405L485.987 266.534C485.987 266.376 486.076 266.217 486.115 266.069C484.954 261.882 482.637 258.107 479.43 255.175C480.37 259.417 482.484 263.309 485.531 266.405Z" fill="#BBDBF9"/>
<path d="M504.101 268.752C502.648 267.93 501.11 267.266 499.516 266.771C495.374 268.083 490.946 268.2 486.74 267.108C489.765 270.196 491.865 274.069 492.801 278.289C495.745 280.984 499.336 282.871 503.225 283.768C507.113 284.666 511.168 284.542 514.995 283.409C514.27 280.355 512.93 277.479 511.057 274.959C509.184 272.439 506.817 270.327 504.101 268.752Z" fill="#7FADE5"/>
<path d="M486.7 267.069L486.234 266.95L486.115 267.406C487.274 271.594 489.591 275.37 492.8 278.3C491.861 274.058 489.747 270.166 486.7 267.069Z" fill="#BBDBF9"/>
<path d="M485.531 267.069C481.322 268.161 476.891 268.044 472.745 266.732C468.942 267.94 465.516 270.111 462.798 273.033C460.081 275.955 458.165 279.529 457.236 283.41C461.064 284.537 465.117 284.657 469.004 283.76C472.892 282.864 476.483 280.979 479.43 278.29C480.371 274.051 482.485 270.163 485.531 267.069Z" fill="#7FADE5"/>
<path d="M486.115 267.396L485.987 266.94L485.531 267.059C482.484 270.156 480.37 274.048 479.43 278.29C482.637 275.358 484.954 271.583 486.115 267.396Z" fill="#BBDBF9"/>
<path d="M485.531 267.069L485.868 266.732L485.531 266.395C481.322 265.304 476.891 265.42 472.745 266.732C476.891 268.043 481.322 268.16 485.531 267.069Z" fill="#BBDBF9"/>
<path d="M485.898 266.613H485.977C485.977 266.613 485.977 266.564 485.977 266.544L485.521 266.415L485.858 266.752L485.908 266.702C485.914 266.672 485.911 266.641 485.898 266.613Z" fill="#7FADE5"/>
<path d="M485.898 266.861C485.903 266.835 485.903 266.808 485.898 266.782L485.849 266.732L485.512 267.069L485.968 266.95C485.968 266.95 485.968 266.901 485.968 266.871L485.898 266.861Z" fill="#7FADE5"/>
<path d="M485.937 266.732V266.683L485.888 266.732L485.937 266.782C485.937 266.782 485.927 266.752 485.937 266.732Z" fill="#7FADE5"/>
<path d="M486.115 266.979V266.93H486.035L486.164 267.385L486.283 266.93H486.214L486.115 266.979Z" fill="#7FADE5"/>
<path d="M486.066 266.93V266.979L486.116 266.93H486.066Z" fill="#7FADE5"/>
<path d="M485.974 266.594H485.897C485.903 266.616 485.903 266.639 485.897 266.661L485.974 266.594Z" fill="#7FADE5"/>
<path d="M486.025 266.891H485.977C485.977 266.891 485.977 266.891 485.977 266.968H486.054L486.025 266.891Z" fill="#7FADE5"/>
<path d="M485.916 266.682V266.732C485.911 266.702 485.911 266.672 485.916 266.643V266.682Z" fill="#7FADE5"/>
<path d="M486.7 266.405C490.906 265.313 495.334 265.43 499.476 266.742C501.07 266.247 502.608 265.583 504.061 264.761C506.777 263.187 509.143 261.077 511.016 258.559C512.889 256.04 514.229 253.167 514.955 250.114C511.941 249.214 508.776 248.94 505.653 249.308C502.529 249.676 499.514 250.678 496.792 252.253C495.346 253.096 493.994 254.092 492.761 255.224C491.825 259.444 489.725 263.317 486.7 266.405Z" fill="#7FADE5"/>
<path d="M486.115 266.058L486.234 266.524L486.7 266.395C489.749 263.295 491.863 259.4 492.8 255.154C489.589 258.086 487.272 261.866 486.115 266.058Z" fill="#BBDBF9"/>
<path d="M486.115 266.484L486.165 266.534H486.274L486.155 266.068C486.155 266.217 486.066 266.375 486.026 266.534H486.106L486.115 266.484Z" fill="#7FADE5"/>
<path d="M486.165 266.534L486.115 266.484V266.534H486.165Z" fill="#7FADE5"/>
<path d="M486.699 266.405L486.362 266.742L486.699 267.078C490.904 268.17 495.332 268.053 499.474 266.742C495.332 265.43 490.904 265.313 486.699 266.405Z" fill="#BBDBF9"/>
<path d="M486.324 266.613C486.324 266.613 486.324 266.613 486.324 266.683C486.324 266.752 486.324 266.683 486.324 266.732L486.661 266.396L486.196 266.524C486.201 266.547 486.201 266.571 486.196 266.594L486.324 266.613Z" fill="#7FADE5"/>
<path d="M486.272 266.781C486.272 266.781 486.272 266.831 486.272 266.86C486.277 266.887 486.277 266.913 486.272 266.94L486.738 267.058L486.401 266.722L486.272 266.781Z" fill="#7FADE5"/>
<path d="M486.202 266.571H486.25C486.256 266.549 486.256 266.526 486.25 266.504H486.183L486.202 266.571Z" fill="#7FADE5"/>
<path d="M486.272 266.869H486.34C486.34 266.869 486.34 266.869 486.34 266.792L486.272 266.869Z" fill="#7FADE5"/>
<path d="M486.273 266.821C486.273 266.821 486.273 266.821 486.273 266.771C486.272 266.788 486.272 266.804 486.273 266.821Z" fill="#7FADE5"/>
<path d="M486.023 266.573H485.946C485.946 266.573 485.946 266.573 485.946 266.641L486.023 266.573Z" fill="#7FADE5"/>
<path d="M485.916 266.781C485.92 266.807 485.92 266.833 485.916 266.858H485.992V266.81L485.916 266.781Z" fill="#7FADE5"/>
<path d="M485.938 266.732C485.938 266.732 485.938 266.732 485.938 266.782C485.937 266.765 485.937 266.749 485.938 266.732Z" fill="#7FADE5"/>
<path d="M486.272 266.681C486.272 266.681 486.272 266.681 486.272 266.613H486.205V266.661L486.272 266.681Z" fill="#7FADE5"/>
<path d="M486.205 266.888H486.272C486.276 266.863 486.276 266.837 486.272 266.812L486.205 266.888Z" fill="#7FADE5"/>
<path d="M486.273 266.732V266.683C486.272 266.699 486.272 266.715 486.273 266.732Z" fill="#7FADE5"/>
<path d="M486.026 266.573H485.977V266.622L486.026 266.573Z" fill="#7FADE5"/>
<path d="M486.271 266.594H486.223L486.29 266.661L486.271 266.594Z" fill="#7FADE5"/>
<path d="M485.975 266.868H486.023L485.956 266.801L485.975 266.868Z" fill="#7FADE5"/>
<path d="M486.205 266.89H486.254V266.841L486.205 266.89Z" fill="#7FADE5"/>
<path d="M486.271 266.73C486.267 266.701 486.267 266.671 486.271 266.642L486.202 266.573H486.114H486.026L485.957 266.642C485.944 266.67 485.937 266.7 485.937 266.73C485.937 266.761 485.944 266.791 485.957 266.819L486.026 266.888H486.114H486.202L486.271 266.819C486.267 266.79 486.267 266.76 486.271 266.73Z" fill="#7FADE5"/>
<path d="M312.517 136.025C324.643 136.025 334.473 126.194 334.473 114.068C334.473 101.942 324.643 92.1123 312.517 92.1123C300.391 92.1123 290.561 101.942 290.561 114.068C290.561 126.194 300.391 136.025 312.517 136.025Z" fill="#2B4257"/>
<path d="M314.489 113.259C315.331 111.352 313.068 108.507 309.436 106.902C305.804 105.298 302.176 105.543 301.335 107.449C300.493 109.355 302.755 112.201 306.387 113.805C310.019 115.41 313.647 115.165 314.489 113.259Z" fill="white"/>
<path d="M301.562 107.087C301.564 108.431 301.95 109.746 302.675 110.878C303.399 112.009 304.432 112.91 305.652 113.475C306.986 114.142 308.453 114.504 309.945 114.535C311.437 114.566 312.917 114.265 314.278 113.653" stroke="#2B4257" stroke-width="2" stroke-miterlimit="10" stroke-linecap="round"/>
<path d="M311.275 110.745C311.791 110.165 311.921 109.438 311.566 109.122C311.21 108.806 310.503 109.02 309.987 109.6C309.471 110.181 309.341 110.908 309.697 111.224C310.053 111.54 310.759 111.326 311.275 110.745Z" fill="#354B5F"/>
<path d="M328.443 110.889C331.393 108.509 332.67 105.199 331.296 103.496C329.921 101.794 326.416 102.344 323.467 104.724C320.517 107.105 319.24 110.415 320.615 112.118C321.989 113.82 325.494 113.27 328.443 110.889Z" fill="white"/>
<path d="M330.867 103.096C331.356 104.306 331.462 105.636 331.17 106.908C330.877 108.18 330.201 109.331 329.233 110.206C328.141 111.195 326.836 111.921 325.42 112.328C324.004 112.734 322.513 112.812 321.063 112.554" stroke="#2B4257" stroke-width="2" stroke-miterlimit="10" stroke-linecap="round"/>
<path d="M327.179 108.703C327.682 108.695 328.08 108.094 328.068 107.361C328.056 106.629 327.638 106.041 327.135 106.05C326.632 106.058 326.234 106.659 326.246 107.391C326.258 108.124 326.676 108.712 327.179 108.703Z" fill="#354B5F"/>
<path d="M308.218 183.83C308.218 183.83 294.561 219.483 303.821 219.265C313.081 219.047 324.321 192.238 324.321 192.238L308.218 183.83Z" fill="#2B4257"/>
<path d="M273.831 211.778C283.101 211.599 294.322 184.751 294.322 184.751L278.229 176.343C278.229 176.343 264.562 211.936 273.831 211.778Z" fill="#2B4257"/>
<path d="M159.346 177.521C159.346 177.521 170.022 183.542 174.974 181.066" stroke="#2B4257" stroke-width="2" stroke-miterlimit="10" stroke-linecap="round"/>
<path d="M596.431 287.144L596.787 288.57C596.85 288.822 596.979 289.052 597.16 289.237C597.342 289.423 597.57 289.556 597.82 289.624C598.071 289.691 598.335 289.691 598.585 289.622C598.835 289.554 599.062 289.419 599.243 289.233L600.234 288.174C600.459 287.942 600.756 287.791 601.076 287.746C601.396 287.702 601.723 287.765 602.003 287.926C602.284 288.087 602.503 288.338 602.625 288.637C602.748 288.937 602.767 289.268 602.68 289.58L602.274 290.996C602.202 291.246 602.198 291.511 602.263 291.763C602.328 292.015 602.459 292.245 602.643 292.429C602.827 292.613 603.057 292.745 603.309 292.81C603.561 292.875 603.826 292.871 604.076 292.799L605.482 292.393C605.793 292.306 606.123 292.325 606.422 292.446C606.721 292.567 606.971 292.785 607.133 293.063C607.295 293.342 607.359 293.666 607.317 293.986C607.275 294.306 607.128 294.602 606.899 294.829L605.839 295.819C605.653 295.999 605.519 296.226 605.449 296.476C605.38 296.725 605.379 296.989 605.445 297.239C605.512 297.489 605.644 297.717 605.828 297.899C606.012 298.082 606.242 298.211 606.493 298.275L607.929 298.632C608.245 298.707 608.526 298.887 608.728 299.142C608.929 299.398 609.038 299.713 609.038 300.038C609.038 300.363 608.929 300.679 608.728 300.934C608.526 301.189 608.245 301.369 607.929 301.444L606.493 301.801C606.242 301.865 606.012 301.995 605.828 302.177C605.644 302.359 605.512 302.587 605.445 302.837C605.379 303.088 605.38 303.351 605.449 303.601C605.519 303.85 605.653 304.077 605.839 304.257L606.899 305.247C607.128 305.474 607.275 305.771 607.317 306.09C607.359 306.41 607.295 306.734 607.133 307.013C606.971 307.292 606.721 307.509 606.422 307.63C606.123 307.752 605.793 307.77 605.482 307.684L604.076 307.278C603.826 307.205 603.561 307.202 603.309 307.267C603.057 307.332 602.827 307.463 602.643 307.647C602.459 307.831 602.328 308.061 602.263 308.313C602.198 308.565 602.202 308.83 602.274 309.08L602.68 310.496C602.777 310.807 602.767 311.141 602.652 311.445C602.537 311.749 602.323 312.006 602.045 312.175C601.767 312.343 601.44 312.414 601.118 312.375C600.795 312.337 600.494 312.191 600.263 311.962L599.273 310.902C599.092 310.716 598.865 310.582 598.614 310.514C598.364 310.445 598.1 310.444 597.85 310.512C597.599 310.58 597.372 310.713 597.19 310.898C597.008 311.084 596.88 311.314 596.817 311.566L596.46 312.992C596.381 313.306 596.199 313.584 595.943 313.783C595.688 313.982 595.373 314.09 595.049 314.09C594.725 314.09 594.411 313.982 594.155 313.783C593.899 313.584 593.717 313.306 593.638 312.992L593.281 311.566C593.219 311.314 593.09 311.084 592.908 310.898C592.727 310.713 592.499 310.58 592.248 310.512C591.998 310.444 591.734 310.445 591.484 310.514C591.233 310.582 591.006 310.716 590.825 310.902L589.835 311.962C589.632 312.262 589.325 312.476 588.973 312.561C588.621 312.647 588.25 312.598 587.932 312.425C587.614 312.252 587.372 311.967 587.254 311.625C587.135 311.283 587.148 310.909 587.29 310.575L587.696 309.159C587.767 308.91 587.771 308.647 587.706 308.396C587.641 308.145 587.511 307.916 587.328 307.732C587.146 307.548 586.917 307.417 586.667 307.351C586.416 307.285 586.153 307.287 585.903 307.357L584.487 307.763C584.175 307.856 583.841 307.841 583.539 307.721C583.237 307.6 582.984 307.382 582.822 307.1C582.659 306.818 582.596 306.49 582.643 306.168C582.69 305.847 582.844 305.55 583.081 305.327L584.13 304.336C584.316 304.156 584.451 303.929 584.52 303.68C584.589 303.43 584.591 303.167 584.524 302.916C584.457 302.666 584.325 302.438 584.141 302.256C583.957 302.074 583.728 301.944 583.477 301.88L582.051 301.524C581.735 301.448 581.453 301.268 581.252 301.013C581.05 300.758 580.941 300.442 580.941 300.117C580.941 299.792 581.05 299.477 581.252 299.222C581.453 298.966 581.735 298.787 582.051 298.711L583.477 298.355C583.728 298.291 583.957 298.161 584.141 297.979C584.325 297.796 584.457 297.568 584.524 297.318C584.591 297.068 584.589 296.804 584.52 296.555C584.451 296.305 584.316 296.079 584.13 295.898L583.081 294.908C582.844 294.685 582.69 294.388 582.643 294.066C582.596 293.745 582.659 293.416 582.822 293.135C582.984 292.853 583.237 292.634 583.539 292.514C583.841 292.394 584.175 292.379 584.487 292.472L585.903 292.878C586.153 292.948 586.416 292.95 586.667 292.884C586.917 292.818 587.146 292.686 587.328 292.503C587.511 292.319 587.641 292.09 587.706 291.839C587.771 291.588 587.767 291.324 587.696 291.075L587.29 289.58C587.203 289.268 587.222 288.937 587.344 288.637C587.467 288.338 587.686 288.087 587.966 287.926C588.247 287.765 588.573 287.702 588.893 287.746C589.214 287.791 589.51 287.942 589.736 288.174L590.726 289.233C590.907 289.419 591.134 289.554 591.385 289.622C591.635 289.691 591.899 289.691 592.149 289.624C592.4 289.556 592.628 289.423 592.809 289.237C592.991 289.052 593.12 288.822 593.182 288.57L593.539 287.144C593.58 286.789 593.751 286.463 594.017 286.226C594.284 285.988 594.628 285.857 594.985 285.857C595.341 285.857 595.686 285.988 595.952 286.226C596.219 286.463 596.389 286.789 596.431 287.144Z" fill="#6CC4BF"/>
<path d="M661.528 304.346L685.039 347.337L728.03 370.848L685.039 394.359L661.528 437.35L638.017 394.359L595.025 370.848L638.017 347.337L661.528 304.346Z" fill="#F39B92"/>
<path d="M152.087 268.465L160.406 260.146L168.715 268.465L173.835 263.345L165.516 255.036L173.835 246.717L168.715 241.597L160.406 249.916L152.087 241.597L146.967 246.717L155.286 255.036L146.967 263.345L152.087 268.465Z" fill="#D2C5B9"/>
<path d="M115.048 316.973L120.188 311.843L125.318 316.973L128.487 313.814L123.347 308.684L128.487 303.544L125.318 300.385L120.188 305.525L115.048 300.385L111.889 303.544L117.029 308.684L111.889 313.814L115.048 316.973Z" fill="#D2C5B9"/>
<path d="M89.1128 264.167H93.609V268.664H96.3721V264.167H100.868V261.404H96.3721V256.908H93.609V261.404H89.1128V264.167Z" fill="#D2C5B9"/>
<path d="M112.812 221.582H117.308V226.078H120.081V221.582H124.578V218.809H120.081V214.312H117.308V218.809H112.812V221.582Z" fill="#D2C5B9"/>
<path d="M156.398 313.873L160.339 316.032L158.18 319.974L160.607 321.31L162.766 317.369L166.707 319.528L168.034 317.111L164.103 314.943L166.262 311.001L163.835 309.674L161.676 313.606L157.735 311.447L156.398 313.873Z" fill="#D2C5B9"/>
<path d="M671.51 517.113H659.745V505.357H652.515V517.113H640.75V524.352H652.515V536.108H659.745V524.352H671.51V517.113Z" fill="#D2C5B9"/>
<path d="M732 509.003H724.731V501.733H720.265V509.003H713.005V513.469H720.265V520.728H724.731V513.469H732V509.003Z" fill="#D2C5B9"/>
<path d="M713.005 564.68L709.826 561.511L713.005 558.322L711.044 556.371L707.865 559.55L704.686 556.371L702.725 558.322L705.905 561.511L702.725 564.68L704.686 566.641L707.865 563.462L711.044 566.641L713.005 564.68Z" fill="#D2C5B9"/>
<path d="M666.123 578.04L662.944 574.861L666.123 571.682L664.172 569.721L660.993 572.9L657.814 569.721L655.853 571.682L659.032 574.861L655.853 578.04L657.814 579.991L660.993 576.812L664.172 579.991L666.123 578.04Z" fill="#D2C5B9"/>
<path d="M700.568 481.956L699.31 477.638L703.628 476.38L702.855 473.726L698.537 474.984L697.28 470.666L694.625 471.438L695.883 475.756L691.565 477.014L692.338 479.668L696.656 478.411L697.903 482.729L700.568 481.956Z" fill="#D2C5B9"/>
<path d="M168.15 369.402L166.388 373.977C166.207 374.442 166.18 374.952 166.31 375.433C166.44 375.914 166.721 376.341 167.111 376.651L170.963 379.761C171.319 380.044 171.585 380.426 171.727 380.858C171.869 381.29 171.882 381.755 171.765 382.194C171.647 382.634 171.403 383.029 171.064 383.332C170.724 383.636 170.304 383.833 169.854 383.901L164.962 384.653C164.463 384.728 164.002 384.961 163.645 385.317C163.289 385.674 163.056 386.135 162.981 386.634L162.228 391.526C162.158 391.975 161.96 392.393 161.657 392.731C161.354 393.069 160.96 393.311 160.522 393.43C160.084 393.548 159.621 393.537 159.189 393.398C158.757 393.259 158.375 392.997 158.088 392.645L154.979 388.783C154.668 388.393 154.241 388.113 153.76 387.983C153.279 387.853 152.769 387.88 152.305 388.06L147.69 389.853C147.266 390.019 146.803 390.058 146.358 389.966C145.912 389.873 145.503 389.652 145.182 389.33C144.86 389.008 144.639 388.6 144.546 388.154C144.453 387.709 144.493 387.246 144.659 386.822L146.442 382.207C146.626 381.744 146.657 381.234 146.528 380.752C146.4 380.27 146.12 379.843 145.729 379.533L141.866 376.423C141.515 376.138 141.253 375.756 141.113 375.325C140.974 374.894 140.962 374.432 141.079 373.994C141.196 373.556 141.438 373.162 141.774 372.858C142.111 372.555 142.528 372.355 142.976 372.284L147.927 371.531C148.427 371.459 148.89 371.227 149.247 370.87C149.604 370.513 149.836 370.05 149.908 369.55L150.671 364.658C150.737 364.207 150.933 363.785 151.236 363.445C151.538 363.104 151.934 362.859 152.373 362.74C152.813 362.621 153.278 362.634 153.711 362.775C154.144 362.917 154.526 363.183 154.81 363.539L157.92 367.401C158.231 367.791 158.657 368.071 159.138 368.202C159.619 368.332 160.13 368.304 160.594 368.124L165.209 366.332C165.632 366.184 166.089 366.161 166.524 366.266C166.96 366.371 167.356 366.598 167.666 366.922C167.976 367.245 168.186 367.651 168.272 368.091C168.358 368.53 168.316 368.985 168.15 369.402Z" fill="#628ECC"/>
<path d="M601.859 522.462L595.956 539.862L606.949 554.599L588.568 554.361L577.951 569.365L572.495 551.816L554.946 546.359L569.949 535.752L569.722 517.371L584.448 528.364L601.859 522.462Z" fill="#628ECC"/>
<path d="M314.11 117.684C314.752 118.441 315.583 119.015 316.519 119.347C317.454 119.679 318.461 119.757 319.437 119.574C320.412 119.391 321.322 118.953 322.074 118.304C322.826 117.656 323.392 116.82 323.716 115.882" stroke="#F39B92" stroke-width="2" stroke-miterlimit="10" stroke-linecap="round"/>
<path d="M115.248 56.628C115.244 47.1607 112.866 37.8455 108.332 29.5345C103.798 21.2235 97.2527 14.1817 89.2947 9.05337C81.3368 3.92499 72.22 0.873622 62.7783 0.178328C53.3366 -0.516965 43.8712 1.16601 35.2478 5.07333C26.6245 8.98065 19.1183 14.9876 13.4159 22.5448C7.71349 30.1021 3.99676 38.9684 2.60565 48.3329C1.21454 57.6975 2.19344 67.2613 5.45283 76.1498C8.71222 85.0384 14.1481 92.9679 21.2633 99.2132C36.9108 112.9 49.8449 129.468 58.4411 148.414L58.5798 148.721L58.7184 148.414C67.1314 129.752 79.5667 113.18 95.1338 99.8866C101.441 94.5816 106.51 87.9598 109.985 80.4865C113.46 73.0132 115.256 64.8696 115.248 56.628Z" fill="#7296A3"/>
<path d="M1.98897 54.7168C1.69445 63.0923 3.26851 71.4283 6.59688 79.1197C9.92526 86.8111 14.9244 93.665 21.2315 99.1837C36.9088 112.9 49.8429 129.469 58.4391 148.414" stroke="#FFF1D7" stroke-width="2" stroke-miterlimit="10" stroke-linecap="round"/>
<path d="M58.759 148.415C67.172 129.752 79.6073 113.181 95.1743 99.8873C101.472 94.5806 106.532 87.9604 110 80.4909C113.468 73.0214 115.259 64.8837 115.249 56.6484" stroke="#2B4257" stroke-width="2" stroke-miterlimit="10" stroke-linecap="round"/>
<path d="M58.6201 76.0497C69.3459 76.0497 78.0409 67.3547 78.0409 56.6288C78.0409 45.903 69.3459 37.208 58.6201 37.208C47.8942 37.208 39.1992 45.903 39.1992 56.6288C39.1992 67.3547 47.8942 76.0497 58.6201 76.0497Z" fill="#A7C0C6"/>
<path d="M58.6196 181.66C62.8093 181.66 66.2057 178.264 66.2057 174.074C66.2057 169.885 62.8093 166.488 58.6196 166.488C54.4299 166.488 51.0334 169.885 51.0334 174.074C51.0334 178.264 54.4299 181.66 58.6196 181.66Z" fill="#7296A3"/>
<path d="M58.6174 37.208C61.1678 37.208 63.6932 37.7103 66.0495 38.6863C68.4057 39.6623 70.5466 41.0928 72.35 42.8962C74.1534 44.6996 75.584 46.8406 76.5599 49.1968C77.5359 51.5531 78.0383 54.0785 78.0383 56.6288" stroke="#FFF1D7" stroke-width="2" stroke-miterlimit="10" stroke-linecap="round"/>
<path d="M39.1992 56.6288C39.1992 51.4781 41.2453 46.5384 44.8875 42.8962C48.5296 39.2541 53.4693 37.208 58.6201 37.208" stroke="#2B4257" stroke-width="2" stroke-miterlimit="10" stroke-linecap="round"/>
</svg>
