<svg width="93" height="93" viewBox="0 0 93 93" fill="none" xmlns="http://www.w3.org/2000/svg">
<path d="M46.5 6L83 26.25V66.75L46.5 87L10 66.75V26.25L46.5 6ZM46.5 14.5087L17.6842 30.4955V62.5045L46.5 78.4913L75.3158 62.5045V30.4955L46.5 14.5087ZM46.5 61.2273C38.0123 61.2273 31.1316 54.6335 31.1316 46.5C31.1316 38.3663 38.0123 31.7727 46.5 31.7727C54.9876 31.7727 61.8684 38.3663 61.8684 46.5C61.8684 54.6335 54.9876 61.2273 46.5 61.2273ZM46.5 53.8636C50.744 53.8636 54.1842 50.5669 54.1842 46.5C54.1842 42.4331 50.744 39.1364 46.5 39.1364C42.256 39.1364 38.8158 42.4331 38.8158 46.5C38.8158 50.5669 42.256 53.8636 46.5 53.8636Z" fill="black"/>
</svg>
