<svg width="506" height="169" viewBox="0 0 506 169" fill="none" xmlns="http://www.w3.org/2000/svg">
<g clip-path="url(#clip0_445_5465)">
<path d="M465.705 0.00054925H40.3174C38.7668 0.00054925 37.2349 0.00054925 35.6884 0.00899925C34.3938 0.0174493 33.1096 0.0419965 31.8026 0.0626567C28.9632 0.0960419 26.1305 0.345631 23.3291 0.809256C20.5316 1.28297 17.8218 2.17607 15.2912 3.45833C12.7637 4.75144 10.4543 6.43171 8.44673 8.43817C6.42861 10.439 4.74634 12.7517 3.46462 15.2873C2.17937 17.8178 1.28817 20.5296 0.82181 23.3288C0.351012 26.1245 0.0976716 28.9524 0.0640618 31.7873C0.0248213 33.0826 0.0206774 34.3823 0 35.6779V133.336C0.0206774 134.647 0.0248213 135.918 0.0640618 137.231C0.0976819 140.065 0.351022 142.893 0.82181 145.689C1.28689 148.49 2.17814 151.203 3.46462 153.734C4.74576 156.262 6.42826 158.565 8.44673 160.555C10.4467 162.57 12.7576 164.252 15.2912 165.535C17.8217 166.82 20.5313 167.719 23.3291 168.2C26.131 168.66 28.9634 168.91 31.8026 168.947C33.1096 168.976 34.3938 168.992 35.6884 168.992C37.2348 169.001 38.7669 169.001 40.3174 169.001H465.705C467.225 169.001 468.769 169.001 470.289 168.992C471.577 168.992 472.899 168.976 474.187 168.947C477.021 168.911 479.848 168.662 482.644 168.2C485.451 167.715 488.17 166.817 490.713 165.535C493.244 164.251 495.553 162.569 497.551 160.555C499.565 158.557 501.251 156.256 502.548 153.734C503.825 151.201 504.707 148.488 505.166 145.689C505.637 142.893 505.9 140.066 505.951 137.231C505.967 135.918 505.967 134.647 505.967 133.336C506 131.801 506 130.274 506 128.714V40.2907C506 38.7435 506 37.2086 505.967 35.6779C505.967 34.3823 505.967 33.0826 505.951 31.7871C505.9 28.952 505.637 26.1247 505.166 23.3286C504.706 20.531 503.823 17.8195 502.548 15.2871C499.938 10.2048 495.799 6.06776 490.713 3.45795C488.17 2.17882 485.451 1.28596 482.644 0.808876C479.849 0.343209 477.021 0.0935321 474.187 0.0620652C472.899 0.0414472 471.577 0.0166887 470.289 0.00845C468.769 0 467.225 0.00054925 465.705 0.00054925Z" fill="#A6A6A6"/>
<path d="M35.7089 165.304C34.4205 165.304 33.1633 165.287 31.8851 165.258C29.2371 165.224 26.5953 164.993 23.9814 164.569C21.5441 164.15 19.1829 163.37 16.9759 162.254C14.7891 161.148 12.7945 159.698 11.0687 157.959C9.31781 156.241 7.86015 154.248 6.75344 152.059C5.63453 149.856 4.86018 147.495 4.45736 145.057C4.02235 142.438 3.78699 139.79 3.75331 137.135C3.7265 136.244 3.69141 133.278 3.69141 133.278V35.6777C3.69141 35.6777 3.72879 32.7565 3.75352 31.8983C3.78577 29.2479 4.01976 26.6038 4.45347 23.9888C4.85703 21.5447 5.63198 19.1766 6.75149 16.9664C7.85414 14.7792 9.30371 12.7847 11.044 11.0601C12.7824 9.31914 14.7833 7.86144 16.9738 6.74015C19.1758 5.62849 21.5325 4.85379 23.9649 4.44201C26.5874 4.01345 29.2383 3.78175 31.8955 3.74885L35.7109 3.69727H470.268L474.129 3.75092C476.762 3.78218 479.389 4.01182 481.987 4.43787C484.445 4.85481 486.826 5.63492 489.053 6.75253C493.441 9.01226 497.012 12.5874 499.265 16.9767C500.366 19.1717 501.129 21.5205 501.528 23.9434C501.967 26.5798 502.212 29.2447 502.263 31.9169C502.275 33.1134 502.275 34.3986 502.275 35.6777C502.308 37.2621 502.308 38.7701 502.308 40.2905V128.714C502.308 130.249 502.308 131.747 502.275 133.257C502.275 134.631 502.275 135.889 502.259 137.185C502.209 139.809 501.968 142.427 501.536 145.016C501.141 147.471 500.371 149.851 499.252 152.072C498.138 154.237 496.689 156.212 494.958 157.926C493.231 159.674 491.233 161.133 489.041 162.246C486.82 163.37 484.442 164.153 481.987 164.569C479.374 164.996 476.732 165.226 474.084 165.258C472.845 165.287 471.548 165.304 470.289 165.304L465.705 165.312L35.7089 165.304Z" fill="black"/>
<path d="M104.736 85.7696C104.781 82.2431 105.718 78.7855 107.461 75.7183C109.203 72.6512 111.693 70.0742 114.7 68.2271C112.79 65.5013 110.27 63.2581 107.34 61.6756C104.411 60.0931 101.152 59.215 97.8236 59.1109C90.7229 58.3662 83.8392 63.3563 80.2208 63.3563C76.5324 63.3563 70.9613 59.1849 64.9622 59.3082C61.0818 59.4335 57.3001 60.5609 53.9855 62.5807C50.6708 64.6005 47.9364 67.4438 46.0485 70.8334C37.8705 84.9805 43.9705 105.772 51.8043 117.207C55.7237 122.807 60.3044 129.062 66.298 128.84C72.1632 128.597 74.3538 125.103 81.4336 125.103C88.4476 125.103 90.5028 128.84 96.6181 128.699C102.912 128.597 106.877 123.075 110.659 117.422C113.475 113.432 115.642 109.022 117.08 104.356C113.423 102.811 110.303 100.224 108.108 96.9192C105.913 93.614 104.74 89.7363 104.736 85.7696Z" fill="white"/>
<path d="M93.1851 51.5906C96.6167 47.4746 98.3072 42.1842 97.8979 36.8428C92.6552 37.393 87.8125 39.8965 84.3346 43.8546C82.6341 45.7883 81.3318 48.0378 80.5019 50.4747C79.6721 52.9115 79.3311 55.4879 79.4984 58.0565C82.1207 58.0835 84.7149 57.5156 87.0856 56.3956C89.4564 55.2756 91.5419 53.6327 93.1851 51.5906Z" fill="white"/>
<path d="M178.876 114.665H158.86L154.054 128.846H145.576L164.534 76.3799H173.342L192.3 128.846H183.678L178.876 114.665ZM160.933 108.121H176.799L168.978 85.1064H168.759L160.933 108.121Z" fill="white"/>
<path d="M233.243 109.722C233.243 121.609 226.875 129.246 217.266 129.246C214.832 129.373 212.411 128.813 210.281 127.629C208.151 126.446 206.397 124.687 205.221 122.554H205.039V141.5H197.181V90.5938H204.787V96.9561H204.932C206.162 94.8332 207.945 93.0832 210.092 91.8924C212.238 90.7016 214.668 90.1145 217.122 90.1936C226.838 90.1936 233.243 97.8679 233.243 109.722ZM225.166 109.722C225.166 101.977 221.16 96.8859 215.049 96.8859C209.045 96.8859 205.006 102.085 205.006 109.722C205.006 117.429 209.045 122.591 215.049 122.591C221.16 122.591 225.166 117.536 225.166 109.722Z" fill="white"/>
<path d="M275.38 109.722C275.38 121.609 269.012 129.246 259.403 129.246C256.969 129.373 254.548 128.813 252.418 127.629C250.287 126.446 248.534 124.687 247.357 122.554H247.176V141.5H239.317V90.5938H246.924V96.956H247.068C248.299 94.8331 250.082 93.0832 252.228 91.8924C254.375 90.7016 256.804 90.1145 259.258 90.1936C268.975 90.1936 275.38 97.8679 275.38 109.722ZM267.302 109.722C267.302 101.977 263.297 96.8859 257.185 96.8859C251.181 96.8859 247.143 102.085 247.143 109.722C247.143 117.429 251.181 122.591 257.185 122.591C263.297 122.591 267.302 117.536 267.302 109.722Z" fill="white"/>
<path d="M303.229 114.227C303.811 119.43 308.87 122.846 315.782 122.846C322.406 122.846 327.171 119.43 327.171 114.739C327.171 110.666 324.297 108.228 317.492 106.557L310.686 104.919C301.044 102.592 296.568 98.0864 296.568 90.7751C296.568 81.7227 304.463 75.5049 315.675 75.5049C326.77 75.5049 334.377 81.7227 334.633 90.7751H326.7C326.225 85.5393 321.894 82.3788 315.563 82.3788C309.233 82.3788 304.901 85.5764 304.901 90.2305C304.901 93.9398 307.668 96.1224 314.436 97.7933L320.221 99.2126C330.995 101.758 335.471 106.082 335.471 113.757C335.471 123.572 327.646 129.72 315.2 129.72C303.555 129.72 295.692 123.717 295.185 114.227L303.229 114.227Z" fill="white"/>
<path d="M352.431 81.541V90.5934H359.711V96.8113H352.431V117.899C352.431 121.175 353.888 122.702 357.089 122.702C357.953 122.687 358.816 122.626 359.674 122.52V128.701C358.235 128.969 356.772 129.091 355.309 129.064C347.558 129.064 344.535 126.155 344.535 118.737V96.8113H338.969V90.5934H344.535V81.541H352.431Z" fill="white"/>
<path d="M363.927 109.721C363.927 97.686 371.021 90.123 382.084 90.123C393.184 90.123 400.245 97.6858 400.245 109.721C400.245 121.79 393.221 129.32 382.084 129.32C370.951 129.32 363.927 121.79 363.927 109.721ZM392.238 109.721C392.238 101.465 388.451 96.5926 382.084 96.5926C375.716 96.5926 371.934 101.502 371.934 109.721C371.934 118.01 375.716 122.846 382.084 122.846C388.451 122.846 392.238 118.01 392.238 109.721Z" fill="white"/>
<path d="M406.724 90.5935H414.219V97.1042H414.4C414.907 95.0707 416.1 93.2737 417.777 92.0152C419.454 90.7566 421.513 90.1132 423.609 90.1932C424.514 90.19 425.418 90.2883 426.301 90.4861V97.8304C425.158 97.4813 423.965 97.321 422.77 97.3559C421.629 97.3096 420.491 97.5107 419.434 97.9454C418.378 98.3801 417.428 99.0381 416.65 99.8742C415.872 100.71 415.285 101.705 414.928 102.789C414.571 103.874 414.453 105.022 414.582 106.157V128.845H406.724L406.724 90.5935Z" fill="white"/>
<path d="M462.532 117.61C461.475 124.554 454.707 129.32 446.048 129.32C434.911 129.32 427.998 121.864 427.998 109.903C427.998 97.9046 434.948 90.123 445.717 90.123C456.309 90.123 462.97 97.393 462.97 108.991V111.681H435.931V112.156C435.806 113.564 435.982 114.982 436.448 116.316C436.914 117.651 437.659 118.871 438.633 119.895C439.607 120.92 440.788 121.726 442.098 122.26C443.407 122.793 444.816 123.043 446.229 122.991C448.086 123.164 449.95 122.735 451.543 121.765C453.136 120.796 454.373 119.339 455.07 117.61L462.532 117.61ZM435.968 106.194H455.108C455.178 104.928 454.986 103.661 454.543 102.473C454.101 101.285 453.417 100.201 452.535 99.2895C451.654 98.3779 450.593 97.6582 449.42 97.1757C448.246 96.6931 446.986 96.4581 445.717 96.4853C444.438 96.4777 443.169 96.7233 441.985 97.2081C440.801 97.6929 439.724 98.4072 438.818 99.3098C437.912 100.212 437.193 101.285 436.704 102.467C436.215 103.648 435.964 104.915 435.968 106.194Z" fill="white"/>
<path d="M159.949 36.889C161.596 36.7708 163.249 37.0195 164.789 37.6171C166.328 38.2146 167.716 39.1462 168.852 40.3445C169.988 41.5428 170.843 42.978 171.356 44.5466C171.87 46.1152 172.028 47.7782 171.821 49.4154C171.821 57.4693 167.464 62.0989 159.949 62.0989H150.835V36.889H159.949ZM154.754 58.5336H159.511C160.688 58.6039 161.866 58.4111 162.959 57.9691C164.053 57.5271 165.033 56.8471 165.83 55.9786C166.628 55.1101 167.221 54.0749 167.567 52.9484C167.913 51.822 168.003 50.6326 167.832 49.4668C167.991 48.3056 167.891 47.1236 167.54 46.0054C167.188 44.8872 166.594 43.8605 165.799 42.9989C165.003 42.1373 164.027 41.4621 162.94 41.0217C161.853 40.5813 160.682 40.3866 159.511 40.4515H154.754V58.5336Z" fill="white"/>
<path d="M176.248 52.5773C176.128 51.327 176.271 50.0655 176.668 48.8738C177.065 47.6821 177.706 46.5863 178.552 45.6569C179.397 44.7275 180.428 43.9849 181.577 43.4767C182.727 42.9686 183.97 42.7061 185.227 42.7061C186.484 42.7061 187.727 42.9686 188.877 43.4767C190.026 43.9849 191.057 44.7275 191.902 45.6569C192.748 46.5863 193.389 47.6821 193.786 48.8738C194.183 50.0655 194.326 51.327 194.206 52.5773C194.328 53.8288 194.187 55.092 193.791 56.2857C193.395 57.4793 192.754 58.5771 191.908 59.5083C191.063 60.4396 190.031 61.1837 188.881 61.693C187.73 62.2022 186.485 62.4653 185.227 62.4653C183.968 62.4653 182.724 62.2022 181.573 61.693C180.422 61.1837 179.391 60.4396 178.546 59.5083C177.7 58.5771 177.059 57.4793 176.663 56.2857C176.267 55.092 176.126 53.8288 176.248 52.5773ZM190.341 52.5773C190.341 48.4534 188.487 46.0417 185.233 46.0417C181.967 46.0417 180.129 48.4534 180.129 52.5773C180.129 56.7342 181.967 59.1273 185.233 59.1273C188.487 59.1272 190.341 56.7177 190.341 52.5773Z" fill="white"/>
<path d="M218.078 62.0981H214.18L210.245 48.0863H209.947L206.028 62.0981H202.167L196.919 43.0732H200.73L204.141 57.5903H204.422L208.337 43.0732H211.942L215.856 57.5903H216.154L219.548 43.0732H223.306L218.078 62.0981Z" fill="white"/>
<path d="M227.72 43.0735H231.337V46.0957H231.618C232.094 45.0102 232.898 44.1003 233.916 43.4927C234.935 42.8851 236.118 42.6102 237.3 42.7062C238.226 42.6366 239.157 42.7762 240.022 43.1146C240.887 43.453 241.665 43.9816 242.298 44.6611C242.931 45.3407 243.402 46.1539 243.678 47.0403C243.954 47.9268 244.026 48.8639 243.89 49.7823V62.0981H240.133V50.7251C240.133 47.6678 238.803 46.1473 236.024 46.1473C235.395 46.1181 234.767 46.225 234.183 46.4609C233.599 46.6968 233.074 47.056 232.642 47.5139C232.21 47.9719 231.882 48.5177 231.681 49.1139C231.48 49.7102 231.411 50.3429 231.477 50.9685V62.0983H227.72L227.72 43.0735Z" fill="white"/>
<path d="M249.879 35.6465H253.637V62.0981H249.879V35.6465Z" fill="white"/>
<path d="M258.86 52.5776C258.74 51.3273 258.883 50.0658 259.28 48.874C259.677 47.6822 260.319 46.5864 261.165 45.657C262.01 44.7275 263.041 43.9849 264.19 43.4767C265.34 42.9686 266.583 42.7061 267.84 42.7061C269.097 42.7061 270.34 42.9686 271.49 43.4767C272.64 43.9849 273.67 44.7275 274.516 45.657C275.361 46.5864 276.003 47.6822 276.4 48.874C276.797 50.0658 276.94 51.3273 276.821 52.5776C276.942 53.8292 276.801 55.0924 276.405 56.2861C276.009 57.4797 275.368 58.5774 274.522 59.5087C273.676 60.4399 272.645 61.184 271.494 61.6933C270.343 62.2025 269.099 62.4656 267.84 62.4656C266.582 62.4656 265.337 62.2025 264.186 61.6933C263.036 61.184 262.004 60.4399 261.158 59.5087C260.313 58.5774 259.671 57.4797 259.275 56.2861C258.88 55.0924 258.738 53.8292 258.86 52.5776ZM272.953 52.5776C272.953 48.4537 271.099 46.0421 267.845 46.0421C264.579 46.0421 262.742 48.4537 262.742 52.5777C262.742 56.7346 264.579 59.1276 267.845 59.1276C271.099 59.1276 272.953 56.718 272.953 52.5776Z" fill="white"/>
<path d="M280.776 56.7178C280.776 53.2933 283.328 51.319 287.858 51.0384L293.016 50.7414V49.0992C293.016 47.0899 291.686 45.9552 289.118 45.9552C287.02 45.9552 285.567 46.7247 285.149 48.0698H281.511C281.895 44.802 284.972 42.7061 289.291 42.7061C294.065 42.7061 296.757 45.0805 296.757 49.0992V62.0981H293.14V59.4245H292.842C292.239 60.3836 291.392 61.1654 290.387 61.6902C289.382 62.215 288.256 62.4639 287.123 62.4116C286.324 62.4947 285.516 62.4095 284.752 62.1614C283.987 61.9135 283.283 61.5082 282.686 60.9717C282.088 60.4353 281.609 59.7796 281.28 59.0469C280.951 58.3142 280.78 57.5208 280.776 56.7178ZM293.016 55.0922V53.5016L288.366 53.7987C285.744 53.974 284.555 54.8653 284.555 56.5425C284.555 58.2547 286.041 59.2512 288.086 59.2512C288.684 59.3117 289.289 59.2513 289.865 59.0735C290.44 58.8956 290.973 58.604 291.433 58.216C291.893 57.828 292.27 57.3515 292.542 56.8148C292.814 56.2782 292.975 55.6923 293.016 55.0922Z" fill="white"/>
<path d="M301.696 52.5775C301.696 46.566 304.789 42.7577 309.6 42.7577C310.79 42.7029 311.971 42.9877 313.005 43.5787C314.039 44.1698 314.883 45.0427 315.439 46.0954H315.72V35.6465H319.477V62.0981H315.877V59.0923H315.579C314.981 60.138 314.107 61 313.053 61.5851C311.999 62.1702 310.805 62.456 309.6 62.4116C304.756 62.4119 301.696 58.6035 301.696 52.5775ZM305.578 52.5775C305.578 56.6127 307.482 59.0409 310.666 59.0409C313.833 59.0409 315.79 56.5777 315.79 52.594C315.79 48.6289 313.812 46.1307 310.666 46.1307C307.502 46.1307 305.578 48.5753 305.578 52.5775Z" fill="white"/>
<path d="M335.025 52.5773C334.905 51.327 335.048 50.0655 335.445 48.8738C335.842 47.6821 336.484 46.5863 337.329 45.6569C338.175 44.7275 339.205 43.9849 340.355 43.4767C341.504 42.9686 342.747 42.7061 344.004 42.7061C345.261 42.7061 346.504 42.9686 347.654 43.4767C348.803 43.9849 349.834 44.7275 350.679 45.6569C351.525 46.5863 352.167 47.6821 352.563 48.8738C352.96 50.0655 353.103 51.327 352.984 52.5773C353.106 53.8288 352.964 55.092 352.568 56.2857C352.173 57.4793 351.531 58.5771 350.686 59.5083C349.84 60.4396 348.809 61.1837 347.658 61.693C346.507 62.2022 345.263 62.4653 344.004 62.4653C342.746 62.4653 341.501 62.2022 340.351 61.693C339.2 61.1837 338.169 60.4396 337.323 59.5083C336.477 58.5771 335.836 57.4793 335.44 56.2857C335.044 55.092 334.903 53.8288 335.025 52.5773ZM349.119 52.5773C349.119 48.4534 347.264 46.0417 344.01 46.0417C340.744 46.0417 338.907 48.4534 338.907 52.5773C338.907 56.7342 340.744 59.1273 344.01 59.1273C347.264 59.1272 349.119 56.7177 349.119 52.5773Z" fill="white"/>
<path d="M358.025 43.0735H361.643V46.0957H361.924C362.4 45.0102 363.203 44.1003 364.222 43.4927C365.24 42.8851 366.423 42.6102 367.606 42.7062C368.532 42.6366 369.462 42.7762 370.327 43.1146C371.193 43.453 371.97 43.9816 372.603 44.6611C373.236 45.3407 373.708 46.1539 373.984 47.0403C374.26 47.9268 374.332 48.8639 374.196 49.7823V62.0981H370.438V50.7251C370.438 47.6678 369.109 46.1473 366.33 46.1473C365.701 46.1181 365.073 46.225 364.489 46.4609C363.905 46.6968 363.379 47.056 362.947 47.5139C362.516 47.9719 362.188 48.5177 361.987 49.1139C361.786 49.7102 361.717 50.3429 361.783 50.9685V62.0983H358.025V43.0735Z" fill="white"/>
<path d="M395.429 38.3369V43.1602H399.554V46.3228H395.429V56.1054C395.429 58.0983 396.251 58.9709 398.122 58.9709C398.6 58.9694 399.079 58.9405 399.554 58.8843V62.0117C398.88 62.1324 398.196 62.1965 397.51 62.2036C393.331 62.2036 391.667 60.7347 391.667 57.0668V46.3226H388.645V43.16H391.667V38.3369H395.429Z" fill="white"/>
<path d="M404.688 35.6465H408.412V46.1306H408.71C409.209 45.035 410.035 44.1199 411.073 43.51C412.112 42.9001 413.314 42.6252 414.515 42.7226C415.437 42.6724 416.358 42.8262 417.214 43.1728C418.069 43.5194 418.837 44.0504 419.463 44.7278C420.09 45.4053 420.559 46.2125 420.837 47.0918C421.115 47.9712 421.196 48.9011 421.073 49.8151V62.0982H417.311V50.7414C417.311 47.7026 415.895 46.1636 413.24 46.1636C412.594 46.1106 411.944 46.1994 411.336 46.4235C410.728 46.6477 410.177 47.0018 409.72 47.4612C409.263 47.9207 408.913 48.4742 408.693 49.0832C408.472 49.6922 408.388 50.3419 408.445 50.9868V62.0981H404.688L404.688 35.6465Z" fill="white"/>
<path d="M442.984 56.9616C442.473 58.7004 441.367 60.2044 439.859 61.2106C438.351 62.2168 436.536 62.661 434.733 62.4656C433.479 62.4987 432.232 62.2587 431.08 61.7621C429.928 61.2655 428.897 60.5244 428.06 59.5901C427.224 58.6558 426.6 57.5507 426.234 56.3516C425.867 55.1524 425.766 53.8879 425.938 52.6459C425.771 51.4 425.873 50.1328 426.239 48.93C426.605 47.7273 427.225 46.6171 428.057 45.6746C428.89 44.7321 429.915 43.9793 431.064 43.4672C432.213 42.9551 433.459 42.6957 434.717 42.7064C440.015 42.7064 443.211 46.323 443.211 52.2971V53.6073H429.766V53.8177C429.707 54.5158 429.795 55.2186 430.023 55.8808C430.252 56.5431 430.617 57.1503 431.095 57.6634C431.572 58.1766 432.151 58.5844 432.796 58.8607C433.44 59.137 434.135 59.2757 434.836 59.2679C435.735 59.3757 436.646 59.214 437.453 58.8033C438.259 58.3926 438.925 57.7515 439.366 56.9615L442.984 56.9616ZM429.765 50.8304H439.383C439.43 50.1919 439.343 49.5505 439.128 48.9476C438.912 48.3446 438.573 47.7933 438.132 47.3292C437.69 46.865 437.157 46.4983 436.565 46.2525C435.973 46.0067 435.337 45.8873 434.696 45.902C434.046 45.8938 433.401 46.0157 432.799 46.2605C432.197 46.5053 431.65 46.8681 431.191 47.3274C430.731 47.7867 430.368 48.3333 430.124 48.9349C429.879 49.5366 429.757 50.181 429.765 50.8304Z" fill="white"/>
</g>
<defs>
<clipPath id="clip0_445_5465">
<rect width="506" height="169" fill="white"/>
</clipPath>
</defs>
</svg>
