<svg width="94" height="94" viewBox="0 0 94 94" fill="none" xmlns="http://www.w3.org/2000/svg">
<path d="M27.625 19.875V8.25C27.625 6.10992 29.3599 4.375 31.5 4.375H62.5C64.6402 4.375 66.375 6.10992 66.375 8.25V19.875H81.875C84.0152 19.875 85.75 21.6099 85.75 23.75V78C85.75 80.1402 84.0152 81.875 81.875 81.875H12.125C9.98492 81.875 8.25 80.1402 8.25 78V23.75C8.25 21.6099 9.98492 19.875 12.125 19.875H27.625ZM35.375 50.875H16V74.125H78V50.875H58.625V62.5H35.375V50.875ZM78 27.625H16V43.125H35.375V35.375H58.625V43.125H78V27.625ZM43.125 43.125V54.75H50.875V43.125H43.125ZM35.375 12.125V19.875H58.625V12.125H35.375Z" fill="black"/>
</svg>
