<svg width="93" height="93" viewBox="0 0 93 93" fill="none" xmlns="http://www.w3.org/2000/svg">
<path d="M27.125 19.375V7.75C27.125 5.60992 28.8599 3.875 31 3.875H62C64.1402 3.875 65.875 5.60992 65.875 7.75V19.375H81.375C83.5152 19.375 85.25 21.1099 85.25 23.25V77.5C85.25 79.6402 83.5152 81.375 81.375 81.375H11.625C9.48492 81.375 7.75 79.6402 7.75 77.5V23.25C7.75 21.1099 9.48492 19.375 11.625 19.375H27.125ZM34.875 50.375H15.5V73.625H77.5V50.375H58.125V62H34.875V50.375ZM77.5 27.125H15.5V42.625H34.875V34.875H58.125V42.625H77.5V27.125ZM42.625 42.625V54.25H50.375V42.625H42.625ZM34.875 11.625V19.375H58.125V11.625H34.875Z" fill="black"/>
</svg>
