<svg width="93" height="93" viewBox="0 0 93 93" fill="none" xmlns="http://www.w3.org/2000/svg">
<path d="M46.5 85.25C25.099 85.25 7.75 67.9008 7.75 46.5C7.75 25.099 25.099 7.75 46.5 7.75C67.9008 7.75 85.25 25.099 85.25 46.5C85.25 67.9008 67.9008 85.25 46.5 85.25ZM46.5 77.5C63.6209 77.5 77.5 63.6209 77.5 46.5C77.5 29.3792 63.6209 15.5 46.5 15.5C29.3792 15.5 15.5 29.3792 15.5 46.5C15.5 63.6209 29.3792 77.5 46.5 77.5ZM46.5 41.02L57.46 30.0598L62.9401 35.5398L51.98 46.5L62.9401 57.46L57.46 62.9401L46.5 51.98L35.5398 62.9401L30.0598 57.46L41.02 46.5L30.0598 35.5398L35.5398 30.0598L46.5 41.02Z" fill="black"/>
</svg>
