<svg width="109" height="112" viewBox="0 0 109 112" fill="none" xmlns="http://www.w3.org/2000/svg">
<path d="M88.4228 0H20.504C9.18631 0.0153811 0.0149691 9.43915 0 21.0684V90.8564C0.0149691 102.527 9.21916 111.985 20.5772 112H37.4688H71.5312H88.496C99.8141 111.985 108.985 102.561 109 90.9316V21.1436C108.985 9.4729 99.7808 0.0153811 88.4228 0ZM40.875 7H68.125V35H40.875V7ZM34.0625 105H20.5772C12.9784 104.992 6.8204 98.6644 6.8125 90.8564V77H34.0625V105ZM68.125 105H40.875V77H68.125V105ZM102.188 90.9316C102.18 98.6981 96.0544 104.992 88.496 105H74.9375V77H102.188V90.9316ZM102.188 70H6.8125V21.0684C6.81998 13.3019 12.9456 7.00769 20.504 7H34.0625V38.5C34.0625 38.4987 34.0625 38.5013 34.0625 38.5C34.0637 40.432 35.5885 42.0013 37.4688 42H71.5312H102.188V70ZM102.188 35H74.9375V7H88.4228C96.0216 7.00812 102.18 13.3356 102.188 21.1436V35Z" fill="white"/>
</svg>
