<svg width="113" height="113" viewBox="0 0 113 113" fill="none" xmlns="http://www.w3.org/2000/svg">
<circle cx="56.5" cy="56.5" r="56.5" fill="white"/>
<path d="M44.2496 40.0827V32.8327C44.2496 31.498 45.3316 30.416 46.6663 30.416H65.9996C67.3343 30.416 68.4163 31.498 68.4163 32.8327V40.0827H78.0829C79.4176 40.0827 80.4996 41.1647 80.4996 42.4993V76.3327C80.4996 77.6674 79.4176 78.7493 78.0829 78.7493H34.5829C33.2482 78.7493 32.1663 77.6674 32.1663 76.3327V42.4993C32.1663 41.1647 33.2482 40.0827 34.5829 40.0827H44.2496ZM49.0829 59.416H36.9996V73.916H75.6663V59.416H63.5829V66.666H49.0829V59.416ZM75.6663 44.916H36.9996V54.5827H49.0829V49.7493H63.5829V54.5827H75.6663V44.916ZM53.9163 54.5827V61.8327H58.7496V54.5827H53.9163ZM49.0829 35.2493V40.0827H63.5829V35.2493H49.0829Z" fill="black"/>
</svg>
