<svg width="113" height="113" viewBox="0 0 113 113" fill="none" xmlns="http://www.w3.org/2000/svg">
<circle cx="56.5" cy="56.5" r="56.5" fill="white"/>
<path d="M37.6667 81.166C37.6667 70.4885 46.3226 61.8327 57.0001 61.8327C67.6776 61.8327 76.3334 70.4885 76.3334 81.166H37.6667ZM59.4167 66.8666V76.3327H70.675C68.944 71.4353 64.657 67.7455 59.4167 66.8666ZM54.5834 76.3327V66.8666C49.3432 67.7455 45.0561 71.4353 43.3252 76.3327H54.5834ZM57.0001 59.416C48.9888 59.416 42.5001 52.9273 42.5001 44.916C42.5001 36.9048 48.9888 30.416 57.0001 30.416C65.0113 30.416 71.5001 36.9048 71.5001 44.916C71.5001 52.9273 65.0113 59.416 57.0001 59.416ZM57.0001 54.5827C62.3419 54.5827 66.6667 50.2579 66.6667 44.916C66.6667 39.5741 62.3419 35.2493 57.0001 35.2493C51.6582 35.2493 47.3334 39.5741 47.3334 44.916C47.3334 50.2579 51.6582 54.5827 57.0001 54.5827Z" fill="black"/>
</svg>
