<svg width="97" height="93" viewBox="0 0 97 93" fill="none" xmlns="http://www.w3.org/2000/svg">
<path d="M45.9471 6C70.539 6 90.4745 25.3077 90.4745 49.125C90.4745 50.3884 90.4184 51.639 90.3084 52.875H84.4753C82.5327 71.8249 66.0243 86.625 45.9471 86.625C24.5628 86.625 7.22754 69.8355 7.22754 49.125C7.22754 29.6799 22.5089 13.6916 42.0751 11.8102V6.16079C43.3513 6.05433 44.6426 6 45.9471 6ZM42.0751 19.3571C26.7952 21.2025 14.9714 33.8264 14.9714 49.125C14.9714 65.6936 28.8397 79.125 45.9471 79.125C61.7431 79.125 74.7776 67.6736 76.683 52.875H42.0751V19.3571ZM49.819 13.695V45.375H82.5293C80.7276 28.6949 67.0414 15.4399 49.819 13.695Z" fill="black"/>
</svg>
