<svg width="113" height="113" viewBox="0 0 113 113" fill="none" xmlns="http://www.w3.org/2000/svg">
<circle cx="56.5" cy="56.5" r="56.5" fill="white"/>
<path d="M49.75 68.0833C49.75 68.0833 66.6667 70.5 73.9167 77.75H76.3333C77.6681 77.75 78.75 76.6681 78.75 75.3333V60.6811C80.8346 60.1446 82.375 58.2521 82.375 56C82.375 53.7479 80.8346 51.8554 78.75 51.3189V36.6667C78.75 35.332 77.6681 34.25 76.3333 34.25H73.9167C66.6667 41.5 49.75 43.9167 49.75 43.9167H40.0833C37.414 43.9167 35.25 46.0806 35.25 48.75V63.25C35.25 65.9195 37.414 68.0833 40.0833 68.0833H42.5L44.9167 80.1667H49.75V68.0833ZM54.5833 47.9312C56.2346 47.5769 58.2748 47.0872 60.4783 46.439C64.534 45.2462 69.6875 43.3672 73.9167 40.4719V71.528C69.6875 68.6329 64.534 66.7539 60.4783 65.5611C58.2748 64.9129 56.2346 64.4231 54.5833 64.0688V47.9312ZM40.0833 48.75H49.75V63.25H40.0833V48.75Z" fill="black"/>
</svg>
