<svg width="113" height="113" viewBox="0 0 113 113" fill="none" xmlns="http://www.w3.org/2000/svg">
<circle cx="56.5" cy="56.5" r="56.5" fill="white"/>
<path d="M39.7875 38.2568H74.2354C75.0085 38.2568 75.7349 38.6268 76.1897 39.2521L85.4282 51.955C85.7672 52.4212 85.7298 53.0618 85.339 53.4853L57.8992 83.2116C57.4466 83.7019 56.6822 83.7326 56.1918 83.28C56.1761 83.2652 47.0067 73.3337 28.6839 53.4853C28.2929 53.0618 28.2555 52.4212 28.5945 51.955L37.833 39.2521C38.2878 38.6268 39.0143 38.2568 39.7875 38.2568ZM41.0181 43.0902L34.2528 52.3925L57.0113 77.0476L79.77 52.3925L73.0046 43.0902H41.0181Z" fill="black"/>
</svg>
