<svg width="92" height="111" viewBox="0 0 92 111" fill="none" xmlns="http://www.w3.org/2000/svg">
<path d="M45.9999 96.5507L71.2984 71.264C85.2706 57.299 85.2706 34.6566 71.2984 20.6913C57.3267 6.72593 34.6733 6.72593 20.7013 20.6913C6.72918 34.6566 6.72918 57.299 20.7013 71.264L45.9999 96.5507ZM45.9999 111L13.4731 78.4891C-4.49102 60.5333 -4.49102 31.422 13.4731 13.4666C31.4372 -4.48886 60.5625 -4.48886 78.527 13.4666C96.491 31.422 96.491 60.5333 78.527 78.4891L45.9999 111ZM45.9999 56.195C51.6457 56.195 56.2221 51.6208 56.2221 45.9778C56.2221 40.3349 51.6457 35.7605 45.9999 35.7605C40.3542 35.7605 35.7777 40.3349 35.7777 45.9778C35.7777 51.6208 40.3542 56.195 45.9999 56.195ZM45.9999 66.4123C34.7088 66.4123 25.5555 57.2632 25.5555 45.9778C25.5555 34.6921 34.7088 25.5432 45.9999 25.5432C57.2909 25.5432 66.4444 34.6921 66.4444 45.9778C66.4444 57.2632 57.2909 66.4123 45.9999 66.4123Z" fill="black"/>
</svg>
