<svg width="113" height="113" viewBox="0 0 113 113" fill="none" xmlns="http://www.w3.org/2000/svg">
<circle cx="56.5" cy="56.5" r="56.5" fill="white"/>
<path d="M37.6665 80.167C37.6665 69.4894 46.3223 60.8337 56.9998 60.8337C67.6774 60.8337 76.3332 69.4894 76.3332 80.167H71.4998C71.4998 72.1589 65.0079 65.667 56.9998 65.667C48.9917 65.667 42.4998 72.1589 42.4998 80.167H37.6665ZM56.9998 58.417C48.9886 58.417 42.4998 51.9282 42.4998 43.917C42.4998 35.9057 48.9886 29.417 56.9998 29.417C65.0111 29.417 71.4998 35.9057 71.4998 43.917C71.4998 51.9282 65.0111 58.417 56.9998 58.417ZM56.9998 53.5837C62.3407 53.5837 66.6665 49.2578 66.6665 43.917C66.6665 38.5762 62.3407 34.2503 56.9998 34.2503C51.659 34.2503 47.3332 38.5762 47.3332 43.917C47.3332 49.2578 51.659 53.5837 56.9998 53.5837Z" fill="black"/>
</svg>
