<svg width="147" height="147" viewBox="0 0 147 147" fill="none" xmlns="http://www.w3.org/2000/svg">
<path d="M23.1713 17.3091L73.5 6.125L123.829 17.3091C126.631 17.9319 128.625 20.4175 128.625 23.2883V84.457C128.625 96.7444 122.484 108.219 112.26 115.035L73.5 140.875L34.7398 115.035C24.516 108.219 18.375 96.7444 18.375 84.457V23.2883C18.375 20.4175 20.3689 17.9319 23.1713 17.3091ZM30.625 28.2016V84.457C30.625 92.6486 34.719 100.298 41.5348 104.842L73.5 126.152L105.465 104.842C112.281 100.298 116.375 92.6486 116.375 84.457V28.2016L73.5 18.6738L30.625 28.2016Z" fill="black"/>
</svg>
