<svg width="85" height="85" viewBox="0 0 85 85" fill="none" xmlns="http://www.w3.org/2000/svg">
<path d="M30.0596 36.2766C34.4817 44.0527 40.9473 50.5183 48.7234 54.9402L52.9002 49.0927C54.289 47.149 56.9103 46.5484 59.007 47.6935C65.6502 51.3225 72.9919 53.5278 80.6504 54.1341C83.1064 54.3287 85 56.3781 85 58.8417V79.9161C85 82.3371 83.1687 84.3658 80.7604 84.6133C78.2581 84.8706 75.7336 85 73.1944 85C32.7703 85 0 52.2297 0 11.8056C0 9.26628 0.129484 6.74196 0.386703 4.23942C0.634195 1.83104 2.66305 0 5.08418 0H26.1584C28.6219 0 30.6714 1.8938 30.8659 4.34959C31.4721 12.008 33.6775 19.35 37.3065 25.9932C38.4516 28.0897 37.851 30.7112 35.9073 32.0996L30.0596 36.2766ZM18.1534 33.1746L27.1254 26.766C24.5814 21.2743 22.838 15.4503 21.9454 9.44444H9.48728C9.45875 10.2298 9.44444 11.0169 9.44444 11.8056C9.44444 47.0135 37.9865 75.5556 73.1944 75.5556C73.9831 75.5556 74.7702 75.5414 75.5556 75.5126V63.0544C69.5498 62.1619 63.7259 60.4185 58.234 57.8746L51.8254 66.8468C49.2329 65.8396 46.7292 64.6543 44.3294 63.3066L44.055 63.1503C34.8014 57.8883 27.1119 50.1986 21.8497 40.945L21.6936 40.6706C20.3456 38.2708 19.1606 35.7671 18.1534 33.1746Z" fill="black"/>
</svg>
