<svg width="93" height="93" viewBox="0 0 93 93" fill="none" xmlns="http://www.w3.org/2000/svg">
<path d="M83 85H11C8.79088 85 7 83.0848 7 80.7222V48.5824C7 47.3461 7.50004 46.1702 8.37128 45.3578L23 31.7175V12.2778C23 9.91525 24.7909 8 27 8H83C85.2092 8 87 9.91525 87 12.2778V80.7222C87 83.0848 85.2092 85 83 85ZM35 76.4444H47V50.528L31 35.6089L15 50.528V76.4444H27V59.3333H35V76.4444ZM55 76.4444H79V16.5556H31V25.6556C31.9378 25.6556 32.8755 26.0068 33.6287 26.7091L53.6288 45.3578C54.5 46.1702 55 47.3461 55 48.5824V76.4444ZM63 42.2222H71V50.7778H63V42.2222ZM63 59.3333H71V67.8889H63V59.3333ZM63 25.1111H71V33.6667H63V25.1111ZM47 25.1111H55V33.6667H47V25.1111Z" fill="black"/>
</svg>
