<svg width="93" height="93" viewBox="0 0 93 93" fill="none" xmlns="http://www.w3.org/2000/svg">
<path d="M13 90C13 71.4852 27.9985 56.4762 46.5 56.4762C65.0016 56.4762 80 71.4852 80 90H71.625C71.625 76.114 60.3761 64.8571 46.5 64.8571C32.6238 64.8571 21.375 76.114 21.375 90H13ZM46.5 52.2857C32.6184 52.2857 21.375 41.0343 21.375 27.1429C21.375 13.2514 32.6184 2 46.5 2C60.3816 2 71.625 13.2514 71.625 27.1429C71.625 41.0343 60.3816 52.2857 46.5 52.2857ZM46.5 43.9048C55.7544 43.9048 63.25 36.4038 63.25 27.1429C63.25 17.8819 55.7544 10.381 46.5 10.381C37.2456 10.381 29.75 17.8819 29.75 27.1429C29.75 36.4038 37.2456 43.9048 46.5 43.9048Z" fill="black"/>
</svg>
