<svg width="82" height="84" viewBox="0 0 82 84" fill="none" xmlns="http://www.w3.org/2000/svg">
<path d="M64.7121 60.4425L82 78.1521L76.2913 84L59.0034 66.2904C52.7873 71.3849 44.9041 74.4325 36.3302 74.4325C16.2759 74.4325 0 57.7596 0 37.2163C0 16.6729 16.2759 0 36.3302 0C56.3844 0 72.6603 16.6729 72.6603 37.2163C72.6603 45.9993 69.6853 54.0748 64.7121 60.4425ZM56.6133 57.3742C61.5493 52.1631 64.587 45.0548 64.587 37.2163C64.587 21.2236 51.942 8.27028 36.3302 8.27028C20.7183 8.27028 8.07337 21.2236 8.07337 37.2163C8.07337 53.2089 20.7183 66.1622 36.3302 66.1622C43.9821 66.1622 50.9212 63.0506 56.0082 57.9941L56.6133 57.3742Z" fill="black"/>
</svg>
