<svg width="146" height="146" viewBox="0 0 146 146" fill="none" xmlns="http://www.w3.org/2000/svg">
<path d="M30.4165 18.25C27.5652 18.25 25.0966 20.2303 24.478 23.0137L12.3113 77.7639C12.2151 78.197 12.1665 78.6393 12.1665 79.0833V121.667C12.1665 125.026 14.8901 127.75 18.2498 127.75H127.75C131.11 127.75 133.833 125.026 133.833 121.667V79.0833C133.833 78.6393 133.785 78.197 133.688 77.7639L121.522 23.0137C120.903 20.2303 118.434 18.25 115.583 18.25H30.4165ZM120.166 73H91.2498C91.2498 83.0795 83.0793 91.25 72.9998 91.25C62.9204 91.25 54.7498 83.0795 54.7498 73H25.8334L35.2964 30.4167H110.703L120.166 73Z" fill="black"/>
</svg>
