<svg width="147" height="147" viewBox="0 0 147 147" fill="none" xmlns="http://www.w3.org/2000/svg">
<g clip-path="url(#clip0_181_1965)">
<path d="M61.25 18.375H85.75C112.812 18.375 134.75 40.313 134.75 67.375C134.75 94.4371 112.812 116.375 85.75 116.375V137.812C55.125 125.562 12.25 107.188 12.25 67.375C12.25 40.313 34.188 18.375 61.25 18.375ZM73.5 104.125H85.75C106.046 104.125 122.5 87.6714 122.5 67.375C122.5 47.0785 106.046 30.625 85.75 30.625H61.25C40.9535 30.625 24.5 47.0785 24.5 67.375C24.5 89.4863 39.5802 103.914 73.5 119.314V104.125Z" fill="black"/>
</g>
<defs>
<clipPath id="clip0_181_1965">
<rect width="147" height="147" fill="white"/>
</clipPath>
</defs>
</svg>
