<svg width="147" height="147" viewBox="0 0 147 147" fill="none" xmlns="http://www.w3.org/2000/svg">
<g clip-path="url(#clip0_181_1973)">
<path d="M128.625 128.625H18.375C14.9923 128.625 12.25 125.883 12.25 122.5V76.4817C12.25 74.7115 13.0157 73.0278 14.3498 71.8646L36.75 52.3341V24.5C36.75 21.1173 39.4923 18.375 42.875 18.375H128.625C132.008 18.375 134.75 21.1173 134.75 24.5V122.5C134.75 125.883 132.008 128.625 128.625 128.625ZM55.125 116.375H73.5V79.2673L49 57.9059L24.5 79.2673V116.375H42.875V91.875H55.125V116.375ZM85.75 116.375H122.5V30.625H49V43.6546C50.4359 43.6546 51.8719 44.1575 53.0252 45.163L83.6504 71.8646C84.9844 73.0278 85.75 74.7115 85.75 76.4817V116.375ZM98 67.375H110.25V79.625H98V67.375ZM98 91.875H110.25V104.125H98V91.875ZM98 42.875H110.25V55.125H98V42.875ZM73.5 42.875H85.75V55.125H73.5V42.875Z" fill="black"/>
</g>
<defs>
<clipPath id="clip0_181_1973">
<rect width="147" height="147" fill="white"/>
</clipPath>
</defs>
</svg>
