<svg width="113" height="113" viewBox="0 0 113 113" fill="none" xmlns="http://www.w3.org/2000/svg">
<circle cx="56.5" cy="56.5" r="56.5" fill="white"/>
<path d="M44.2498 40.0827V32.8327C44.2498 31.498 45.3318 30.416 46.6665 30.416H65.9998C67.3346 30.416 68.4165 31.498 68.4165 32.8327V40.0827H78.0832C79.4179 40.0827 80.4998 41.1647 80.4998 42.4993V76.3327C80.4998 77.6674 79.4179 78.7493 78.0832 78.7493H34.5832C33.2485 78.7493 32.1665 77.6674 32.1665 76.3327V42.4993C32.1665 41.1647 33.2485 40.0827 34.5832 40.0827H44.2498ZM49.0832 59.416H36.9998V73.916H75.6665V59.416H63.5832V66.666H49.0832V59.416ZM75.6665 44.916H36.9998V54.5827H49.0832V49.7493H63.5832V54.5827H75.6665V44.916ZM53.9165 54.5827V61.8327H58.7498V54.5827H53.9165ZM49.0832 35.2493V40.0827H63.5832V35.2493H49.0832Z" fill="black"/>
</svg>
