<svg width="496" height="98" viewBox="0 0 496 98" fill="none" xmlns="http://www.w3.org/2000/svg">
<path d="M39.71 97.28C34.59 97.28 29.726 96.64 25.118 95.36C20.51 93.9947 16.3713 92.032 12.702 89.472C9.118 86.912 6.25933 83.7547 4.126 80C2.078 76.2453 1.01133 71.8933 0.926 66.944C0.926 66.176 1.182 65.536 1.694 65.024C2.206 64.4267 2.846 64.128 3.614 64.128H25.374C26.7393 64.128 27.7207 64.4267 28.318 65.024C29.0007 65.6213 29.598 66.6027 30.11 67.968C30.7073 69.6747 31.4327 71.1253 32.286 72.32C33.2247 73.4293 34.3767 74.24 35.742 74.752C37.1073 75.264 38.686 75.52 40.478 75.52C43.806 75.52 46.366 74.4533 48.158 72.32C50.0353 70.1867 50.974 66.816 50.974 62.208V28.928H11.166C10.2273 28.928 9.41667 28.6293 8.734 28.032C8.13667 27.3493 7.838 26.5387 7.838 25.6V9.728C7.838 8.78933 8.13667 8.02133 8.734 7.424C9.41667 6.74133 10.2273 6.39999 11.166 6.39999H76.062C77.0007 6.39999 77.7687 6.74133 78.366 7.424C79.0487 8.02133 79.39 8.78933 79.39 9.728V63.104C79.39 70.6987 77.6407 77.056 74.142 82.176C70.7287 87.2107 65.9927 91.008 59.934 93.568C53.9607 96.0427 47.2193 97.28 39.71 97.28ZM126.564 97.28C119.055 97.28 112.697 96.1707 107.492 93.952C102.372 91.7333 98.4467 88.4907 95.716 84.224C92.9853 79.872 91.4493 74.6667 91.108 68.608C91.0227 66.816 90.98 64.8533 90.98 62.72C90.98 60.5867 91.0227 58.624 91.108 56.832C91.4493 50.688 93.0707 45.4827 95.972 41.216C98.8733 36.9493 102.884 33.7067 108.004 31.488C113.209 29.2693 119.396 28.16 126.564 28.16C133.732 28.16 139.876 29.2693 144.996 31.488C150.201 33.7067 154.255 36.9493 157.156 41.216C160.057 45.4827 161.679 50.688 162.02 56.832C162.191 58.624 162.276 60.5867 162.276 62.72C162.276 64.8533 162.191 66.816 162.02 68.608C161.679 74.6667 160.143 79.872 157.412 84.224C154.681 88.4907 150.713 91.7333 145.508 93.952C140.388 96.1707 134.073 97.28 126.564 97.28ZM126.564 79.232C129.721 79.232 131.897 78.2933 133.092 76.416C134.287 74.5387 134.969 71.7227 135.14 67.968C135.225 66.688 135.268 64.9387 135.268 62.72C135.268 60.5013 135.225 58.752 135.14 57.472C134.969 53.8027 134.287 51.0293 133.092 49.152C131.897 47.1893 129.721 46.208 126.564 46.208C123.492 46.208 121.359 47.1893 120.164 49.152C118.969 51.0293 118.244 53.8027 117.988 57.472C117.903 58.752 117.86 60.5013 117.86 62.72C117.86 64.9387 117.903 66.688 117.988 67.968C118.244 71.7227 118.969 74.5387 120.164 76.416C121.359 78.2933 123.492 79.232 126.564 79.232ZM217.441 97.28C212.833 97.28 208.95 96.5547 205.793 95.104C202.721 93.568 200.118 91.5627 197.985 89.088V92.672C197.985 93.6107 197.644 94.4213 196.961 95.104C196.364 95.7013 195.596 96 194.657 96H176.609C175.67 96 174.86 95.7013 174.177 95.104C173.58 94.4213 173.281 93.6107 173.281 92.672V8.448C173.281 7.50933 173.58 6.74133 174.177 6.144C174.86 5.46133 175.67 5.12 176.609 5.12H196.321C197.174 5.12 197.942 5.46133 198.625 6.144C199.308 6.74133 199.649 7.50933 199.649 8.448V34.944C201.697 32.896 204.172 31.2747 207.073 30.08C210.06 28.8 213.516 28.16 217.441 28.16C221.452 28.16 225.078 28.8427 228.321 30.208C231.564 31.488 234.38 33.3653 236.769 35.84C239.158 38.3147 241.036 41.4293 242.401 45.184C243.766 48.8533 244.534 53.0773 244.705 57.856C244.79 59.648 244.833 61.2267 244.833 62.592C244.833 63.9573 244.79 65.5787 244.705 67.456C244.449 72.4907 243.638 76.8853 242.273 80.64C240.908 84.3947 239.03 87.5093 236.641 89.984C234.252 92.4587 231.436 94.2933 228.193 95.488C225.036 96.6827 221.452 97.28 217.441 97.28ZM208.737 77.312C210.956 77.312 212.662 76.8853 213.857 76.032C215.137 75.0933 216.033 73.856 216.545 72.32C217.142 70.6987 217.526 68.864 217.697 66.816C217.953 64.0853 217.953 61.3547 217.697 58.624C217.526 56.576 217.142 54.784 216.545 53.248C216.033 51.6267 215.137 50.3893 213.857 49.536C212.662 48.5973 210.956 48.128 208.737 48.128C206.604 48.128 204.897 48.5547 203.617 49.408C202.337 50.2613 201.356 51.3707 200.673 52.736C200.076 54.1013 199.734 55.68 199.649 57.472C199.564 59.264 199.521 60.8427 199.521 62.208C199.521 63.5733 199.564 65.1947 199.649 67.072C199.734 68.9493 200.033 70.656 200.545 72.192C201.142 73.728 202.081 74.9653 203.361 75.904C204.726 76.8427 206.518 77.312 208.737 77.312ZM292.767 97.28C283.807 97.28 276.34 96.0427 270.367 93.568C264.479 91.008 260.042 87.7227 257.055 83.712C254.154 79.616 252.618 75.3067 252.447 70.784C252.447 70.016 252.703 69.376 253.215 68.864C253.727 68.352 254.367 68.096 255.135 68.096H275.487C276.682 68.096 277.62 68.3093 278.303 68.736C278.986 69.0773 279.711 69.5893 280.479 70.272C281.247 71.2107 282.143 72.1067 283.167 72.96C284.191 73.728 285.514 74.368 287.135 74.88C288.756 75.3067 290.634 75.52 292.767 75.52C296.692 75.52 299.722 75.008 301.855 73.984C303.988 72.8747 305.055 71.3813 305.055 69.504C305.055 68.0533 304.458 66.8587 303.263 65.92C302.154 64.9813 300.234 64.128 297.503 63.36C294.772 62.592 291.06 61.7813 286.367 60.928C279.796 59.8187 274.122 58.1973 269.343 56.064C264.564 53.8453 260.895 50.9013 258.335 47.232C255.86 43.4773 254.623 38.8693 254.623 33.408C254.623 27.8613 256.159 22.9547 259.231 18.688C262.388 14.4213 266.74 11.0933 272.287 8.70399C277.919 6.31466 284.447 5.12 291.871 5.12C298.015 5.12 303.434 5.93066 308.127 7.55199C312.906 9.17333 316.916 11.3067 320.159 13.952C323.402 16.512 325.876 19.2853 327.583 22.272C329.29 25.2587 330.186 28.1173 330.271 30.848C330.271 31.616 329.972 32.2987 329.375 32.896C328.863 33.408 328.266 33.664 327.583 33.664H306.207C305.183 33.664 304.287 33.4933 303.519 33.152C302.836 32.8107 302.196 32.256 301.599 31.488C301.172 30.2933 300.106 29.2267 298.399 28.288C296.692 27.3493 294.516 26.88 291.871 26.88C288.97 26.88 286.751 27.392 285.215 28.416C283.679 29.3547 282.911 30.7627 282.911 32.64C282.911 33.92 283.38 35.0293 284.319 35.968C285.258 36.9067 286.922 37.76 289.311 38.528C291.7 39.2107 295.028 39.9787 299.295 40.832C307.402 42.0267 313.93 43.7333 318.879 45.952C323.914 48.1707 327.583 51.072 329.887 54.656C332.191 58.24 333.343 62.72 333.343 68.096C333.343 74.1547 331.594 79.36 328.095 83.712C324.596 88.064 319.775 91.4347 313.631 93.824C307.572 96.128 300.618 97.28 292.767 97.28ZM346.359 96C345.42 96 344.61 95.7013 343.927 95.104C343.33 94.4213 343.031 93.6107 343.031 92.672V32.768C343.031 31.8293 343.33 31.0613 343.927 30.464C344.61 29.7813 345.42 29.44 346.359 29.44H365.303C366.242 29.44 367.052 29.7813 367.735 30.464C368.418 31.0613 368.759 31.8293 368.759 32.768V92.672C368.759 93.6107 368.418 94.4213 367.735 95.104C367.052 95.7013 366.242 96 365.303 96H346.359ZM346.615 21.12C345.676 21.12 344.866 20.8213 344.183 20.224C343.586 19.5413 343.287 18.7307 343.287 17.792V4.352C343.287 3.41333 343.586 2.60266 344.183 1.92C344.866 1.23733 345.676 0.895996 346.615 0.895996H365.047C365.986 0.895996 366.796 1.23733 367.479 1.92C368.162 2.60266 368.503 3.41333 368.503 4.352V17.792C368.503 18.7307 368.162 19.5413 367.479 20.224C366.796 20.8213 365.986 21.12 365.047 21.12H346.615ZM393.298 96C392.359 96 391.549 95.7013 390.866 95.104C390.269 94.4213 389.97 93.6107 389.97 92.672V49.024H380.626C379.687 49.024 378.877 48.7253 378.194 48.128C377.597 47.4453 377.298 46.6347 377.298 45.696V32.768C377.298 31.8293 377.597 31.0613 378.194 30.464C378.877 29.7813 379.687 29.44 380.626 29.44H389.97V26.368C389.97 19.8827 391.25 14.848 393.81 11.264C396.455 7.59466 400.082 5.03466 404.69 3.58399C409.298 2.048 414.589 1.28 420.562 1.28H431.442C432.381 1.28 433.191 1.62133 433.874 2.30399C434.557 2.90133 434.898 3.66933 434.898 4.60799V17.536C434.898 18.4747 434.557 19.2853 433.874 19.968C433.191 20.5653 432.381 20.864 431.442 20.864H421.842C419.453 20.864 417.746 21.4187 416.722 22.528C415.698 23.552 415.186 25.0453 415.186 27.008V29.44H430.162C431.101 29.44 431.911 29.7813 432.594 30.464C433.277 31.0613 433.618 31.8293 433.618 32.768V45.696C433.618 46.6347 433.277 47.4453 432.594 48.128C431.911 48.7253 431.101 49.024 430.162 49.024H415.186V92.672C415.186 93.6107 414.845 94.4213 414.162 95.104C413.565 95.7013 412.797 96 411.858 96H393.298ZM479.288 96C473.485 96 468.365 95.1467 463.928 93.44C459.576 91.7333 456.163 88.96 453.688 85.12C451.299 81.1947 450.104 76.032 450.104 69.632V49.024H439.992C439.053 49.024 438.243 48.7253 437.56 48.128C436.963 47.4453 436.664 46.6347 436.664 45.696V32.768C436.664 31.8293 436.963 31.0613 437.56 30.464C438.243 29.7813 439.053 29.44 439.992 29.44H450.104V8.448C450.104 7.50933 450.403 6.74133 451 6.144C451.683 5.46133 452.493 5.12 453.432 5.12H471.992C472.931 5.12 473.699 5.46133 474.296 6.144C474.979 6.74133 475.32 7.50933 475.32 8.448V29.44H491.448C492.387 29.44 493.155 29.7813 493.752 30.464C494.435 31.0613 494.776 31.8293 494.776 32.768V45.696C494.776 46.6347 494.435 47.4453 493.752 48.128C493.155 48.7253 492.387 49.024 491.448 49.024H475.32V67.456C475.32 69.9307 475.832 71.8933 476.856 73.344C477.88 74.7093 479.501 75.392 481.72 75.392H492.472C493.411 75.392 494.179 75.7333 494.776 76.416C495.459 77.0133 495.8 77.7813 495.8 78.72V92.672C495.8 93.6107 495.459 94.4213 494.776 95.104C494.179 95.7013 493.411 96 492.472 96H479.288Z" fill="black"/>
</svg>
