<svg width="692" height="642" viewBox="0 0 692 642" fill="none" xmlns="http://www.w3.org/2000/svg">
<path d="M683.334 228.352H315.75C311.688 228.352 308.395 231.525 308.395 235.44V235.449C308.395 239.364 311.688 242.537 315.75 242.537H683.334C687.396 242.537 690.69 239.364 690.69 235.449V235.44C690.69 231.525 687.396 228.352 683.334 228.352Z" fill="#3D6982"/>
<path d="M683.326 228.389H549.873C551.824 228.389 553.695 229.135 555.074 230.465C556.454 231.794 557.229 233.597 557.229 235.477C557.229 237.357 556.454 239.16 555.074 240.489C553.695 241.818 551.824 242.565 549.873 242.565H683.326C685.277 242.565 687.148 241.818 688.527 240.489C689.907 239.16 690.682 237.357 690.682 235.477C690.682 233.597 689.907 231.794 688.527 230.465C687.148 229.135 685.277 228.389 683.326 228.389Z" fill="#2B4257"/>
<path d="M690.69 235.441C690.69 236.373 690.499 237.295 690.129 238.156C689.759 239.017 689.216 239.798 688.532 240.457C687.848 241.115 687.036 241.637 686.142 241.993C685.249 242.348 684.291 242.531 683.325 242.53H315.76C314.793 242.531 313.835 242.348 312.942 241.993C312.048 241.637 311.236 241.115 310.552 240.457C309.868 239.798 309.326 239.017 308.955 238.156C308.585 237.295 308.395 236.373 308.395 235.441" stroke="#2B4257" stroke-miterlimit="10" stroke-linecap="round"/>
<path d="M285.517 327.98L121.3 109.709C121.3 109.709 95.8045 48.6902 55.2011 90.3098C14.5977 131.929 -68.6298 373.976 117.523 398.544C307.707 423.594 328.311 349.818 285.517 327.98Z" fill="#5BC0C3"/>
<path d="M285.561 363.889C298.823 339.762 270.807 300.416 222.985 276.006C175.164 251.596 125.645 251.367 112.383 275.494C99.1204 299.621 127.136 338.968 174.958 363.377C222.78 387.787 272.298 388.016 285.561 363.889Z" fill="#2B4257"/>
<path d="M55.2011 90.3086C14.5977 131.937 -68.6298 373.975 117.523 398.543C307.707 423.62 328.311 349.844 285.517 328.006" stroke="#2B4257" stroke-miterlimit="10" stroke-linecap="round"/>
<path d="M307.706 144.068C307.706 144.068 332.389 114.041 354.985 124.35C377.582 134.66 380.547 144.369 376.392 144.068C372.237 143.768 359.329 139.519 359.329 139.519C359.329 139.519 347.998 155.333 332.578 157.717" fill="#FBC2A5"/>
<path d="M376.392 144.067C372.237 143.767 359.329 139.518 359.329 139.518C359.329 139.518 347.997 155.332 332.578 157.716" stroke="#2B4257" stroke-miterlimit="10" stroke-linecap="round"/>
<path d="M345.808 191.192C345.808 191.192 377.592 176.551 391.756 185.332C405.92 194.113 405.92 211.975 400.887 209.718C398.038 208.554 395.701 206.468 394.277 203.822C394.277 203.822 378.8 227.207 351.917 217.025" fill="#FBC2A5"/>
<path d="M400.876 209.719C398.028 208.554 395.69 206.469 394.266 203.822C394.266 203.822 378.789 227.207 351.906 217.025" stroke="#2B4257" stroke-miterlimit="10" stroke-linecap="round"/>
<path d="M236.508 502.192L209.775 454.048C252.145 432.21 282.71 411.691 300.633 393.084C311.076 382.246 316.836 372.21 316.43 365.54C315.816 355.531 298.697 346.814 295.571 345.631L316.251 294.812C325.557 298.534 334.283 303.479 342.18 309.508C361.066 323.903 371.755 342.174 372.982 362.328C374.361 384.749 363.974 407.606 342.133 430.254C319.631 453.611 285.081 477.133 236.508 502.192Z" fill="#F4AB9D"/>
<path d="M209.775 454.048C252.145 432.21 282.71 411.692 300.633 393.084" stroke="#2B4257" stroke-miterlimit="10" stroke-linecap="round"/>
<path d="M262.165 212.92C259.794 212.919 257.423 212.801 255.064 212.565C198.975 206.924 167.446 134.831 164.028 126.633L207.861 109.708L185.944 118.17L207.842 109.672C215.396 127.543 237.983 165.177 260.003 167.315C277.264 169.053 295.885 146.205 305.394 132.456L344.637 157.734C319.218 194.394 291.504 212.92 262.165 212.92Z" fill="#BC5B5B"/>
<path d="M207.86 109.719H207.728L192.516 115.624C184.641 122.594 178.626 135.133 176.104 150.328C187.058 168.845 205.188 193.094 229.984 205.26C235.423 195.105 238.766 181.402 238.766 166.306C238.767 162.586 238.559 158.868 238.143 155.169C224.47 142.057 212.855 121.575 207.86 109.719Z" fill="#2B4257"/>
<path d="M344.636 157.734C319.217 194.395 291.502 212.921 262.164 212.921" stroke="#2B4257" stroke-miterlimit="10" stroke-linecap="round"/>
<path d="M370.178 591.447L318.734 568.571C341.208 521.62 345.249 481.265 330.698 448.59C309.811 401.593 256.101 383.44 255.525 383.258H255.648L273.438 331.393C276.601 332.403 351.179 356.87 382.482 426.342C403.964 474.068 399.809 529.572 370.178 591.447Z" fill="#FBC2A5"/>
<path d="M273.477 331.492C276.64 332.502 351.218 356.97 382.52 426.442C403.965 474.067 399.81 529.572 370.179 591.446" stroke="#FFF1D7" stroke-miterlimit="10" stroke-linecap="round"/>
<path d="M318.734 568.553C341.208 521.62 345.249 481.265 330.698 448.59C309.811 401.593 256.101 383.44 255.525 383.258" stroke="#2B4257" stroke-miterlimit="10" stroke-linecap="round"/>
<path d="M125.841 235.441H223.204V246.961C223.209 253.124 221.954 259.227 219.51 264.922C217.066 270.617 213.481 275.793 208.961 280.152C204.44 284.512 199.072 287.97 193.164 290.33C187.256 292.689 180.923 293.904 174.528 293.904C161.618 293.904 149.237 288.962 140.108 280.165C130.979 271.368 125.851 259.438 125.851 246.997V235.441H125.841Z" fill="#E57873"/>
<path d="M174.528 95.6133C187.438 95.6133 199.819 100.555 208.947 109.352C218.076 118.148 223.204 130.079 223.204 142.519V235.44H125.841V142.519C125.841 136.359 127.101 130.259 129.548 124.567C131.994 118.876 135.581 113.704 140.102 109.349C144.623 104.993 149.99 101.538 155.897 99.1812C161.804 96.8245 168.134 95.6121 174.528 95.6133Z" fill="#E57873"/>
<path d="M223.204 172.119H215.027H212.638H199.607H197.218H184.187H181.798H168.768H166.379H153.348H150.959H137.928H135.539H125.841V177.633L129.023 180.7L136.729 173.266L144.443 180.7L152.149 173.266L159.863 180.7L167.568 173.266L175.283 180.7L182.988 173.266L190.703 180.7L198.408 173.266L206.123 180.7L213.828 173.266L221.543 180.7L223.204 179.089V172.119Z" fill="#BC5B5B"/>
<path d="M223.204 190.281H215.027H212.638H199.607H197.218H184.187H181.798H168.768H166.379H153.348H150.959H137.928H135.539H125.841V195.804L129.023 198.862L136.729 191.428L144.443 198.862L152.149 191.428L159.863 198.862L167.568 191.428L175.283 198.862L182.988 191.428L190.703 198.862L198.408 191.428L206.123 198.862L213.828 191.428L221.543 198.862L223.204 197.251V190.281Z" fill="#BC5B5B"/>
<path d="M223.204 208.443H215.027H212.638H199.607H197.218H184.187H181.798H168.768H166.379H153.348H150.959H137.928H135.539H125.841V213.967L129.023 217.024L136.729 209.599L144.443 217.024L152.149 209.599L159.863 217.024L167.568 209.599L175.283 217.024L182.988 209.599L190.703 217.024L198.408 209.599L206.123 217.024L213.828 209.599L221.543 217.024L223.204 215.422V208.443Z" fill="#BC5B5B"/>
<path d="M195.292 194.568C195.292 194.568 196.821 225.151 220.39 235.442H223.223V199.664L195.292 194.568Z" fill="#2B4257"/>
<path d="M223.204 235.44V142.519C223.204 130.079 218.076 118.148 208.947 109.352C199.818 100.555 187.437 95.6133 174.527 95.6133" stroke="#FFF1D7" stroke-miterlimit="10" stroke-linecap="round"/>
<path d="M161.742 99.1264L191.75 99.4903V69.7452L161.742 66.5059V99.1264Z" fill="#FBC2A5"/>
<path d="M161.75 66.5059V99.1264" stroke="#2B4257" stroke-miterlimit="10" stroke-linecap="round"/>
<path d="M191.751 85.3411C183.101 83.9126 176.784 79.1628 176.784 73.5486C176.798 72.1533 177.182 70.7846 177.898 69.5723L191.789 69.7452L191.751 85.3411Z" fill="#2B4257"/>
<path d="M215.602 14.459L210.125 56.0422H221.938L215.602 14.459Z" fill="#F39B92"/>
<path d="M210.125 56.0508H221.938" stroke="#2B4257" stroke-miterlimit="10" stroke-linecap="round"/>
<path d="M191.751 99.4913V69.7461" stroke="#FFF1D7" stroke-miterlimit="10" stroke-linecap="round"/>
<path d="M162.421 87.7891C162.421 87.7891 192.231 87.9801 202.127 103.895C212.023 119.809 148.729 108.28 148.729 108.28" fill="#E57873"/>
<path d="M170.258 14.459H215.583V61.5654C215.583 66.5487 213.529 71.328 209.872 74.8518C206.215 78.3755 201.256 80.3552 196.084 80.3552H193.402C185.057 80.3552 177.053 77.163 171.148 71.48C165.243 65.7969 161.921 58.0877 161.911 50.0458V22.5117C161.911 20.3784 162.791 18.3325 164.356 16.824C165.921 15.3155 168.045 14.4681 170.258 14.4681V14.459Z" fill="#FBC2A5"/>
<path d="M225.158 41.364C225.158 41.364 229.483 17.7062 202.127 5.77714C198.278 3.9711 194.268 2.50322 190.145 1.39134H190.041C181.119 -0.916217 171.654 -0.308218 163.129 3.12018C135.878 14.2667 127.946 47.8972 161.184 74.5305L177.897 45.4131C177.897 45.4131 190.825 36.3139 193.251 27.8062C194.078 25.644 195.268 23.6274 196.773 21.8372" fill="#2B4257"/>
<path d="M225.158 41.3642C225.158 41.3642 229.482 17.7064 202.127 5.77734" stroke="#586977" stroke-miterlimit="10" stroke-linecap="round"/>
<path d="M177.908 45.341C177.908 45.341 190.835 36.2419 193.261 27.7342C194.093 25.5981 195.279 23.6066 196.774 21.8379" stroke="#586977" stroke-miterlimit="10" stroke-linecap="round"/>
<path d="M215.603 57.4336V61.5646C215.604 64.0325 215.1 66.4763 214.121 68.7566C213.141 71.0368 211.705 73.1086 209.894 74.8537C208.083 76.5987 205.933 77.9827 203.567 78.9266C201.201 79.8704 198.665 80.3556 196.104 80.3544" stroke="#FFF1D7" stroke-miterlimit="10" stroke-linecap="round"/>
<path d="M198.719 45.887C198.905 45.7385 199.073 45.5707 199.22 45.3865C199.451 45.1235 199.741 44.9146 200.068 44.7759C200.395 44.6371 200.751 44.5721 201.108 44.5858H210.353V50.9006C210.353 51.7975 210.169 52.6857 209.813 53.5143C209.456 54.3428 208.934 55.0956 208.275 55.7294C207.616 56.3632 206.835 56.8657 205.974 57.2081C205.114 57.5505 204.192 57.7262 203.261 57.725C201.383 57.725 199.582 57.006 198.254 55.7262C196.925 54.4463 196.179 52.7105 196.179 50.9006C196.174 49.9329 196.4 48.977 196.841 48.1074C197.281 47.2378 197.924 46.4779 198.719 45.887Z" fill="#F4AB9D"/>
<path d="M210.343 43.4213C209.937 45.9781 207.406 47.616 204.12 47.2065C202.032 46.9192 200.108 45.9566 198.662 44.4768C199.068 41.9199 201.599 40.282 204.875 40.6915C206.968 40.9726 208.898 41.936 210.343 43.4213Z" fill="#F7F7F7"/>
<path d="M210.343 43.4219C209.937 45.9787 207.406 47.6166 204.12 47.2071C202.032 46.9198 200.108 45.9573 198.662 44.4774" stroke="#2B4257" stroke-miterlimit="10" stroke-linecap="round"/>
<path d="M206.682 44.1896C207.029 44.1173 207.233 43.7163 207.138 43.2939C207.043 42.8715 206.685 42.5877 206.338 42.6601C205.992 42.7324 205.788 43.1334 205.883 43.5558C205.978 43.9782 206.336 44.262 206.682 44.1896Z" fill="#2B4257"/>
<path d="M193.26 54.0491C195.972 54.0491 198.17 51.9307 198.17 49.3175C198.17 46.7043 195.972 44.5859 193.26 44.5859C190.548 44.5859 188.35 46.7043 188.35 49.3175C188.35 51.9307 190.548 54.0491 193.26 54.0491Z" fill="#E57873"/>
<path d="M209.087 36.7876C207.745 36.3087 206.296 36.1802 204.887 36.4151C203.477 36.65 202.157 37.24 201.061 38.1251" stroke="#2B4257" stroke-miterlimit="10" stroke-linecap="round"/>
<path d="M204.072 58.3438C204.817 59.2209 205.789 59.8932 206.89 60.2926C207.991 60.692 209.182 60.8044 210.342 60.6185" stroke="#2B4257" stroke-miterlimit="10" stroke-linecap="round"/>
<path d="M170.222 58.7533C170.222 58.7533 161.449 84.4403 166.577 102.72C169.136 111.82 164.528 117.552 158.078 120.346C147.342 124.968 139.099 133.667 134.406 144.058C131.573 150.236 126.852 154.977 118.57 153.894C97.1732 151.164 104.019 51.6469 154.736 7.67969" fill="#2B4257"/>
<path d="M170.221 58.7539C170.221 58.7539 161.449 84.4409 166.576 102.721C169.135 111.82 164.527 117.553 158.078 120.346" stroke="#586977" stroke-miterlimit="10" stroke-linecap="round"/>
<path d="M174.526 58.4722C179.005 58.4722 182.637 54.9728 182.637 50.656C182.637 46.3393 179.005 42.8398 174.526 42.8398C170.046 42.8398 166.415 46.3393 166.415 50.656C166.415 54.9728 170.046 58.4722 174.526 58.4722Z" fill="#FBC2A5"/>
<path d="M174.526 54.6596C176.821 54.6596 178.681 52.8671 178.681 50.656C178.681 48.4448 176.821 46.6523 174.526 46.6523C172.232 46.6523 170.372 48.4448 170.372 50.656C170.372 52.8671 172.232 54.6596 174.526 54.6596Z" fill="#F4AB9D"/>
<path d="M422.992 640.955H137.145" stroke="#2B4257" stroke-miterlimit="10" stroke-linecap="round"/>
<path d="M118.505 640.955H107.938" stroke="#2B4257" stroke-miterlimit="10" stroke-linecap="round"/>
<path d="M125.84 235.441H223.203C223.203 235.441 273.391 253.376 351.907 316.033L270.804 394.377C270.804 394.377 118.985 346.679 125.84 235.441Z" fill="#E57873"/>
<path d="M351.906 316.031L270.803 394.375" stroke="#2B4257" stroke-miterlimit="10" stroke-linecap="round"/>
<path d="M223.205 235.441C223.205 235.441 273.392 253.376 351.908 316.033" stroke="#FFF1D7" stroke-miterlimit="10" stroke-linecap="round"/>
<path d="M270.804 394.377C270.804 394.377 118.985 346.679 125.84 235.441" stroke="#2B4257" stroke-miterlimit="10" stroke-linecap="round"/>
<path d="M313.335 228.253C255.215 228.253 215.32 209.281 190.486 191.192C156.294 166.27 142.706 138.08 141.271 134.95L184.461 116.57L184.386 116.406C184.49 116.625 194.914 138.026 220.806 156.215C255.385 180.519 300.53 188.226 354.986 179.127L363.06 223.949C346.643 226.753 330.007 228.193 313.335 228.253Z" fill="#E57873"/>
<path d="M190.484 191.191C178.799 182.699 168.25 172.845 159.078 161.855" stroke="#2B4257" stroke-miterlimit="10" stroke-linecap="round"/>
<path d="M220.806 156.215C255.385 180.519 300.53 188.226 354.986 179.127" stroke="#FFF1D7" stroke-miterlimit="10" stroke-linecap="round"/>
<path d="M363.059 223.948C346.643 226.753 330.007 228.192 313.334 228.252C255.215 228.252 215.32 209.281 190.485 191.191" stroke="#2B4257" stroke-miterlimit="10" stroke-linecap="round"/>
<path d="M379.47 585.677L315.525 557.879L288.821 611.155L357.441 640.954L352.408 626.933L379.47 585.677Z" fill="#E57873"/>
<path d="M315.525 557.879L288.821 611.155L357.441 640.954" stroke="#2B4257" stroke-miterlimit="10" stroke-linecap="round"/>
<path d="M344.618 610.1L350.755 615.332L347.687 605.323L355.241 608.508L350.755 599.418L357.441 603.049V594.404" stroke="#2B4257" stroke-miterlimit="10" stroke-linecap="round"/>
<path d="M259.462 498.489L221.059 441.91L168.813 473.002L210.049 533.675L213.628 519.244L259.462 498.489Z" fill="#E57873"/>
<path d="M221.059 441.91L168.813 473.002L210.049 533.675" stroke="#2B4257" stroke-miterlimit="10" stroke-linecap="round"/>
<path d="M216.453 501.019L218.71 508.608L221.703 498.571L226.302 505.177L227.586 495.186L231.203 501.71L236.028 494.422" stroke="#2B4257" stroke-miterlimit="10" stroke-linecap="round"/>
<path d="M338.715 130.574C338.715 130.574 350.67 134.214 350.83 137.699C350.991 141.184 344.636 139.965 344.636 139.965C344.636 139.965 345.892 147.963 338.715 148.627" stroke="#2B4257" stroke-miterlimit="10" stroke-linecap="round"/>
<path d="M167.019 403.648V640.955" stroke="#2B4257" stroke-miterlimit="10" stroke-linecap="round"/>
<path d="M128.853 504.549H190.23" stroke="#2B4257" stroke-miterlimit="10" stroke-linecap="round"/>
<path d="M493.631 124.703L434.048 209.471C433.3 210.533 432.293 211.402 431.117 212.003C429.94 212.604 428.628 212.919 427.296 212.92H340.424C338.499 212.92 336.592 213.285 334.814 213.996C333.035 214.706 331.419 215.747 330.058 217.059C328.697 218.372 327.618 219.929 326.882 221.644C326.146 223.358 325.768 225.196 325.769 227.051V228.388H548.616C552.832 228.388 556.984 227.392 560.709 225.489C564.433 223.585 567.618 220.832 569.984 217.469L636.262 123.184C636.718 122.534 636.982 121.777 637.025 120.994C637.069 120.211 636.89 119.431 636.509 118.738C636.127 118.046 635.558 117.466 634.861 117.061C634.163 116.657 633.365 116.442 632.551 116.441H509.797C506.608 116.448 503.469 117.204 500.652 118.643C497.835 120.083 495.425 122.163 493.631 124.703Z" fill="#C3D8DD"/>
<path d="M340.433 212.92C338.508 212.92 336.602 213.285 334.823 213.996C333.044 214.706 331.428 215.747 330.067 217.059C328.706 218.372 327.627 219.929 326.891 221.644C326.155 223.358 325.777 225.196 325.778 227.051V228.388H548.625C552.841 228.388 556.993 227.392 560.718 225.489C564.443 223.585 567.627 220.832 569.994 217.469L636.272 123.184C636.727 122.534 636.991 121.777 637.034 120.994C637.078 120.211 636.899 119.431 636.518 118.738C636.137 118.046 635.567 117.466 634.87 117.061C634.173 116.657 633.374 116.442 632.561 116.441" stroke="#2B4257" stroke-miterlimit="10" stroke-linecap="round"/>
<path d="M632.599 116.406H509.845C506.642 116.406 503.487 117.163 500.657 118.609C497.828 120.056 495.409 122.149 493.613 124.705L434.03 209.473C433.283 210.532 432.28 211.399 431.107 212C429.934 212.601 428.626 212.917 427.297 212.921H340.425" stroke="#FFF1D7" stroke-miterlimit="10" stroke-linecap="round"/>
<path d="M546.219 242.529L484.559 301.947C464.614 321.159 453.405 347.219 453.398 374.394V641H536.758" stroke="#2B4257" stroke-miterlimit="10" stroke-linecap="round"/>
<path d="M667.339 242.529L605.688 301.947C595.81 311.459 587.975 322.753 582.628 335.183C577.281 347.614 574.529 360.938 574.527 374.394V641H657.877" stroke="#2B4257" stroke-miterlimit="10" stroke-linecap="round"/>
<path d="M461.545 480.736H574.545" stroke="#2B4257" stroke-miterlimit="10" stroke-linecap="round"/>
</svg>
