<svg width="672" height="667" viewBox="0 0 672 667" fill="none" xmlns="http://www.w3.org/2000/svg">
<path d="M576.853 55.3398H460.786V199.743H634.891V111.266C634.891 96.4338 628.776 82.2086 617.892 71.7204C607.008 61.2321 592.246 55.3398 576.853 55.3398Z" fill="#7296A3"/>
<path d="M576.852 129.44V27.6138C576.855 25.0177 577.927 22.5287 579.832 20.6937C581.738 18.8588 584.322 17.8281 587.016 17.8281H608.267C609.008 17.8281 609.718 18.1118 610.242 18.6167C610.766 19.1216 611.061 19.8064 611.061 20.5205V25.4219C611.061 28.0607 609.973 30.5914 608.036 32.4573C606.1 34.3233 603.474 35.3715 600.735 35.3715H576.852" fill="#5BC0C3"/>
<path d="M634.89 199.743V111.266C634.89 96.4338 628.775 82.2086 617.891 71.7204C607.007 61.2321 592.245 55.3398 576.852 55.3398" stroke="#2B4257" stroke-width="2" stroke-miterlimit="10" stroke-linecap="round"/>
<path d="M393.454 199.742H635.688" stroke="#2B4257" stroke-width="2" stroke-miterlimit="10" stroke-linecap="round"/>
<path d="M460.787 55.3398C476.177 55.3398 490.937 61.2312 501.82 71.7178C512.702 82.2045 518.816 96.4274 518.816 111.258V199.743H402.758V111.266C402.757 103.922 404.257 96.6502 407.173 89.8649C410.088 83.0796 414.363 76.9143 419.751 71.7209C425.14 66.5275 431.537 62.4078 438.578 59.5972C445.619 56.7865 453.166 55.3398 460.787 55.3398Z" fill="#2B4257"/>
<path d="M401.459 291.109C376.859 291.109 361.698 265.221 374.423 244.917L402.757 199.742H518.824L492.567 241.62C483.084 256.727 469.715 269.22 453.755 277.889C437.794 286.559 419.781 291.113 401.459 291.109Z" fill="#40697F"/>
<path d="M492.567 241.621C483.088 256.733 469.72 269.23 453.759 277.905C437.798 286.579 419.783 291.137 401.459 291.136C376.859 291.136 361.698 265.248 374.423 244.943" stroke="#2B4257" stroke-width="2" stroke-miterlimit="10" stroke-linecap="round"/>
<path d="M283.897 146.181C283.897 146.181 331.663 128.629 341.209 129.492C350.756 130.355 326.29 142.436 326.29 142.436C326.29 142.436 331.959 181.561 286.288 176.668" fill="#FBC2A5"/>
<path d="M341.21 129.492C350.765 130.355 326.291 142.436 326.291 142.436C326.291 142.436 331.959 181.561 286.288 176.669" stroke="#2B4257" stroke-width="2" stroke-miterlimit="10" stroke-linecap="round"/>
<path d="M118.872 116.547C118.872 116.547 144.197 163.249 292.851 159.167" stroke="#628ECC" stroke-width="20" stroke-miterlimit="10"/>
<path d="M408.175 168.012H302.506C298.92 168.012 296.013 170.813 296.013 174.268V225.198C296.013 228.653 298.92 231.454 302.506 231.454H408.175C411.761 231.454 414.668 228.653 414.668 225.198V174.268C414.668 170.813 411.761 168.012 408.175 168.012Z" fill="#CAAF95"/>
<path d="M408.175 168.012C409.897 168.014 411.547 168.674 412.764 169.847C413.981 171.019 414.665 172.609 414.668 174.268V225.181C414.665 226.839 413.981 228.429 412.764 229.602C411.547 230.775 409.897 231.435 408.175 231.437H302.506C300.785 231.435 299.135 230.775 297.918 229.602C296.7 228.429 296.016 226.839 296.013 225.181" stroke="#2B4257" stroke-width="2" stroke-miterlimit="10" stroke-linecap="round"/>
<path d="M296.013 225.226V174.313C296.016 172.654 296.7 171.064 297.918 169.892C299.135 168.719 300.785 168.059 302.506 168.057H408.175" stroke="#FFF1D7" stroke-width="2" stroke-miterlimit="10" stroke-linecap="round"/>
<path d="M321.965 178.635H310.807C309.437 178.635 308.327 179.705 308.327 181.025V187.04C308.327 188.36 309.437 189.43 310.807 189.43H321.965C323.335 189.43 324.446 188.36 324.446 187.04V181.025C324.446 179.705 323.335 178.635 321.965 178.635Z" fill="#FDEED9"/>
<path d="M321.965 178.635H310.807C309.437 178.635 308.327 179.705 308.327 181.025V187.04C308.327 188.36 309.437 189.43 310.807 189.43H321.965C323.335 189.43 324.446 188.36 324.446 187.04V181.025C324.446 179.705 323.335 178.635 321.965 178.635Z" fill="#FDEED9"/>
<path d="M310.807 189.431C310.149 189.431 309.518 189.179 309.053 188.73C308.588 188.282 308.327 187.674 308.327 187.04V181C308.327 180.366 308.588 179.758 309.053 179.309C309.518 178.861 310.149 178.609 310.807 178.609H321.965C322.623 178.609 323.254 178.861 323.719 179.309C324.184 179.758 324.446 180.366 324.446 181" stroke="#2B4257" stroke-width="2" stroke-miterlimit="10" stroke-linecap="round"/>
<path d="M353.245 581.211C338.487 589.081 338.084 564.479 338.084 564.479L292.888 581.47L316.538 627.283L387.095 582.643C384.265 584.429 379.17 567.387 353.245 581.211Z" fill="#5BC0C3"/>
<path d="M356.038 579.804C355.014 583.264 354.496 586.845 354.498 590.444C354.49 594.393 355.115 598.319 356.351 602.085L387.094 582.643C384.372 584.36 379.536 568.672 356.038 579.804Z" fill="#628ECC"/>
<path d="M316.539 627.282L387.096 582.643" stroke="#2B4257" stroke-width="2" stroke-miterlimit="10" stroke-linecap="round"/>
<path d="M292.888 581.469L316.538 627.282" stroke="#2B4257" stroke-width="2" stroke-miterlimit="10" stroke-linecap="round"/>
<path d="M338.532 584.066L346.054 579.303" stroke="#2B4257" stroke-width="2" stroke-miterlimit="10" stroke-linecap="round"/>
<path d="M345.122 585.836L352.644 581.072" stroke="#2B4257" stroke-width="2" stroke-miterlimit="10" stroke-linecap="round"/>
<path d="M103.032 246.953C103.032 246.953 238.343 379.456 316.691 576.205" stroke="#1D2537" stroke-width="30" stroke-miterlimit="10"/>
<path d="M306.992 212.566C301.386 206.025 289.279 204.886 277.44 212.566C265.602 220.246 240.724 217.873 240.724 217.873L228.393 243.977C248.471 250.803 262.691 243.865 287.497 243.01C312.302 242.156 304.968 220.048 304.968 220.048C304.968 220.048 310.834 224.362 315.266 222.636C319.699 220.911 312.607 219.107 306.992 212.566Z" fill="#FBC2A5"/>
<path d="M315.265 222.637C319.698 220.911 312.579 219.125 306.991 212.584C301.403 206.043 289.278 204.904 277.439 212.584C265.6 220.264 240.723 217.891 240.723 217.891" stroke="#FFF1D7" stroke-width="2" stroke-miterlimit="10" stroke-linecap="round"/>
<path d="M228.403 243.976C248.48 250.802 262.701 243.864 287.506 243.009C312.312 242.155 304.968 220.047 304.968 220.047" stroke="#2B4257" stroke-width="2" stroke-miterlimit="10" stroke-linecap="round"/>
<path d="M150.94 646.103C134.132 644.878 147.806 624.099 147.806 624.099L100.344 614.391L94.0129 665.2H178.423C175.047 665.2 180.492 648.261 150.94 646.103Z" fill="#5BC0C3"/>
<path d="M178.425 665.2C175.192 665.2 180.037 649.667 154.533 646.457C147.225 650.892 142.058 657.546 140.509 665.2H178.425Z" fill="#628ECC"/>
<path d="M100.344 614.391L94.0129 665.2" stroke="#2B4257" stroke-width="2" stroke-miterlimit="10" stroke-linecap="round"/>
<path d="M79.9896 10.5371C79.9896 10.5371 56.796 16.2411 75.7986 38.0646C94.8013 59.8882 99.4042 30.8764 99.4042 30.8764L79.9896 10.5371Z" fill="#2B4257"/>
<path d="M303.732 282.652C297.948 282.652 292.402 284.866 288.313 288.807C284.223 292.747 281.926 298.092 281.926 303.665H325.537C325.537 298.092 323.24 292.747 319.15 288.807C315.061 284.866 309.515 282.652 303.732 282.652Z" fill="#EFEEED"/>
<path d="M278.766 291.402C275.391 291.402 272.155 292.694 269.768 294.994C267.382 297.293 266.041 300.412 266.041 303.665H291.491C291.489 300.413 290.147 297.296 287.762 294.996C285.376 292.697 282.14 291.405 278.766 291.402Z" fill="#EFEEED"/>
<path d="M634.299 257.48C640.08 257.487 645.621 259.705 649.707 263.647C653.792 267.588 656.086 272.931 656.086 278.501H612.493C612.493 272.928 614.79 267.582 618.879 263.64C622.968 259.698 628.515 257.483 634.299 257.48Z" fill="#EFEEED"/>
<path d="M659.275 266.24C662.65 266.24 665.887 267.532 668.273 269.832C670.66 272.131 672.001 275.25 672.001 278.502H646.55C646.55 275.25 647.891 272.131 650.277 269.832C652.664 267.532 655.901 266.24 659.275 266.24Z" fill="#EFEEED"/>
<path d="M596.187 253.994C599.527 253.993 602.835 254.626 605.921 255.857C609.007 257.089 611.811 258.894 614.173 261.17C616.535 263.446 618.408 266.148 619.686 269.122C620.963 272.095 621.62 275.283 621.619 278.501H570.763C570.762 275.283 571.419 272.097 572.696 269.124C573.973 266.15 575.846 263.449 578.206 261.173C580.567 258.897 583.37 257.092 586.456 255.86C589.541 254.628 592.847 253.994 596.187 253.994Z" fill="#EFEEED"/>
<path d="M284.165 4.58203C291.765 4.58203 299.054 7.49133 304.428 12.6699C309.802 17.8485 312.821 24.8722 312.821 32.1958H255.509C255.509 24.8722 258.528 17.8485 263.902 12.6699C269.276 7.49133 276.565 4.58203 284.165 4.58203Z" fill="#EFEEED"/>
<path d="M316.967 16.086C319.164 16.0826 321.34 16.4965 323.37 17.3042C325.401 18.1119 327.246 19.2975 328.8 20.7931C330.355 22.2886 331.588 24.0649 332.43 26.0202C333.271 27.9755 333.704 30.0715 333.704 32.1883H300.257C300.256 30.0734 300.687 27.979 301.527 26.0248C302.366 24.0707 303.597 22.2951 305.149 20.7997C306.701 19.3042 308.543 18.1182 310.571 17.3094C312.599 16.5005 314.772 16.0848 316.967 16.086Z" fill="#EFEEED"/>
<path d="M234.106 0C242.964 0 251.46 3.39116 257.725 9.42745C263.989 15.4637 267.508 23.6507 267.508 32.1873H200.703C200.703 23.6507 204.222 15.4637 210.486 9.42745C216.751 3.39116 225.247 0 234.106 0V0Z" fill="#EFEEED"/>
<path d="M509.931 369.016C504.239 369.027 498.784 371.214 494.763 375.097C490.742 378.979 488.484 384.241 488.484 389.726H531.387C531.387 384.239 529.128 378.977 525.105 375.094C521.082 371.211 515.625 369.025 509.931 369.016Z" fill="#EFEEED"/>
<path d="M485.368 377.627C482.043 377.627 478.855 378.9 476.503 381.165C474.152 383.431 472.831 386.504 472.831 389.708H497.905C497.905 386.504 496.585 383.431 494.233 381.165C491.882 378.9 488.693 377.627 485.368 377.627Z" fill="#EFEEED"/>
<path d="M547.426 365.59C544.141 365.589 540.888 366.211 537.853 367.422C534.818 368.633 532.061 370.408 529.738 372.647C527.415 374.885 525.573 377.542 524.316 380.467C523.06 383.392 522.414 386.526 522.415 389.692H572.438C572.438 383.299 569.803 377.169 565.112 372.649C560.422 368.129 554.06 365.59 547.426 365.59Z" fill="#EFEEED"/>
<path d="M1.47168 665.199H272.559" stroke="#2B4257" stroke-width="2" stroke-miterlimit="10" stroke-linecap="round"/>
<path d="M290.238 665.199H300.259" stroke="#2B4257" stroke-width="2" stroke-miterlimit="10" stroke-linecap="round"/>
<path d="M129.475 100.912L94.4878 101.326V66.6449L129.475 62.8652V100.912Z" fill="#FBC2A5"/>
<path d="M129.476 62.8652V100.912" stroke="#2B4257" stroke-width="2" stroke-miterlimit="10" stroke-linecap="round"/>
<path d="M79.1473 15.9043L84.3412 55.3403H73.1384L79.1473 15.9043Z" fill="#F39B92"/>
<path d="M84.3412 55.3398H73.1384" stroke="#2B4257" stroke-width="2" stroke-miterlimit="10" stroke-linecap="round"/>
<path d="M94.4878 101.326V66.6445" stroke="#FFF1D7" stroke-width="2" stroke-miterlimit="10" stroke-linecap="round"/>
<path d="M100.202 78.3965H97.5961C92.6994 78.3851 88.0073 76.5026 84.5491 73.162C81.0908 69.8215 79.1486 65.2955 79.1487 60.577V15.903L122.133 15.903C123.175 15.9007 124.207 16.0967 125.17 16.4795C126.133 16.8624 127.008 17.4247 127.745 18.1342C128.482 18.8437 129.067 19.6864 129.465 20.6141C129.864 21.5417 130.068 22.536 130.067 23.5399V49.6091C130.067 57.2417 126.921 64.5617 121.32 69.9588C115.719 75.3558 108.123 78.3879 100.202 78.3879V78.3965Z" fill="#FBC2A5"/>
<path d="M95.1325 44.7524C94.958 44.6073 94.7963 44.4486 94.6489 44.2778C94.4326 44.0253 94.158 43.8251 93.847 43.6932C93.536 43.5613 93.1972 43.5015 92.8579 43.5184H84.1267V49.5072C84.1267 50.3571 84.3004 51.1987 84.638 51.9839C84.9755 52.7691 85.4702 53.4826 86.0939 54.0836C86.7175 54.6845 87.4579 55.1613 88.2728 55.4865C89.0876 55.8118 89.961 55.9792 90.843 55.9792C91.7258 55.9803 92.6001 55.8137 93.416 55.489C94.2319 55.1643 94.9733 54.6877 95.5979 54.0866C96.2225 53.4855 96.7181 52.7717 97.0562 51.9859C97.3942 51.2001 97.5682 50.3578 97.5682 49.5072C97.569 48.5875 97.3496 47.6801 96.9272 46.8554C96.5047 46.0308 95.8905 45.3111 95.1325 44.7524Z" fill="#F4AB9D"/>
<path d="M77.151 55.2278C77.151 55.2278 69.4138 79.3898 82.9628 86.2933C96.5118 93.1967 119.571 81.366 115.389 59.6546C111.422 39.0305 118.076 53.4415 121.407 43.5005C121.407 43.5005 119.974 60.8541 129.968 69.0347C129.968 69.0347 149.141 22.5227 131.562 15.1877C113.983 7.85283 74.572 5.26403 72.3332 16.4821C70.0944 27.7003 80.3927 31.618 100.989 35.6047C110.079 37.3306 112.631 63.1581 103.828 59.8099C95.0253 56.4618 87.5299 54.2354 77.151 55.2278Z" fill="#2B4257"/>
<path d="M74.1431 25.5605C78.0475 30.3412 87.1816 32.9645 100.874 35.6223C109.963 37.3482 112.515 63.1757 103.713 59.8275" stroke="#586977" stroke-width="2" stroke-miterlimit="10" stroke-linecap="round"/>
<path d="M131.517 15.2053C113.929 7.87041 74.5271 5.28161 72.2883 16.4997" stroke="#586977" stroke-width="2" stroke-miterlimit="10" stroke-linecap="round"/>
<path d="M79.9896 10.5371C79.9896 10.5371 56.796 16.2411 75.7986 38.0646" stroke="#586977" stroke-width="2" stroke-miterlimit="10" stroke-linecap="round"/>
<path d="M82.9629 86.293C96.4671 93.1964 119.571 81.3656 115.389 59.6543L82.9629 86.293Z" fill="#2B4257"/>
<path d="M76.3369 58.2734C74.7787 64.9957 72.3877 80.8995 82.9636 86.2928" stroke="#586977" stroke-width="2" stroke-miterlimit="10" stroke-linecap="round"/>
<path d="M82.9629 86.293C96.4671 93.1964 119.571 81.3656 115.389 59.6543" stroke="#2B4257" stroke-width="2" stroke-miterlimit="10" stroke-linecap="round"/>
<path d="M95.231 44.1992C94.7653 41.783 92.3116 40.3074 89.2132 40.7906C87.2444 41.1247 85.4514 42.0921 84.1267 43.5348C84.5924 45.951 87.0371 47.4266 90.1356 46.9433C92.109 46.615 93.9067 45.6468 95.231 44.1992Z" fill="#F7F7F7"/>
<path d="M84.1267 43.5352C84.5924 45.9514 87.0371 47.427 90.1356 46.9437C92.109 46.6154 93.9067 45.6472 95.231 44.1996" stroke="#2B4257" stroke-width="2" stroke-miterlimit="10" stroke-linecap="round"/>
<path d="M88.3904 44.6659C88.7267 44.6659 88.9994 44.3336 88.9994 43.9238C88.9994 43.5139 88.7267 43.1816 88.3904 43.1816C88.0541 43.1816 87.7815 43.5139 87.7815 43.9238C87.7815 44.3336 88.0541 44.6659 88.3904 44.6659Z" fill="#2B4257"/>
<path d="M97.5675 55.7792C100.139 55.7792 102.224 53.7702 102.224 51.2919C102.224 48.8137 100.139 46.8047 97.5675 46.8047C94.9957 46.8047 92.9109 48.8137 92.9109 51.2919C92.9109 53.7702 94.9957 55.7792 97.5675 55.7792Z" fill="#E57873"/>
<path d="M83.8582 38.5037C85.0628 37.4576 86.5328 36.7367 88.1195 36.4139C89.7062 36.0912 91.3532 36.178 92.8938 36.6657" stroke="#2B4257" stroke-width="2" stroke-miterlimit="10" stroke-linecap="round"/>
<path d="M92.3109 59.543C91.0916 60.5707 89.6131 61.2713 88.0239 61.5742C86.4348 61.8771 84.7909 61.7718 83.2573 61.2688" stroke="#FFF1D7" stroke-width="2" stroke-miterlimit="10" stroke-linecap="round"/>
<path d="M121.784 57.6435C126.033 57.6435 129.477 54.3248 129.477 50.2309C129.477 46.1371 126.033 42.8184 121.784 42.8184C117.536 42.8184 114.092 46.1371 114.092 50.2309C114.092 54.3248 117.536 57.6435 121.784 57.6435Z" fill="#FBC2A5"/>
<path d="M121.784 54.0274C123.96 54.0274 125.724 52.3275 125.724 50.2305C125.724 48.1335 123.96 46.4336 121.784 46.4336C119.608 46.4336 117.844 48.1335 117.844 50.2305C117.844 52.3275 119.608 54.0274 121.784 54.0274Z" fill="#F4AB9D"/>
<path d="M64.4182 225.475H156.754V236.442C156.754 242.284 155.56 248.069 153.24 253.466C150.92 258.863 147.52 263.767 143.233 267.897C138.946 272.028 133.857 275.305 128.256 277.54C122.656 279.776 116.653 280.927 110.59 280.927C104.527 280.928 98.5236 279.778 92.9218 277.543C87.32 275.308 82.2299 272.031 77.9423 267.901C73.6547 263.77 70.2535 258.865 67.933 253.468C65.6126 248.07 64.4182 242.285 64.4182 236.442V225.475Z" fill="#1D2537"/>
<path d="M110.582 92.8691C116.644 92.8691 122.647 94.0198 128.248 96.2553C133.848 98.4908 138.937 101.767 143.224 105.898C147.511 110.029 150.911 114.933 153.231 120.33C155.551 125.727 156.745 131.512 156.745 137.353V225.476H64.4182V137.353C64.4182 125.555 69.2818 114.241 77.9391 105.898C86.5964 97.5558 98.3383 92.8691 110.582 92.8691Z" fill="#628ECC"/>
<path d="M156.754 149.564L146.321 159.617L129.763 143.67L113.214 159.617L96.6654 143.67L80.1075 159.617L64.4182 144.498V187.921L80.1075 172.802L96.6654 188.749L113.214 172.802L129.763 188.749L146.321 172.802L156.754 182.847V149.564Z" fill="#5BC0C3"/>
<path d="M110.582 92.8691C98.3383 92.8691 86.5964 97.5558 77.9391 105.898C69.2818 114.241 64.4182 125.555 64.4182 137.353V225.476" stroke="#2B4257" stroke-width="2" stroke-miterlimit="10" stroke-linecap="round"/>
<path d="M128.375 176.098C143.186 196.549 163.774 217.328 154.344 223.645C144.915 229.962 109.13 219.434 94.3453 198.983C79.5605 178.531 75.1367 156.837 84.4947 150.52C93.8528 144.204 113.563 155.655 128.375 176.098Z" fill="#1D2537"/>
<path d="M156.753 225.476V137.353C156.759 131.82 155.69 126.335 153.601 121.182" stroke="#FFF1D7" stroke-width="2" stroke-miterlimit="10" stroke-linecap="round"/>
<path d="M78.5837 106.935L83.706 90.5391L137.293 92.7654C137.706 92.7763 138.109 92.8913 138.461 93.0989C138.814 93.3065 139.104 93.5995 139.302 93.9487C139.501 94.2979 139.601 94.6911 139.592 95.0891C139.584 95.4871 139.467 95.876 139.254 96.2172L131.016 110.24" fill="#628ECC"/>
<path d="M83.7063 90.5391L137.293 92.7654C137.706 92.7763 138.109 92.8913 138.462 93.0989C138.814 93.3065 139.104 93.5995 139.302 93.9487C139.501 94.2979 139.601 94.6911 139.592 95.0891C139.584 95.4871 139.468 95.876 139.255 96.2172L131.016 110.24" stroke="#FFF1D7" stroke-width="2" stroke-miterlimit="10" stroke-linecap="round"/>
<path d="M78.5837 106.935L83.706 90.5391" stroke="#2B4257" stroke-width="2" stroke-miterlimit="10" stroke-linecap="round"/>
<path d="M86.2307 131.83C86.2307 131.83 132.645 232.793 258.848 232.793" stroke="#628ECC" stroke-width="20" stroke-miterlimit="10"/>
<path d="M159.61 634.789L89.2323 622.173C116.724 480.16 75.7997 261.64 75.3967 259.448L145.864 246.996C147.619 256.402 189.529 480.134 159.61 634.789Z" fill="#1D2537"/>
<path d="M145.819 246.953C147.61 256.402 189.547 480.134 159.61 634.789" stroke="#FFF1D7" stroke-width="2" stroke-miterlimit="10" stroke-linecap="round"/>
<path d="M137.016 640.709H146.016" stroke="#2B4257" stroke-width="2" stroke-miterlimit="10" stroke-linecap="round"/>
<path d="M141.521 645.672H150.521" stroke="#2B4257" stroke-width="2" stroke-miterlimit="10" stroke-linecap="round"/>
<path d="M348.874 216.354C357.074 216.354 363.722 212.634 363.722 208.044C363.722 203.455 357.074 199.734 348.874 199.734C340.674 199.734 334.027 203.455 334.027 208.044C334.027 212.634 340.674 216.354 348.874 216.354Z" fill="white"/>
<path d="M334.027 208.045C335.521 210.569 337.682 212.666 340.289 214.125C342.897 215.585 345.859 216.353 348.874 216.353C351.889 216.353 354.851 215.585 357.459 214.125C360.066 212.666 362.227 210.569 363.722 208.045" stroke="#2B4257" stroke-width="2" stroke-miterlimit="10" stroke-linecap="round"/>
<path d="M346.241 207.224C347.245 207.224 348.059 205.868 348.059 204.195C348.059 202.522 347.245 201.166 346.241 201.166C345.237 201.166 344.424 202.522 344.424 204.195C344.424 205.868 345.237 207.224 346.241 207.224Z" fill="#354B5F"/>
<path d="M387.909 216.354C396.109 216.354 402.756 212.634 402.756 208.044C402.756 203.455 396.109 199.734 387.909 199.734C379.709 199.734 373.061 203.455 373.061 208.044C373.061 212.634 379.709 216.354 387.909 216.354Z" fill="white"/>
<path d="M373.106 208.045C374.601 210.569 376.762 212.666 379.369 214.125C381.977 215.585 384.939 216.353 387.954 216.353C390.969 216.353 393.931 215.585 396.539 214.125C399.146 212.666 401.307 210.569 402.801 208.045" stroke="#2B4257" stroke-width="2" stroke-miterlimit="10" stroke-linecap="round"/>
<path d="M385.286 207.224C386.29 207.224 387.103 205.868 387.103 204.195C387.103 202.522 386.29 201.166 385.286 201.166C384.282 201.166 383.468 202.522 383.468 204.195C383.468 205.868 384.282 207.224 385.286 207.224Z" fill="#354B5F"/>
<path d="M460.786 116.547C472.23 116.547 481.508 111.359 481.508 104.958C481.508 98.5578 472.23 93.3691 460.786 93.3691C449.341 93.3691 440.064 98.5578 440.064 104.958C440.064 111.359 449.341 116.547 460.786 116.547Z" fill="white"/>
<path d="M440.073 104.959C442.159 108.48 445.174 111.406 448.813 113.442C452.451 115.477 456.584 116.55 460.791 116.55C464.998 116.55 469.13 115.477 472.769 113.442C476.407 111.406 479.422 108.48 481.508 104.959" stroke="#2B4257" stroke-width="2" stroke-miterlimit="10" stroke-linecap="round"/>
<path d="M455.87 111.482C457.275 111.482 458.414 109.593 458.414 107.263C458.414 104.932 457.275 103.043 455.87 103.043C454.466 103.043 453.327 104.932 453.327 107.263C453.327 109.593 454.466 111.482 455.87 111.482Z" fill="#354B5F"/>
<path d="M310.842 159.426C307.932 159.193 304.323 153.291 304.323 153.291C304.323 153.291 304.126 163.292 298.305 163.508" stroke="#2B4257" stroke-width="2" stroke-miterlimit="10" stroke-linecap="round"/>
<path d="M296.013 146.465C296.013 146.465 304.127 140.425 310.619 144.739" stroke="#2B4257" stroke-width="2" stroke-miterlimit="10" stroke-linecap="round"/>
<path d="M310.618 144.74C317.111 149.055 313.753 159.652 310.842 159.41" stroke="#FFF1D7" stroke-width="2" stroke-miterlimit="10" stroke-linecap="round"/>
<path d="M576.852 129.44V27.6138C576.855 25.0177 577.927 22.5287 579.832 20.6937C581.738 18.8588 584.322 17.8281 587.016 17.8281H608.267C609.008 17.8281 609.718 18.1118 610.242 18.6167C610.766 19.1216 611.061 19.8064 611.061 20.5205V25.4219C611.061 28.0607 609.973 30.5914 608.036 32.4573C606.1 34.3233 603.474 35.3715 600.735 35.3715H581.294" stroke="#2B4257" stroke-width="2" stroke-miterlimit="10" stroke-linecap="round"/>
<path d="M585.002 134.479C585.03 132.123 584.455 129.796 583.328 127.705V123.477H577.149C572.805 123.477 569.286 128.404 569.286 134.479C569.286 140.554 572.805 145.481 577.149 145.481H583.328V141.262C584.455 139.167 585.03 136.838 585.002 134.479Z" fill="#2B4257"/>
<path d="M583.328 145.481C587.67 145.481 591.19 140.555 591.19 134.479C591.19 128.402 587.67 123.477 583.328 123.477C578.986 123.477 575.465 128.402 575.465 134.479C575.465 140.555 578.986 145.481 583.328 145.481Z" fill="#FDEED9"/>
<path d="M440.073 128.689C442.159 132.21 445.174 135.137 448.813 137.172C452.451 139.208 456.584 140.28 460.791 140.28C464.998 140.28 469.13 139.208 472.769 137.172C476.407 135.137 479.422 132.21 481.508 128.689" stroke="#F39B92" stroke-width="5" stroke-miterlimit="10" stroke-linecap="round"/>
<path d="M518.824 199.742V640.709" stroke="#2B4257" stroke-width="2" stroke-miterlimit="10" stroke-linecap="round"/>
<path d="M436.133 665.199C436.133 665.199 417.032 658.468 426.587 648.691C436.142 638.914 454.043 648.691 454.043 648.691C454.043 648.691 435.542 634.884 449.27 632.011C462.998 629.137 481.508 648.605 481.508 648.605C481.508 648.605 441.506 593.697 481.508 595.88C521.51 598.063 540.012 647.544 540.012 647.544C540.012 647.544 534.639 605.545 563.895 610.144C593.151 614.743 587.778 650.995 587.778 650.995C587.778 650.995 591.951 637.326 603.297 640.709C614.643 644.092 603.297 657.899 603.297 657.899C603.297 657.899 613.443 651.565 619.416 654.447C625.389 657.329 615.834 665.199 615.834 665.199" fill="#40697F"/>
<path d="M619.417 654.447C625.39 657.321 615.835 665.199 615.835 665.199" stroke="#2B4257" stroke-width="2" stroke-miterlimit="10" stroke-linecap="round"/>
<path d="M603.296 640.709C614.642 644.092 603.296 657.899 603.296 657.899" stroke="#2B4257" stroke-width="2" stroke-miterlimit="10" stroke-linecap="round"/>
<path d="M563.895 610.145C593.152 614.753 587.779 650.996 587.779 650.996" stroke="#2B4257" stroke-width="2" stroke-miterlimit="10" stroke-linecap="round"/>
<path d="M587.779 650.996C587.779 650.996 591.952 637.327 603.298 640.71" stroke="#FFF1D7" stroke-width="2" stroke-miterlimit="10" stroke-linecap="round"/>
<path d="M481.509 595.881C521.511 598.064 540.012 647.545 540.012 647.545" stroke="#2B4257" stroke-width="2" stroke-miterlimit="10" stroke-linecap="round"/>
<path d="M540.01 647.544C540.01 647.544 534.637 605.546 563.893 610.145" stroke="#FFF1D7" stroke-width="2" stroke-miterlimit="10" stroke-linecap="round"/>
<path d="M449.269 632.012C462.997 629.13 481.507 648.606 481.507 648.606" stroke="#2B4257" stroke-width="2" stroke-miterlimit="10" stroke-linecap="round"/>
<path d="M481.508 648.605C481.508 648.605 441.505 593.697 481.508 595.88" stroke="#FFF1D7" stroke-width="2" stroke-miterlimit="10" stroke-linecap="round"/>
<path d="M426.587 648.691C436.133 638.914 454.043 648.691 454.043 648.691" stroke="#2B4257" stroke-width="2" stroke-miterlimit="10" stroke-linecap="round"/>
<path d="M436.133 665.199C436.133 665.199 417.032 658.468 426.587 648.691" stroke="#FFF1D7" stroke-width="2" stroke-miterlimit="10" stroke-linecap="round"/>
<path d="M454.044 648.69C454.044 648.69 435.542 634.883 449.27 632.01" stroke="#FFF1D7" stroke-width="2" stroke-miterlimit="10" stroke-linecap="round"/>
<path d="M383.28 665.199H654.368" stroke="#2B4257" stroke-width="2" stroke-miterlimit="10" stroke-linecap="round"/>
<path d="M603.296 657.899C603.296 657.899 613.442 651.565 619.415 654.447" stroke="#FFF1D7" stroke-width="2" stroke-miterlimit="10" stroke-linecap="round"/>
</svg>
