<svg width="385" height="382" viewBox="0 0 385 382" fill="none" xmlns="http://www.w3.org/2000/svg">
<path d="M298.563 37.5039L164.914 168.81C164.333 169.382 163.643 169.835 162.883 170.145C162.123 170.454 161.308 170.613 160.486 170.613C159.663 170.613 158.849 170.454 158.089 170.145C157.329 169.835 156.639 169.382 156.058 168.81C155.476 168.239 155.014 167.561 154.7 166.814C154.385 166.068 154.223 165.267 154.223 164.459C154.223 163.651 154.385 162.851 154.7 162.105C155.014 161.358 155.476 160.68 156.058 160.109L162.788 153.496" stroke="#2B4257" stroke-width="2" stroke-miterlimit="10" stroke-linecap="round"/>
<path d="M201.586 27.6898C206.277 28.0517 211.508 30.4813 215.827 34.7202C220.145 38.9591 222.609 44.1026 222.978 48.7076C227.669 49.0738 232.9 51.4991 237.219 55.738C241.537 59.9769 244.001 65.1204 244.37 69.7298C249.061 70.0916 254.292 72.5169 258.611 76.7558C262.929 80.9947 265.385 86.1554 265.762 90.7476C270.453 91.1094 275.684 93.5347 280.003 97.7736C284.321 102.012 286.786 107.156 287.154 111.765C291.845 112.127 297.076 114.553 301.395 118.791C305.713 123.03 308.178 128.174 308.546 132.783C308.822 132.805 309.103 132.831 309.379 132.869C329.824 112.394 322.44 72.3446 292.77 43.1936C263.1 14.0427 222.333 6.78834 201.498 26.8757C201.533 27.1384 201.564 27.4228 201.586 27.6898Z" fill="#E57873"/>
<path d="M308.548 132.783C308.824 132.804 309.105 132.83 309.381 132.869C329.826 112.394 322.442 72.3443 292.772 43.1934" stroke="#2B4257" stroke-width="2" stroke-miterlimit="10" stroke-linecap="round"/>
<path d="M287.154 111.766C291.846 112.127 297.076 114.553 301.395 118.792" stroke="#2B4257" stroke-width="2" stroke-miterlimit="10" stroke-linecap="round"/>
<path d="M265.763 90.748C270.454 91.1099 275.685 93.5352 280.004 97.7741" stroke="#2B4257" stroke-width="2" stroke-miterlimit="10" stroke-linecap="round"/>
<path d="M244.37 69.7305C249.062 70.0923 254.292 72.5176 258.611 76.7565" stroke="#2B4257" stroke-width="2" stroke-miterlimit="10" stroke-linecap="round"/>
<path d="M222.979 48.709C227.67 49.0751 232.901 51.5004 237.219 55.7393" stroke="#2B4257" stroke-width="2" stroke-miterlimit="10" stroke-linecap="round"/>
<path d="M201.498 26.877C201.533 27.1483 201.564 27.424 201.586 27.6911C206.277 28.053 211.508 30.4826 215.827 34.7215" stroke="#2B4257" stroke-width="2" stroke-miterlimit="10" stroke-linecap="round"/>
<path d="M292.77 43.1936C263.1 14.0427 222.333 6.78834 201.498 26.8757" stroke="#FFF1D7" stroke-width="2" stroke-miterlimit="10" stroke-linecap="round"/>
<path d="M15.3011 202.717C20.2907 199.848 20.7292 185.18 20.7292 185.18L4.15133 182.221C-1.82915 195.256 10.3072 205.591 15.3011 202.717Z" fill="#F4AB9D"/>
<path d="M23.6191 198.939C28.4421 195.493 22.0319 183 21.9048 182.053L13.1357 185.809C10.6453 192.805 17.9719 194.606 17.9719 194.606C17.9719 194.606 14.6966 194.765 12.7105 195.575C10.7243 196.385 18.7742 202.386 23.6191 198.939Z" fill="#F4AB9D"/>
<path d="M13.1192 185.809C10.6463 192.804 17.9728 194.605 17.9728 194.605C17.9728 194.605 14.6976 194.765 12.7114 195.574" stroke="#2B4257" stroke-width="2" stroke-linecap="round" stroke-linejoin="round"/>
<path d="M181.072 146.035C181.072 146.035 181.949 143.019 179.318 142.05C176.687 141.081 165.507 144.204 165.507 144.204L164.191 159.82C171.864 169.728 190.937 160.897 192.033 158.527C193.129 156.158 181.072 146.035 181.072 146.035Z" fill="#FBC2A5"/>
<path d="M164.191 159.82C171.864 169.728 190.937 160.897 192.033 158.527" stroke="#2B4257" stroke-width="2" stroke-miterlimit="10" stroke-linecap="round"/>
<path d="M2.6258 187.553C-2.68384 151.738 10.8117 129.419 23.0708 117.004C36.1322 103.77 50.2021 98.9759 51.763 98.4805L58.5941 118.947L58.6555 118.925C58.5502 118.964 47.6942 122.677 38.2017 132.628C25.8111 145.582 21.1416 163.02 24.3204 184.456L2.6258 187.553Z" fill="#628ECC"/>
<path d="M3.7229 151.945C3.02242 154.878 2.4867 157.846 2.11816 160.837L23.4488 168.337C23.5917 165.29 23.9521 162.257 24.5274 159.26L3.7229 151.945Z" fill="#5BC0C3"/>
<path d="M2.6258 187.553C-2.68384 151.738 10.8117 129.419 23.0708 117.004" stroke="#2B4257" stroke-width="2" stroke-miterlimit="10" stroke-linecap="round"/>
<path d="M245.808 305.036C191.164 238.437 118.614 209.489 117.886 209.205L127.633 185.197C128.452 185.516 148.02 193.257 174.876 209.877C199.574 225.161 235.483 251.266 266.288 288.813L245.808 305.036Z" fill="#FBC2A5"/>
<path d="M126.396 212.965C131.148 215.192 137.677 218.432 145.442 222.731L157.28 199.594C156.403 199.12 155.555 198.659 154.737 198.211L126.396 212.965Z" fill="#2B4257"/>
<path d="M121.771 355.394L102.523 337.775C118.544 320.879 129.269 305.746 134.403 292.788C138.108 283.432 138.788 275.432 136.385 269.013C130.19 252.372 102.708 245.553 93.5703 244.459L96.7009 218.836C105.69 220.096 114.495 222.398 122.933 225.694C142.339 233.31 155.532 245.23 161.079 260.156C165.731 272.649 164.998 286.796 158.886 302.183C152.568 318.2 140.072 336.112 121.771 355.394Z" fill="#FBC2A5"/>
<path d="M139.551 234.251C134.344 230.814 128.772 227.944 122.933 225.691C118.713 224.042 114.395 222.644 110.003 221.504L95.4513 229.081L93.5703 244.495C100.257 245.283 116.769 249.147 127.572 257.685L139.551 234.251Z" fill="#2B4257"/>
<path d="M67.083 381H199.811" stroke="#2B4257" stroke-width="2" stroke-miterlimit="10" stroke-linecap="round"/>
<path d="M208.467 381H213.373" stroke="#2B4257" stroke-width="2" stroke-miterlimit="10" stroke-linecap="round"/>
<path d="M80.3606 52.9336C80.3606 52.9336 91.3789 56.0481 98.1047 65.5253C104.831 75.0025 125.289 58.3528 133.909 71.1987C137.416 76.3896 141.665 77.8801 145.523 77.8155C146.435 77.7972 147.336 78.0098 148.139 78.4328C148.943 78.8558 149.622 79.4749 150.111 80.2306C150.601 80.9863 150.884 81.853 150.933 82.7473C150.983 83.6417 150.797 84.5335 150.394 85.3369L140.998 103.994C135.448 115.035 120.027 117.008 112.104 107.466C111.933 107.264 111.767 107.057 111.605 106.842C102.397 94.9261 95.3819 103.46 78.997 98.0794C68.1892 94.5298 70.3201 88.3869 62.5814 90.4072C54.8427 92.4276 54.4043 68.2392 54.4043 68.2392" fill="#2B4257"/>
<path d="M80.3606 52.9336C80.3606 52.9336 91.3789 56.0481 98.1047 65.5253C104.831 75.0025 125.289 58.3528 133.909 71.1987C137.416 76.3896 141.665 77.8801 145.523 77.8155C146.435 77.7972 147.336 78.0098 148.139 78.4328C148.943 78.8558 149.622 79.4749 150.111 80.2306C150.601 80.9863 150.884 81.853 150.933 82.7473C150.983 83.6417 150.797 84.5335 150.394 85.3369L140.998 103.994C135.448 115.035 120.027 117.008 112.104 107.466C111.933 107.264 111.767 107.057 111.605 106.842C102.397 94.9261 95.3819 103.46 78.997 98.0794C68.1892 94.5298 70.3201 88.3869 62.5814 90.4072C54.8427 92.4276 54.4043 68.2392 54.4043 68.2392" stroke="#586977" stroke-width="2" stroke-miterlimit="10" stroke-linecap="round"/>
<path d="M51.0479 97.5724L64.9818 97.7447V83.6625L51.0479 82.1289V97.5724Z" fill="#FBC2A5"/>
<path d="M51.0479 82.1289V97.5724" stroke="#2B4257" stroke-width="2" stroke-miterlimit="10" stroke-linecap="round"/>
<path d="M64.9826 91.0455C60.9664 90.3735 58.0156 88.1291 58.0156 85.4669C58.0199 84.8053 58.1966 84.1557 58.5286 83.5801L64.9826 83.6619V91.0455Z" fill="#2B4257"/>
<path d="M76.0601 57.4922L73.5127 77.1789H78.9977L76.0601 57.4922Z" fill="#F39B92"/>
<path d="M78.9967 77.1789L76.0547 57.4922" stroke="#FFF1D7" stroke-width="2" stroke-miterlimit="10" stroke-linecap="round"/>
<path d="M73.5127 77.1777H78.9977" stroke="#2B4257" stroke-width="2" stroke-miterlimit="10" stroke-linecap="round"/>
<path d="M64.9834 97.7443V83.6621" stroke="#FFF1D7" stroke-width="2" stroke-miterlimit="10" stroke-linecap="round"/>
<path d="M54.9989 57.4922H76.0446V79.7937C76.0446 80.9619 75.8104 82.1187 75.3554 83.1979C74.9004 84.2772 74.2335 85.2578 73.3927 86.0839C72.552 86.9099 71.5539 87.5652 70.4554 88.0122C69.3569 88.4593 68.1796 88.6894 66.9906 88.6894H65.7366C61.8585 88.6894 58.1393 87.1757 55.397 84.4815C52.6548 81.7872 51.1143 78.133 51.1143 74.3228V61.3003C51.1143 60.2903 51.5226 59.3217 52.2495 58.6076C52.9764 57.8934 53.9622 57.4922 54.9902 57.4922H54.9989Z" fill="#FBC2A5"/>
<path d="M88.0026 61.5757C87.7089 50.9483 69.8683 50.0868 60.5951 53.0333C60.5951 53.0333 50.2959 53.533 46.9329 60.7141C43.57 67.8953 51.1245 85.1523 51.1245 85.1523L56.6052 77.1097L60.161 73.0819C60.161 73.0819 61.7394 72.2203 62.7566 69.6356C63.2976 68.2988 64.2202 67.144 65.4135 66.3103C66.6067 65.4765 68.0197 64.9992 69.4825 64.9358C70.6736 64.8814 71.8576 64.7243 73.0208 64.4662C75.178 63.9622 76.2872 64.5739 76.8572 65.3063C77.9093 66.737 79.4747 67.7223 81.2374 68.0633C84.346 68.5845 88.178 67.9513 88.0026 61.5757Z" fill="#2B4257"/>
<path d="M76.8525 65.2891C77.9025 66.7272 79.4701 67.719 81.2371 68.0633" stroke="#586977" stroke-width="2" stroke-miterlimit="10" stroke-linecap="round"/>
<path d="M60.1611 73.0872C60.1611 73.0872 61.7396 72.2256 62.7568 69.6409C63.2978 68.3041 64.2204 67.1493 65.4136 66.3156C66.6068 65.4818 68.0198 65.0045 69.4826 64.9411C70.6738 64.8867 71.8577 64.7296 73.0209 64.4715C75.1781 63.9675 76.2874 64.5792 76.8574 65.3116" stroke="#586977" stroke-width="2" stroke-miterlimit="10" stroke-linecap="round"/>
<path d="M76.055 77.8379V79.7893C76.0556 80.9577 75.8218 82.1147 75.367 83.1942C74.9122 84.2737 74.2453 85.2546 73.4044 86.0808C72.5636 86.9069 71.5652 87.5621 70.4665 88.009C69.3677 88.4558 68.1901 88.6855 67.001 88.685" stroke="#FFF1D7" stroke-width="2" stroke-miterlimit="10" stroke-linecap="round"/>
<path d="M68.2161 72.3711C68.3036 72.3009 68.383 72.2214 68.4529 72.1342C68.5592 72.0086 68.6938 71.9091 68.8459 71.8433C68.9981 71.7775 69.1637 71.7473 69.3298 71.7551H73.6222V74.7447C73.6222 75.1694 73.537 75.5898 73.3715 75.9821C73.2059 76.3744 72.9633 76.7307 72.6575 77.0308C72.3517 77.3309 71.9887 77.5688 71.5892 77.7309C71.1897 77.893 70.7616 77.9761 70.3294 77.9756C69.4573 77.9756 68.6209 77.6352 68.0042 77.0293C67.3875 76.4234 67.0411 75.6016 67.0411 74.7447C67.0386 74.2871 67.1433 73.835 67.3471 73.4234C67.5508 73.0118 67.8482 72.6518 68.2161 72.3711Z" fill="#F4AB9D"/>
<path d="M73.6111 71.1989C73.4226 72.4094 72.2476 73.1848 70.7217 72.991C69.7523 72.855 68.8587 72.3993 68.1875 71.6986C68.376 70.4881 69.5511 69.7127 71.0769 69.9066C72.047 70.0406 72.9412 70.4966 73.6111 71.1989Z" fill="#F7F7F7"/>
<path d="M73.6111 71.1992C73.4226 72.4097 72.2476 73.1851 70.7217 72.9913C69.7523 72.8552 68.8587 72.3995 68.1875 71.6989" stroke="#2B4257" stroke-width="2" stroke-miterlimit="10" stroke-linecap="round"/>
<path d="M71.9784 71.8145C72.1393 71.7803 72.234 71.5904 72.1899 71.3904C72.1459 71.1904 71.9797 71.0561 71.8187 71.0903C71.6578 71.1246 71.5631 71.3145 71.6072 71.5144C71.6512 71.7144 71.8174 71.8487 71.9784 71.8145Z" fill="#2B4257"/>
<path d="M65.6794 76.2301C66.9385 76.2301 67.9593 75.2272 67.9593 73.9901C67.9593 72.7529 66.9385 71.75 65.6794 71.75C64.4202 71.75 63.3994 72.7529 63.3994 73.9901C63.3994 75.2272 64.4202 76.2301 65.6794 76.2301Z" fill="#E57873"/>
<path d="M73.7136 67.7313C72.9433 67.5288 72.1321 67.5297 71.3623 67.7339C70.5924 67.9381 69.891 68.3385 69.3291 68.8944" stroke="#2B4257" stroke-width="2" stroke-miterlimit="10" stroke-linecap="round"/>
<path d="M73.6082 79.3627C73.2987 78.9816 72.8929 78.6868 72.4314 78.5077C71.9698 78.3286 71.4686 78.2714 70.9775 78.3417" stroke="#2B4257" stroke-width="2" stroke-miterlimit="10" stroke-linecap="round"/>
<path d="M56.9802 78.3247C59.0602 78.3247 60.7465 76.6679 60.7465 74.6242C60.7465 72.5806 59.0602 70.9238 56.9802 70.9238C54.9001 70.9238 53.2139 72.5806 53.2139 74.6242C53.2139 76.6679 54.9001 78.3247 56.9802 78.3247Z" fill="#FBC2A5"/>
<path d="M56.9809 76.5194C58.0464 76.5194 58.9101 75.6708 58.9101 74.6239C58.9101 73.5771 58.0464 72.7285 56.9809 72.7285C55.9155 72.7285 55.0518 73.5771 55.0518 74.6239C55.0518 75.6708 55.9155 76.5194 56.9809 76.5194Z" fill="#F4AB9D"/>
<path d="M36.707 162.107H81.9157V167.574C81.9134 173.462 79.5311 179.108 75.2926 183.271C71.0541 187.434 65.3065 189.772 59.3136 189.772C53.3199 189.773 47.5711 187.435 43.3317 183.273C39.0923 179.11 36.7094 173.463 36.707 167.574V162.107Z" fill="#5BC0C3"/>
<path d="M59.3136 95.9082C65.308 95.9082 71.057 98.2478 75.2957 102.412C79.5344 106.577 81.9157 112.225 81.9157 118.115V162.106H36.707V118.119C36.7065 115.202 37.2908 112.314 38.4267 109.619C39.5626 106.924 41.2277 104.475 43.327 102.412C45.4264 100.35 47.9187 98.7138 50.6617 97.5978C53.4048 96.4818 56.3447 95.9076 59.3136 95.9082Z" fill="#5BC0C3"/>
<path d="M78.9959 151.105L36.7073 167.574C36.7073 167.574 32.656 242 107.85 253.201L159.149 195.907L78.9959 151.105Z" fill="#5BC0C3"/>
<path d="M36.7073 167.574C36.7073 167.574 32.656 242 107.85 253.201" stroke="#2B4257" stroke-width="2" stroke-miterlimit="10" stroke-linecap="round"/>
<path d="M112.082 321.207L88.5684 347.243L109.167 377.695L112.091 365.349L137.521 347.829L112.082 321.207Z" fill="#5BC0C3"/>
<path d="M112.082 321.207L88.5684 347.243L109.167 377.695" stroke="#2B4257" stroke-width="2" stroke-miterlimit="10" stroke-linecap="round"/>
<path d="M273.146 294.123L256.046 267.992L227.727 291.526L257.304 318.484L282.792 294.123H273.146Z" fill="#5BC0C3"/>
<path d="M227.727 291.527L257.304 318.486L282.792 294.125" stroke="#2B4257" stroke-width="2" stroke-miterlimit="10" stroke-linecap="round"/>
<path d="M165.044 161.638C122.413 152.682 78.1118 134.068 58.5832 125.289C57.249 124.688 56.0511 123.831 55.0603 122.768C54.0696 121.704 53.3062 120.456 52.8156 119.098C52.3249 117.739 52.1169 116.297 52.2038 114.858C52.2908 113.419 52.671 112.012 53.3218 110.72C54.5806 108.206 56.7864 106.274 59.4713 105.332C62.1562 104.39 65.1089 104.513 67.703 105.675C86.4424 114.054 129.498 132.142 169.647 140.568L165.044 161.638Z" fill="#628ECC"/>
<path d="M139.673 155.314C142.567 156.135 145.476 156.931 148.402 157.7L154.405 136.988C151.482 136.225 148.572 135.428 145.675 134.598L139.673 155.314Z" fill="#5BC0C3"/>
<path d="M67.6836 105.67C86.423 114.049 129.479 132.137 169.628 140.563" stroke="#FFF1D7" stroke-width="2" stroke-miterlimit="10" stroke-linecap="round"/>
<path d="M165.041 161.638C122.411 152.682 78.1097 134.068 58.5811 125.289" stroke="#2B4257" stroke-width="2" stroke-miterlimit="10" stroke-linecap="round"/>
<path d="M119.982 353.141L125.976 358.31" stroke="#2B4257" stroke-width="2" stroke-miterlimit="10" stroke-linecap="round"/>
<path d="M115.766 355.127L121.759 360.296" stroke="#2B4257" stroke-width="2" stroke-miterlimit="10" stroke-linecap="round"/>
<path d="M111.551 357.113L117.544 362.283" stroke="#2B4257" stroke-width="2" stroke-miterlimit="10" stroke-linecap="round"/>
<path d="M260.724 283.502L257.655 288.241" stroke="#2B4257" stroke-width="2" stroke-miterlimit="10" stroke-linecap="round"/>
<path d="M263.795 287.508L260.726 292.246" stroke="#2B4257" stroke-width="2" stroke-miterlimit="10" stroke-linecap="round"/>
<path d="M266.863 291.518L263.794 296.256" stroke="#2B4257" stroke-width="2" stroke-miterlimit="10" stroke-linecap="round"/>
<path d="M30.0479 300.284C30.0479 300.284 39.457 256.922 90.2691 291.526C141.081 326.131 199.812 273.791 199.812 273.791" stroke="#2B4257" stroke-width="2" stroke-miterlimit="10" stroke-linecap="round" stroke-dasharray="8 8"/>
<path d="M235.133 245.114C235.133 245.114 301.093 191.068 292.772 161.353C284.45 131.638 240.596 191.464 292.772 199.998C344.947 208.532 363.362 129.01 363.362 129.01" stroke="#2B4257" stroke-width="2" stroke-miterlimit="10" stroke-linecap="round" stroke-dasharray="8 8"/>
<path d="M348.933 59.7062C367.62 62.8509 362.81 79.6944 362.81 79.6944L360.815 82.1972C360.815 82.1972 359.741 81.6372 357.474 81.8569C355.207 82.0766 356.974 79.5996 356.974 79.5996C356.22 80.2305 355.345 80.7077 354.401 81.0035C353.457 81.2993 352.463 81.4078 351.476 81.3228C348.245 81.0471 352.103 77.7645 352.353 77.5448C352.05 77.7947 346.491 82.3523 343.145 80.1769C339.69 77.9454 344.627 74.6457 344.627 74.6457C344.627 74.6457 337.77 79.0181 334.543 77.2303C331.316 75.4426 339.625 70.7686 339.625 70.7686C339.625 70.7686 332 72.7287 328.014 70.1698C324.029 67.611 336.481 65.1125 336.481 65.1125C336.481 65.1125 326.072 62.1315 323.797 59.3098C321.521 56.4882 330.246 56.5572 348.933 59.7062Z" fill="#2B4257"/>
<path d="M349.529 66.3152L355.584 66.6727C355.584 66.6727 355.948 88.1213 368.79 95.5351L353.515 103.147L368.961 116.251C368.961 116.251 381.913 81.7888 371.013 66.634C365.866 59.4744 355.036 59.4098 349.529 66.3152Z" fill="#7296A3"/>
<path d="M353.515 103.146L368.961 116.25C368.961 116.25 381.913 81.7877 371.013 66.6328" stroke="#2B4257" stroke-width="2" stroke-miterlimit="10" stroke-linecap="round"/>
<path d="M357.522 61.4727C354.354 62.0949 351.518 63.8129 349.529 66.3146L355.584 66.6722C355.584 66.6722 355.584 66.9048 355.584 67.3184C356.837 65.6883 357.513 63.7005 357.509 61.6579C357.527 61.6019 357.522 61.5373 357.522 61.4727Z" fill="#E57873"/>
<path d="M358.346 65.4357C360.012 65.4357 361.362 64.6661 361.362 63.7169C361.362 62.7676 360.012 61.998 358.346 61.998C356.68 61.998 355.329 62.7676 355.329 63.7169C355.329 64.6661 356.68 65.4357 358.346 65.4357Z" fill="white"/>
<path d="M355.334 63.7168C355.637 64.2398 356.075 64.6747 356.605 64.9772C357.134 65.2798 357.736 65.4391 358.348 65.4391C358.961 65.4391 359.562 65.2798 360.092 64.9772C360.621 64.6747 361.06 64.2398 361.363 63.7168" stroke="#2B4257" stroke-width="2" stroke-miterlimit="10" stroke-linecap="round"/>
<path d="M358.346 64.3664C358.549 64.3664 358.714 64.0868 358.714 63.7418C358.714 63.3968 358.549 63.1172 358.346 63.1172C358.142 63.1172 357.978 63.3968 357.978 63.7418C357.978 64.0868 358.142 64.3664 358.346 64.3664Z" fill="#354B5F"/>
<path d="M382.675 55.3607C391.006 72.1009 374.261 78.1017 374.261 78.1017L371.052 77.9724C371.052 77.9724 370.885 76.7878 369.377 75.1077C367.869 73.4277 370.951 73.3846 370.951 73.3846C369.989 73.1525 369.083 72.7347 368.287 72.1556C367.491 71.5766 366.82 70.8478 366.312 70.0116C364.651 67.2718 369.618 68.4349 369.952 68.5168C369.566 68.422 362.559 66.6472 362.393 62.7012C362.222 58.6433 367.829 60.655 367.829 60.655C367.829 60.655 360.214 57.7343 359.823 54.1244C359.433 50.5145 368.128 54.4044 368.128 54.4044C368.128 54.4044 362.037 49.472 361.845 44.8023C361.652 40.1326 370.969 48.6018 370.969 48.6018C370.969 48.6018 367.351 38.5603 368.338 35.0968C369.325 31.6333 374.362 38.6163 382.675 55.3607Z" fill="#7296A3"/>
<path d="M369.356 75.1023C367.852 73.4223 370.93 73.3792 370.93 73.3792C369.968 73.147 369.062 72.7293 368.266 72.1502C367.469 71.5712 366.798 70.8424 366.291 70.0062C364.629 67.2664 369.597 68.4295 369.93 68.5114C369.544 68.4166 362.538 66.6418 362.371 62.6958C362.2 58.6379 367.808 60.6496 367.808 60.6496C367.808 60.6496 360.192 57.7289 359.802 54.119C359.412 50.509 368.106 54.399 368.106 54.399C368.106 54.399 362.038 49.4709 361.845 44.8012C361.652 40.1315 370.969 48.6007 370.969 48.6007C370.969 48.6007 367.352 38.5592 368.338 35.0957" stroke="white" stroke-width="2" stroke-miterlimit="10" stroke-linecap="round"/>
</svg>
