<svg width="919" height="312" viewBox="0 0 919 312" fill="none" xmlns="http://www.w3.org/2000/svg">
<path d="M73.8897 279.279C64.7697 279.279 56.1057 278.139 47.8977 275.859C39.6897 273.427 32.3177 269.931 25.7817 265.371C19.3977 260.811 14.3057 255.187 10.5057 248.499C6.85769 241.811 4.95769 234.059 4.80569 225.243C4.80569 223.875 5.26169 222.735 6.17369 221.823C7.08569 220.759 8.22569 220.227 9.59369 220.227H48.3537C50.7857 220.227 52.5337 220.759 53.5977 221.823C54.8137 222.887 55.8777 224.635 56.7897 227.067C57.8537 230.107 59.1457 232.691 60.6657 234.819C62.3377 236.795 64.3897 238.239 66.8217 239.151C69.2537 240.063 72.0657 240.519 75.2577 240.519C81.1857 240.519 85.7457 238.619 88.9377 234.819C92.2817 231.019 93.9537 225.015 93.9537 216.807V157.527H23.0457C21.3737 157.527 19.9297 156.995 18.7137 155.931C17.6497 154.715 17.1177 153.271 17.1177 151.599V123.327C17.1177 121.655 17.6497 120.287 18.7137 119.223C19.9297 118.007 21.3737 117.399 23.0457 117.399H138.642C140.314 117.399 141.682 118.007 142.746 119.223C143.962 120.287 144.57 121.655 144.57 123.327V218.403C144.57 231.931 141.454 243.255 135.222 252.375C129.142 261.343 120.706 268.107 109.914 272.667C99.2737 277.075 87.2657 279.279 73.8897 279.279ZM228.598 279.279C215.222 279.279 203.898 277.303 194.626 273.351C185.506 269.399 178.514 263.623 173.65 256.023C168.786 248.271 166.05 238.999 165.442 228.207C165.29 225.015 165.214 221.519 165.214 217.719C165.214 213.919 165.29 210.423 165.442 207.231C166.05 196.287 168.938 187.015 174.106 179.415C179.274 171.815 186.418 166.039 195.538 162.087C204.81 158.135 215.83 156.159 228.598 156.159C241.366 156.159 252.31 158.135 261.43 162.087C270.702 166.039 277.922 171.815 283.09 179.415C288.258 187.015 291.146 196.287 291.754 207.231C292.058 210.423 292.21 213.919 292.21 217.719C292.21 221.519 292.058 225.015 291.754 228.207C291.146 238.999 288.41 248.271 283.546 256.023C278.682 263.623 271.614 269.399 262.342 273.351C253.222 277.303 241.974 279.279 228.598 279.279ZM228.598 247.131C234.222 247.131 238.098 245.459 240.226 242.115C242.354 238.771 243.57 233.755 243.874 227.067C244.026 224.787 244.102 221.671 244.102 217.719C244.102 213.767 244.026 210.651 243.874 208.371C243.57 201.835 242.354 196.895 240.226 193.551C238.098 190.055 234.222 188.307 228.598 188.307C223.126 188.307 219.326 190.055 217.198 193.551C215.07 196.895 213.778 201.835 213.322 208.371C213.17 210.651 213.094 213.767 213.094 217.719C213.094 221.671 213.17 224.787 213.322 227.067C213.778 233.755 215.07 238.771 217.198 242.115C219.326 245.459 223.126 247.131 228.598 247.131ZM390.473 279.279C382.265 279.279 375.349 277.987 369.725 275.403C364.253 272.667 359.617 269.095 355.817 264.687V271.071C355.817 272.743 355.209 274.187 353.993 275.403C352.929 276.467 351.561 276.999 349.889 276.999H317.741C316.069 276.999 314.625 276.467 313.409 275.403C312.345 274.187 311.813 272.743 311.813 271.071V121.047C311.813 119.375 312.345 118.007 313.409 116.943C314.625 115.727 316.069 115.119 317.741 115.119H352.853C354.373 115.119 355.741 115.727 356.957 116.943C358.173 118.007 358.781 119.375 358.781 121.047V168.243C362.429 164.595 366.837 161.707 372.005 159.579C377.325 157.299 383.481 156.159 390.473 156.159C397.617 156.159 404.077 157.375 409.853 159.807C415.629 162.087 420.645 165.431 424.901 169.839C429.157 174.247 432.501 179.795 434.933 186.483C437.365 193.019 438.733 200.543 439.037 209.055C439.189 212.247 439.265 215.059 439.265 217.491C439.265 219.923 439.189 222.811 439.037 226.155C438.581 235.123 437.137 242.951 434.705 249.639C432.273 256.327 428.929 261.875 424.673 266.283C420.417 270.691 415.401 273.959 409.625 276.087C404.001 278.215 397.617 279.279 390.473 279.279ZM374.969 243.711C378.921 243.711 381.961 242.951 384.089 241.431C386.369 239.759 387.965 237.555 388.877 234.819C389.941 231.931 390.625 228.663 390.929 225.015C391.385 220.151 391.385 215.287 390.929 210.423C390.625 206.775 389.941 203.583 388.877 200.847C387.965 197.959 386.369 195.755 384.089 194.235C381.961 192.563 378.921 191.727 374.969 191.727C371.169 191.727 368.129 192.487 365.849 194.007C363.569 195.527 361.821 197.503 360.605 199.935C359.541 202.367 358.933 205.179 358.781 208.371C358.629 211.563 358.553 214.375 358.553 216.807C358.553 219.239 358.629 222.127 358.781 225.471C358.933 228.815 359.465 231.855 360.377 234.591C361.441 237.327 363.113 239.531 365.393 241.203C367.825 242.875 371.017 243.711 374.969 243.711ZM524.647 279.279C508.687 279.279 495.387 277.075 484.747 272.667C474.259 268.107 466.355 262.255 461.035 255.111C455.867 247.815 453.131 240.139 452.827 232.083C452.827 230.715 453.283 229.575 454.195 228.663C455.107 227.751 456.247 227.295 457.615 227.295H493.867C495.995 227.295 497.667 227.675 498.883 228.435C500.099 229.043 501.391 229.955 502.759 231.171C504.127 232.843 505.723 234.439 507.547 235.959C509.371 237.327 511.727 238.467 514.615 239.379C517.503 240.139 520.847 240.519 524.647 240.519C531.639 240.519 537.035 239.607 540.835 237.783C544.635 235.807 546.535 233.147 546.535 229.803C546.535 227.219 545.471 225.091 543.343 223.419C541.367 221.747 537.947 220.227 533.083 218.859C528.219 217.491 521.607 216.047 513.247 214.527C501.543 212.551 491.435 209.663 482.923 205.863C474.411 201.911 467.875 196.667 463.315 190.131C458.907 183.443 456.703 175.235 456.703 165.507C456.703 155.627 459.439 146.887 464.911 139.287C470.535 131.687 478.287 125.759 488.167 121.503C498.199 117.247 509.827 115.119 523.051 115.119C533.995 115.119 543.647 116.563 552.007 119.451C560.519 122.339 567.663 126.139 573.439 130.851C579.215 135.411 583.623 140.351 586.663 145.671C589.703 150.991 591.299 156.083 591.451 160.947C591.451 162.315 590.919 163.531 589.855 164.595C588.943 165.507 587.879 165.963 586.663 165.963H548.587C546.763 165.963 545.167 165.659 543.799 165.051C542.583 164.443 541.443 163.455 540.379 162.087C539.619 159.959 537.719 158.059 534.679 156.387C531.639 154.715 527.763 153.879 523.051 153.879C517.883 153.879 513.931 154.791 511.195 156.615C508.459 158.287 507.091 160.795 507.091 164.139C507.091 166.419 507.927 168.395 509.599 170.067C511.271 171.739 514.235 173.259 518.491 174.627C522.747 175.843 528.675 177.211 536.275 178.731C550.715 180.859 562.343 183.899 571.159 187.851C580.127 191.803 586.663 196.971 590.767 203.355C594.871 209.739 596.923 217.719 596.923 227.295C596.923 238.087 593.807 247.359 587.575 255.111C581.343 262.863 572.755 268.867 561.811 273.123C551.019 277.227 538.631 279.279 524.647 279.279ZM620.108 276.999C618.436 276.999 616.992 276.467 615.776 275.403C614.712 274.187 614.18 272.743 614.18 271.071V164.367C614.18 162.695 614.712 161.327 615.776 160.263C616.992 159.047 618.436 158.439 620.108 158.439H653.852C655.524 158.439 656.968 159.047 658.184 160.263C659.4 161.327 660.008 162.695 660.008 164.367V271.071C660.008 272.743 659.4 274.187 658.184 275.403C656.968 276.467 655.524 276.999 653.852 276.999H620.108ZM620.564 143.619C618.892 143.619 617.448 143.087 616.232 142.023C615.168 140.807 614.636 139.363 614.636 137.691V113.751C614.636 112.079 615.168 110.635 616.232 109.419C617.448 108.203 618.892 107.595 620.564 107.595H653.396C655.068 107.595 656.512 108.203 657.728 109.419C658.944 110.635 659.552 112.079 659.552 113.751V137.691C659.552 139.363 658.944 140.807 657.728 142.023C656.512 143.087 655.068 143.619 653.396 143.619H620.564ZM703.718 276.999C702.046 276.999 700.602 276.467 699.386 275.403C698.322 274.187 697.79 272.743 697.79 271.071V193.323H681.146C679.474 193.323 678.03 192.791 676.814 191.727C675.75 190.511 675.218 189.067 675.218 187.395V164.367C675.218 162.695 675.75 161.327 676.814 160.263C678.03 159.047 679.474 158.439 681.146 158.439H697.79V152.967C697.79 141.415 700.07 132.447 704.63 126.063C709.342 119.527 715.802 114.967 724.01 112.383C732.218 109.647 741.642 108.279 752.282 108.279H771.662C773.334 108.279 774.778 108.887 775.994 110.103C777.21 111.167 777.818 112.535 777.818 114.207V137.235C777.818 138.907 777.21 140.351 775.994 141.567C774.778 142.631 773.334 143.163 771.662 143.163H754.562C750.306 143.163 747.266 144.151 745.442 146.127C743.618 147.951 742.706 150.611 742.706 154.107V158.439H769.382C771.054 158.439 772.498 159.047 773.714 160.263C774.93 161.327 775.538 162.695 775.538 164.367V187.395C775.538 189.067 774.93 190.511 773.714 191.727C772.498 192.791 771.054 193.323 769.382 193.323H742.706V271.071C742.706 272.743 742.098 274.187 740.882 275.403C739.818 276.467 738.45 276.999 736.778 276.999H703.718ZM856.888 276.999C846.552 276.999 837.432 275.479 829.528 272.439C821.776 269.399 815.696 264.459 811.288 257.619C807.032 250.627 804.904 241.431 804.904 230.031V193.323H786.892C785.22 193.323 783.776 192.791 782.56 191.727C781.496 190.511 780.964 189.067 780.964 187.395V164.367C780.964 162.695 781.496 161.327 782.56 160.263C783.776 159.047 785.22 158.439 786.892 158.439H804.904V121.047C804.904 119.375 805.436 118.007 806.5 116.943C807.716 115.727 809.16 115.119 810.832 115.119H843.892C845.564 115.119 846.932 115.727 847.996 116.943C849.212 118.007 849.82 119.375 849.82 121.047V158.439H878.548C880.22 158.439 881.588 159.047 882.652 160.263C883.868 161.327 884.476 162.695 884.476 164.367V187.395C884.476 189.067 883.868 190.511 882.652 191.727C881.588 192.791 880.22 193.323 878.548 193.323H849.82V226.155C849.82 230.563 850.732 234.059 852.556 236.643C854.38 239.075 857.268 240.291 861.22 240.291H880.372C882.044 240.291 883.412 240.899 884.476 242.115C885.692 243.179 886.3 244.547 886.3 246.219V271.071C886.3 272.743 885.692 274.187 884.476 275.403C883.412 276.467 882.044 276.999 880.372 276.999H856.888Z" fill="black"/>
<path d="M876 -3.75918e-06C899.736 -1.68411e-06 919 19.264 919 43C919 66.736 899.736 86 876 86C852.264 86 833 66.736 833 43C833 19.264 852.264 -5.83425e-06 876 -3.75918e-06ZM876 8.59999C856.994 8.59999 841.6 23.994 841.6 43C841.6 62.006 856.994 77.4 876 77.4C895.006 77.4 910.4 62.006 910.4 43C910.4 23.994 895.006 8.6 876 8.59999ZM876 21.5C883.824 21.5 890.676 25.686 894.437 31.9391L887.066 36.3642C884.811 32.6103 880.7 30.1 876 30.1C868.873 30.1 863.1 35.8727 863.1 43C863.1 50.1272 868.873 55.9 876 55.9C880.698 55.9 884.808 53.3914 887.064 49.6401L894.437 54.0608C890.676 60.3139 883.824 64.5 876 64.5C864.132 64.5 854.5 54.868 854.5 43C854.5 31.132 864.132 21.5 876 21.5Z" fill="black"/>
</svg>
