<svg width="93" height="93" viewBox="0 0 93 93" fill="none" xmlns="http://www.w3.org/2000/svg">
<path d="M20.6497 12.6782C25.4279 10.9795 30.9683 12.0424 34.7928 15.8669C39.1363 20.2104 39.9179 26.7671 37.1373 31.907L78.6334 73.4077L73.1534 78.8877L31.6562 37.3898C26.5157 40.1726 19.957 39.3918 15.6125 35.0472C11.7869 31.2216 10.7245 25.6791 12.4253 20.9L21.0926 29.5671C23.3625 31.837 27.0428 31.837 29.3127 29.5671C31.5826 27.2972 31.5826 23.6169 29.3127 21.347L20.6497 12.6782ZM60.8232 19.9769L73.1534 13.1269L78.6334 18.6069L71.7832 30.9371L64.9334 32.3071L56.713 40.5271L51.2329 35.0472L59.453 26.8271L60.8232 19.9769ZM34.7928 51.4872L40.2729 56.9676L19.7226 77.5179C18.2093 79.0311 15.7558 79.0311 14.2425 77.5179C12.8373 76.1124 12.7369 73.8967 13.9414 72.3758L14.2425 72.0379L34.7928 51.4872Z" fill="black"/>
</svg>
