<svg width="93" height="93" viewBox="0 0 93 93" fill="none" xmlns="http://www.w3.org/2000/svg">
<path d="M46.5 80.9856L65.6801 61.8051C76.2732 51.2124 76.2732 34.0377 65.6801 23.4447C55.0874 12.8517 37.9127 12.8517 27.3197 23.4447C16.7267 34.0377 16.7267 51.2124 27.3197 61.8051L46.5 80.9856ZM46.5 91.9456L21.8397 67.2855C8.22011 53.6656 8.22011 31.5842 21.8397 17.9647C35.4592 4.34511 57.5407 4.34511 71.1605 17.9647C84.78 31.5842 84.78 53.6656 71.1605 67.2855L46.5 91.9456ZM46.5 50.375C50.7803 50.375 54.25 46.9053 54.25 42.625C54.25 38.3448 50.7803 34.875 46.5 34.875C42.2197 34.875 38.75 38.3448 38.75 42.625C38.75 46.9053 42.2197 50.375 46.5 50.375ZM46.5 58.125C37.9396 58.125 31 51.1853 31 42.625C31 34.0646 37.9396 27.125 46.5 27.125C55.0603 27.125 62 34.0646 62 42.625C62 51.1853 55.0603 58.125 46.5 58.125Z" fill="black"/>
</svg>
