<svg width="93" height="93" viewBox="0 0 93 93" fill="none" xmlns="http://www.w3.org/2000/svg">
<path d="M46.5196 85.2616C25.1185 85.2616 7.76953 67.9128 7.76953 46.5116C7.76953 25.1107 25.1185 7.76172 46.5196 7.76172C67.9205 7.76172 85.2696 25.1107 85.2696 46.5116C85.2696 67.9128 67.9205 85.2616 46.5196 85.2616ZM46.5196 77.5116C63.6405 77.5116 77.5196 63.6325 77.5196 46.5116C77.5196 29.3909 63.6405 15.5117 46.5196 15.5117C29.3987 15.5117 15.5195 29.3909 15.5195 46.5116C15.5195 63.6325 29.3987 77.5116 46.5196 77.5116ZM32.957 54.2616H54.2696C55.3395 54.2616 56.2071 53.3944 56.2071 52.3241C56.2071 51.2542 55.3395 50.3866 54.2696 50.3866H38.7696C33.4193 50.3866 29.082 46.0493 29.082 40.6991C29.082 35.349 33.4193 31.0117 38.7696 31.0117H42.6446V23.2617H50.3946V31.0117H60.0821V38.7616H38.7696C37.6995 38.7616 36.832 39.6292 36.832 40.6991C36.832 41.7694 37.6995 42.6366 38.7696 42.6366H54.2696C59.6198 42.6366 63.9571 46.9739 63.9571 52.3241C63.9571 57.6743 59.6198 62.0116 54.2696 62.0116H50.3946V69.7616H42.6446V62.0116H32.957V54.2616Z" fill="black"/>
</svg>
