<svg width="93" height="93" viewBox="0 0 93 93" fill="none" xmlns="http://www.w3.org/2000/svg">
<path d="M23.25 77.5C18.9875 77.5 15.3385 75.9823 12.3031 72.9469C9.26771 69.9115 7.75 66.2625 7.75 62V31C7.75 26.7375 9.26771 23.0885 12.3031 20.0531C15.3385 17.0177 18.9875 15.5 23.25 15.5H69.75C74.0125 15.5 77.6615 17.0177 80.6969 20.0531C83.7323 23.0885 85.25 26.7375 85.25 31V62C85.25 66.2625 83.7323 69.9115 80.6969 72.9469C77.6615 75.9823 74.0125 77.5 69.75 77.5H23.25ZM23.25 31H69.75C71.1708 31 72.5271 31.1615 73.8187 31.4844C75.1104 31.8073 76.3375 32.324 77.5 33.0344V31C77.5 28.8687 76.7405 27.0436 75.2215 25.5246C73.7025 24.0056 71.8787 23.2474 69.75 23.25H23.25C21.1187 23.25 19.2936 24.0095 17.7746 25.5285C16.2556 27.0475 15.4974 28.8713 15.5 31V33.0344C16.6625 32.324 17.8896 31.8073 19.1812 31.4844C20.4729 31.1615 21.8292 31 23.25 31ZM16.0813 43.5938L59.1906 54.0562C59.7719 54.1854 60.3531 54.1854 60.9344 54.0562C61.5156 53.9271 62.0646 53.6688 62.5812 53.2812L76.0469 42.0438C75.3365 41.075 74.4323 40.2832 73.3344 39.6684C72.2365 39.0535 71.0417 38.7474 69.75 38.75H23.25C21.5708 38.75 20.1022 39.1866 18.8441 40.0598C17.586 40.9329 16.6651 42.1109 16.0813 43.5938Z" fill="black"/>
</svg>
