<svg width="93" height="93" viewBox="0 0 93 93" fill="none" xmlns="http://www.w3.org/2000/svg">
<path d="M15.5 85.25C15.5 68.1291 29.3792 54.25 46.5 54.25C63.6209 54.25 77.5 68.1291 77.5 85.25H15.5ZM50.375 62.3216V77.5H68.4271C65.6514 69.6473 58.7775 63.731 50.375 62.3216ZM42.625 77.5V62.3216C34.2226 63.731 27.3484 69.6473 24.573 77.5H42.625ZM46.5 50.375C33.6544 50.375 23.25 39.9706 23.25 27.125C23.25 14.2794 33.6544 3.875 46.5 3.875C59.3456 3.875 69.75 14.2794 69.75 27.125C69.75 39.9706 59.3456 50.375 46.5 50.375ZM46.5 42.625C55.0653 42.625 62 35.6904 62 27.125C62 18.5596 55.0653 11.625 46.5 11.625C37.9346 11.625 31 18.5596 31 27.125C31 35.6904 37.9346 42.625 46.5 42.625Z" fill="black"/>
</svg>
