<svg width="113" height="113" viewBox="0 0 113 113" fill="none" xmlns="http://www.w3.org/2000/svg">
<path d="M59.8898 50.8498C57.6298 50.2848 55.3698 49.1548 53.6748 47.4598C51.9798 46.8948 51.4148 45.1998 51.4148 44.0698C51.4148 42.9398 51.9798 41.2448 53.1098 40.6798C54.8048 39.5498 56.4998 38.4198 58.1948 38.9848C61.5848 38.9848 64.4098 40.6798 66.1048 42.9398L71.1898 36.1598C69.4948 34.4648 67.7998 33.3348 66.1048 32.2048C64.4098 31.0748 62.1498 30.5098 59.8898 30.5098V22.5998H53.1098V30.5098C50.2848 31.0748 47.4598 32.7698 45.1998 35.0298C42.9398 37.8548 41.2448 41.2448 41.8098 44.6348C41.8098 48.0248 42.9398 51.4148 45.1998 53.6748C48.0248 56.4998 51.9798 58.1948 55.3698 59.8898C57.0648 60.4548 59.3248 61.5848 61.0198 62.7148C62.1498 63.8448 62.7148 65.5398 62.7148 67.2348C62.7148 68.9298 62.1498 70.6248 61.0198 72.3198C59.3248 74.0148 57.0648 74.5798 55.3698 74.5798C53.1098 74.5798 50.2848 74.0148 48.5898 72.3198C46.8948 71.1898 45.1998 69.4948 44.0698 67.7998L38.4198 74.0148C40.1148 76.2748 41.8098 77.9698 44.0698 79.6648C46.8948 81.3598 50.2848 83.0548 53.6748 83.0548V90.3998H59.8898V81.9248C63.2798 81.3598 66.1048 79.6648 68.3648 77.4048C71.1898 74.5798 72.8848 70.0598 72.8848 66.1048C72.8848 62.7148 71.7548 58.7598 68.9298 56.4998C66.1048 53.6748 63.2798 51.9798 59.8898 50.8498ZM56.4998 11.2998C31.6398 11.2998 11.2998 31.6398 11.2998 56.4998C11.2998 81.3598 31.6398 101.7 56.4998 101.7C81.3598 101.7 101.7 81.3598 101.7 56.4998C101.7 31.6398 81.3598 11.2998 56.4998 11.2998ZM56.4998 95.4848C35.0298 95.4848 17.5148 77.9698 17.5148 56.4998C17.5148 35.0298 35.0298 17.5148 56.4998 17.5148C77.9698 17.5148 95.4848 35.0298 95.4848 56.4998C95.4848 77.9698 77.9698 95.4848 56.4998 95.4848Z" fill="white"/>
</svg>
