<svg width="113" height="113" viewBox="0 0 113 113" fill="none" xmlns="http://www.w3.org/2000/svg">
<circle cx="56.5" cy="56.5" r="56.5" fill="white"/>
<path d="M44.2493 40.0837V32.8337C44.2493 31.499 45.3313 30.417 46.666 30.417H65.9993C67.3341 30.417 68.416 31.499 68.416 32.8337V40.0837H78.0827C79.4174 40.0837 80.4993 41.1656 80.4993 42.5003V76.3337C80.4993 77.6684 79.4174 78.7503 78.0827 78.7503H34.5827C33.248 78.7503 32.166 77.6684 32.166 76.3337V42.5003C32.166 41.1656 33.248 40.0837 34.5827 40.0837H44.2493ZM49.0827 59.417H36.9993V73.917H75.666V59.417H63.5827V66.667H49.0827V59.417ZM75.666 44.917H36.9993V54.5837H49.0827V49.7503H63.5827V54.5837H75.666V44.917ZM53.916 54.5837V61.8337H58.7493V54.5837H53.916ZM49.0827 35.2503V40.0837H63.5827V35.2503H49.0827Z" fill="black"/>
</svg>
