<svg width="113" height="113" viewBox="0 0 113 113" fill="none" xmlns="http://www.w3.org/2000/svg">
<path d="M63.728 105.938L70.7905 113H14.125V14.125H42.375C42.375 12.1755 42.7428 10.3547 43.4785 8.6626C44.2142 6.97054 45.2257 5.4624 46.5132 4.13818C47.8006 2.81396 49.2904 1.80241 50.9824 1.10352C52.6745 0.404622 54.5137 0.0367839 56.5 0C58.4495 0 60.2703 0.367839 61.9624 1.10352C63.6545 1.83919 65.1626 2.85075 66.4868 4.13818C67.811 5.42562 68.8226 6.91536 69.5215 8.60742C70.2204 10.2995 70.5882 12.1387 70.625 14.125H98.875V70.7905L91.8125 77.853V21.1875H84.75V35.3125H28.25V21.1875H21.1875V105.938H63.728ZM35.3125 21.1875V28.25H77.6875V21.1875H63.5625V14.125C63.5625 13.1318 63.3786 12.2122 63.0107 11.3662C62.6429 10.5202 62.1463 9.7845 61.521 9.15918C60.8957 8.53385 60.1416 8.01888 59.2588 7.61426C58.376 7.20964 57.4564 7.02572 56.5 7.0625C55.5068 7.0625 54.5872 7.24642 53.7412 7.61426C52.8952 7.9821 52.1595 8.47868 51.5342 9.104C50.9089 9.72933 50.3939 10.4834 49.9893 11.3662C49.5846 12.249 49.4007 13.1686 49.4375 14.125V21.1875H35.3125ZM111.952 80.1704L81.2188 110.958L66.3765 96.061L71.3423 91.0952L81.2188 100.917L106.986 75.2046L111.952 80.1704Z" fill="white"/>
</svg>
