<svg width="93" height="93" viewBox="0 0 93 93" fill="none" xmlns="http://www.w3.org/2000/svg">
<path d="M44.5 6C68.3174 6 87.625 25.3077 87.625 49.125C87.625 50.3884 87.5706 51.639 87.4641 52.875H81.8148C79.9334 71.8249 63.9449 86.625 44.5 86.625C23.7893 86.625 7 69.8355 7 49.125C7 29.6799 21.8001 13.6916 40.75 11.8102V6.16079C41.986 6.05433 43.2366 6 44.5 6ZM40.75 19.3571C25.9513 21.2025 14.5 33.8264 14.5 49.125C14.5 65.6936 27.9314 79.125 44.5 79.125C59.7985 79.125 72.4225 67.6736 74.2679 52.875H40.75V19.3571ZM48.25 13.695V45.375H79.93C78.1851 28.6949 64.93 15.4399 48.25 13.695Z" fill="black"/>
</svg>
