<svg width="93" height="94" viewBox="0 0 93 94" fill="none" xmlns="http://www.w3.org/2000/svg">
<path d="M15.5 85.75C15.5 68.6291 29.3792 54.75 46.5 54.75C63.6209 54.75 77.5 68.6291 77.5 85.75H15.5ZM50.375 62.8216V78H68.4271C65.6514 70.1473 58.7775 64.231 50.375 62.8216ZM42.625 78V62.8216C34.2226 64.231 27.3484 70.1473 24.573 78H42.625ZM46.5 50.875C33.6544 50.875 23.25 40.4706 23.25 27.625C23.25 14.7794 33.6544 4.375 46.5 4.375C59.3456 4.375 69.75 14.7794 69.75 27.625C69.75 40.4706 59.3456 50.875 46.5 50.875ZM46.5 43.125C55.0653 43.125 62 36.1904 62 27.625C62 19.0596 55.0653 12.125 46.5 12.125C37.9346 12.125 31 19.0596 31 27.625C31 36.1904 37.9346 43.125 46.5 43.125Z" fill="black"/>
</svg>
