<svg width="699" height="390" viewBox="0 0 699 390" fill="none" xmlns="http://www.w3.org/2000/svg">
<g filter="url(#filter0_d_1540_2115)">
<path d="M165.84 369.12C145.36 369.12 125.904 366.56 107.472 361.44C89.04 355.979 72.4853 348.128 57.808 337.888C43.472 327.648 32.0373 315.019 23.504 300C15.312 284.981 11.0453 267.573 10.704 247.776C10.704 244.704 11.728 242.144 13.776 240.096C15.824 237.707 18.384 236.512 21.456 236.512H108.496C113.957 236.512 117.883 237.707 120.272 240.096C123.003 242.485 125.392 246.411 127.44 251.872C129.829 258.699 132.731 264.501 136.144 269.28C139.899 273.717 144.507 276.96 149.968 279.008C155.429 281.056 161.744 282.08 168.912 282.08C182.224 282.08 192.464 277.813 199.632 269.28C207.141 260.747 210.896 247.264 210.896 228.832V95.712H51.664C47.9093 95.712 44.6667 94.5173 41.936 92.128C39.5467 89.3973 38.352 86.1547 38.352 82.4V18.912C38.352 15.1573 39.5467 12.0853 41.936 9.69598C44.6667 6.96531 47.9093 5.59998 51.664 5.59998H311.248C315.003 5.59998 318.075 6.96531 320.464 9.69598C323.195 12.0853 324.56 15.1573 324.56 18.912V232.416C324.56 262.795 317.563 288.224 303.568 308.704C289.915 328.843 270.971 344.032 246.736 354.272C222.843 364.171 195.877 369.12 165.84 369.12ZM526.568 369.12C490.728 369.12 460.861 364.171 436.968 354.272C413.416 344.032 395.667 330.891 383.72 314.848C372.115 298.464 365.971 281.227 365.288 263.136C365.288 260.064 366.312 257.504 368.36 255.456C370.408 253.408 372.968 252.384 376.04 252.384H457.448C462.227 252.384 465.981 253.237 468.712 254.944C471.443 256.309 474.344 258.357 477.416 261.088C480.488 264.843 484.072 268.427 488.168 271.84C492.264 274.912 497.555 277.472 504.04 279.52C510.525 281.227 518.035 282.08 526.568 282.08C542.269 282.08 554.387 280.032 562.92 275.936C571.453 271.499 575.72 265.525 575.72 258.016C575.72 252.213 573.331 247.435 568.552 243.68C564.115 239.925 556.435 236.512 545.512 233.44C534.589 230.368 519.741 227.125 500.968 223.712C474.685 219.275 451.987 212.789 432.872 204.256C413.757 195.381 399.08 183.605 388.84 168.928C378.941 153.909 373.992 135.477 373.992 113.632C373.992 91.4453 380.136 71.8187 392.424 54.752C405.053 37.6853 422.461 24.3733 444.648 14.816C467.176 5.25865 493.288 0.47998 522.984 0.47998C547.56 0.47998 569.235 3.72265 588.008 10.208C607.123 16.6933 623.165 25.2266 636.136 35.808C649.107 46.048 659.005 57.1413 665.832 69.088C672.659 81.0347 676.243 92.4693 676.584 103.392C676.584 106.464 675.389 109.195 673 111.584C670.952 113.632 668.563 114.656 665.832 114.656H580.328C576.232 114.656 572.648 113.973 569.576 112.608C566.845 111.243 564.285 109.024 561.896 105.952C560.189 101.173 555.923 96.9067 549.096 93.152C542.269 89.3973 533.565 87.52 522.984 87.52C511.379 87.52 502.504 89.568 496.36 93.664C490.216 97.4187 487.144 103.051 487.144 110.56C487.144 115.68 489.021 120.117 492.776 123.872C496.531 127.627 503.187 131.04 512.744 134.112C522.301 136.843 535.613 139.915 552.68 143.328C585.107 148.107 611.219 154.933 631.016 163.808C651.155 172.683 665.832 184.288 675.048 198.624C684.264 212.96 688.872 230.88 688.872 252.384C688.872 276.619 681.875 297.44 667.88 314.848C653.885 332.256 634.6 345.739 610.024 355.296C585.789 364.512 557.971 369.12 526.568 369.12Z" fill="black"/>
</g>
<defs>
<filter id="filter0_d_1540_2115" x="0.704102" y="0.47998" width="698.168" height="388.64" filterUnits="userSpaceOnUse" color-interpolation-filters="sRGB">
<feFlood flood-opacity="0" result="BackgroundImageFix"/>
<feColorMatrix in="SourceAlpha" type="matrix" values="0 0 0 0 0 0 0 0 0 0 0 0 0 0 0 0 0 0 127 0" result="hardAlpha"/>
<feOffset dy="10"/>
<feGaussianBlur stdDeviation="5"/>
<feComposite in2="hardAlpha" operator="out"/>
<feColorMatrix type="matrix" values="0 0 0 0 0.233333 0 0 0 0 0.233333 0 0 0 0 0.233333 0 0 0 0.25 0"/>
<feBlend mode="normal" in2="BackgroundImageFix" result="effect1_dropShadow_1540_2115"/>
<feBlend mode="normal" in="SourceGraphic" in2="effect1_dropShadow_1540_2115" result="shape"/>
</filter>
</defs>
</svg>
