<svg width="80" height="77" viewBox="0 0 80 77" fill="none" xmlns="http://www.w3.org/2000/svg">
<path d="M76 77H4C1.79088 77 0 75.0848 0 72.7222V40.5824C0 39.3461 0.50004 38.1702 1.37128 37.3578L16 23.7175V4.27778C16 1.91525 17.7909 0 20 0H76C78.2092 0 80 1.91525 80 4.27778V72.7222C80 75.0848 78.2092 77 76 77ZM28 68.4444H40V42.528L24 27.6089L8 42.528V68.4444H20V51.3333H28V68.4444ZM48 68.4444H72V8.55556H24V17.6556C24.9378 17.6556 25.8755 18.0068 26.6287 18.7091L46.6288 37.3578C47.5 38.1702 48 39.3461 48 40.5824V68.4444ZM56 34.2222H64V42.7778H56V34.2222ZM56 51.3333H64V59.8889H56V51.3333ZM56 17.1111H64V25.6667H56V17.1111ZM40 17.1111H48V25.6667H40V17.1111Z" fill="black"/>
</svg>
