<svg width="666" height="642" viewBox="0 0 666 642" fill="none" xmlns="http://www.w3.org/2000/svg">
<path d="M658.278 228.352H304.066C300.151 228.352 296.978 231.525 296.978 235.44V235.449C296.978 239.364 300.151 242.537 304.066 242.537H658.278C662.193 242.537 665.366 239.364 665.366 235.449V235.44C665.366 231.525 662.193 228.352 658.278 228.352Z" fill="#3D6982"/>
<path d="M658.27 228.389H529.672C531.552 228.389 533.355 229.135 534.684 230.465C536.013 231.794 536.76 233.597 536.76 235.477C536.76 237.357 536.013 239.16 534.684 240.489C533.355 241.818 531.552 242.565 529.672 242.565H658.27C660.15 242.565 661.953 241.818 663.283 240.489C664.612 239.16 665.359 237.357 665.359 235.477C665.359 233.597 664.612 231.794 663.283 230.465C661.953 229.135 660.15 228.389 658.27 228.389Z" fill="#2B4257"/>
<path d="M665.366 235.441C665.366 236.373 665.183 237.295 664.826 238.156C664.469 239.017 663.946 239.798 663.287 240.457C662.628 241.115 661.846 241.637 660.984 241.993C660.123 242.348 659.201 242.531 658.269 242.53H304.075C303.143 242.531 302.221 242.348 301.36 241.993C300.499 241.637 299.716 241.115 299.057 240.457C298.398 239.798 297.875 239.017 297.518 238.156C297.161 237.295 296.978 236.373 296.978 235.441" stroke="#2B4257" stroke-miterlimit="10" stroke-linecap="round"/>
<path d="M274.933 327.98L116.689 109.709C116.689 109.709 92.1212 48.6902 52.9948 90.3098C13.8683 131.929 -66.3317 373.976 113.049 398.544C296.316 423.594 316.17 349.818 274.933 327.98Z" fill="#5BC0C3"/>
<path d="M274.975 363.889C287.755 339.762 260.758 300.416 214.676 276.006C168.593 251.596 120.876 251.367 108.096 275.494C95.3162 299.621 122.313 338.968 168.395 363.377C214.478 387.787 262.195 388.016 274.975 363.889Z" fill="#2B4257"/>
<path d="M52.9948 90.3086C13.8683 131.937 -66.3317 373.975 113.049 398.543C296.316 423.62 316.17 349.844 274.933 328.006" stroke="#2B4257" stroke-miterlimit="10" stroke-linecap="round"/>
<path d="M296.314 144.068C296.314 144.068 320.1 114.041 341.874 124.35C363.648 134.66 366.505 144.369 362.502 144.068C358.498 143.768 346.06 139.519 346.06 139.519C346.06 139.519 335.141 155.333 320.282 157.717" fill="#FBC2A5"/>
<path d="M362.501 144.067C358.498 143.767 346.059 139.518 346.059 139.518C346.059 139.518 335.14 155.332 320.281 157.716" stroke="#2B4257" stroke-miterlimit="10" stroke-linecap="round"/>
<path d="M333.03 191.192C333.03 191.192 363.658 176.551 377.307 185.332C390.956 194.113 390.956 211.975 386.106 209.718C383.361 208.554 381.109 206.468 379.736 203.822C379.736 203.822 364.823 227.207 338.917 217.025" fill="#FBC2A5"/>
<path d="M386.096 209.719C383.351 208.554 381.099 206.469 379.726 203.822C379.726 203.822 364.813 227.207 338.907 217.025" stroke="#2B4257" stroke-miterlimit="10" stroke-linecap="round"/>
<path d="M227.706 502.192L201.946 454.048C242.774 432.21 272.228 411.691 289.498 393.084C299.562 382.246 305.113 372.21 304.721 365.54C304.13 355.531 287.633 346.814 284.621 345.631L304.549 294.812C313.516 298.534 321.925 303.479 329.535 309.508C347.733 323.903 358.033 342.174 359.216 362.328C360.545 384.749 350.536 407.606 329.489 430.254C307.806 453.611 274.512 477.133 227.706 502.192Z" fill="#F4AB9D"/>
<path d="M201.946 454.048C242.774 432.21 272.228 411.692 289.498 393.084" stroke="#2B4257" stroke-miterlimit="10" stroke-linecap="round"/>
<path d="M252.43 212.92C250.145 212.919 247.861 212.801 245.587 212.565C191.538 206.924 161.156 134.831 157.862 126.633L200.101 109.708L178.981 118.17L200.082 109.672C207.362 127.543 229.127 165.177 250.346 167.315C266.98 169.053 284.923 146.205 294.086 132.456L331.902 157.734C307.407 194.394 280.701 212.92 252.43 212.92Z" fill="#BC5B5B"/>
<path d="M200.101 109.719H199.973L185.314 115.624C177.726 122.594 171.929 135.133 169.5 150.328C180.055 168.845 197.525 193.094 221.42 205.26C226.661 195.105 229.882 181.402 229.882 166.306C229.883 162.586 229.682 158.868 229.282 155.169C216.106 142.057 204.914 121.575 200.101 109.719Z" fill="#2B4257"/>
<path d="M331.902 157.734C307.407 194.395 280.701 212.921 252.43 212.921" stroke="#2B4257" stroke-miterlimit="10" stroke-linecap="round"/>
<path d="M356.513 591.447L306.941 568.571C328.597 521.62 332.492 481.265 318.47 448.59C298.342 401.593 246.586 383.44 246.031 383.258H246.15L263.292 331.393C266.341 332.403 338.206 356.87 368.37 426.342C389.07 474.068 385.067 529.572 356.513 591.447Z" fill="#FBC2A5"/>
<path d="M263.33 331.492C266.378 332.502 338.244 356.97 368.407 426.442C389.072 474.067 385.068 529.572 356.515 591.446" stroke="#FFF1D7" stroke-miterlimit="10" stroke-linecap="round"/>
<path d="M306.941 568.553C328.597 521.62 332.492 481.265 318.47 448.59C298.342 401.593 246.586 383.44 246.031 383.258" stroke="#2B4257" stroke-miterlimit="10" stroke-linecap="round"/>
<path d="M121.065 235.441H214.887V246.961C214.892 253.124 213.682 259.227 211.327 264.922C208.972 270.617 205.517 275.793 201.161 280.152C196.805 284.512 191.633 287.97 185.939 290.33C180.246 292.689 174.144 293.904 167.981 293.904C155.54 293.904 143.61 288.962 134.813 280.165C126.016 271.368 121.075 259.438 121.075 246.997V235.441H121.065Z" fill="#E57873"/>
<path d="M167.981 95.6133C180.421 95.6133 192.352 100.555 201.148 109.352C209.945 118.148 214.887 130.079 214.887 142.519V235.44H121.065V142.519C121.065 136.359 122.279 130.259 124.637 124.567C126.995 118.876 130.451 113.704 134.807 109.349C139.164 104.993 144.336 101.538 150.028 99.1812C155.72 96.8245 161.82 95.6121 167.981 95.6133Z" fill="#E57873"/>
<path d="M214.887 172.119H207.007H204.705H192.148H189.846H177.289H174.987H162.43H160.128H147.571H145.269H132.712H130.41H121.065V177.633L124.132 180.7L131.557 173.266L138.991 180.7L146.416 173.266L153.85 180.7L161.275 173.266L168.709 180.7L176.134 173.266L183.568 180.7L190.993 173.266L198.427 180.7L205.851 173.266L213.285 180.7L214.887 179.089V172.119Z" fill="#BC5B5B"/>
<path d="M214.887 190.281H207.007H204.705H192.148H189.846H177.289H174.987H162.43H160.128H147.571H145.269H132.712H130.41H121.065V195.804L124.132 198.862L131.557 191.428L138.991 198.862L146.416 191.428L153.85 198.862L161.275 191.428L168.709 198.862L176.134 191.428L183.568 198.862L190.993 191.428L198.427 198.862L205.851 191.428L213.285 198.862L214.887 197.251V190.281Z" fill="#BC5B5B"/>
<path d="M214.887 208.443H207.007H204.705H192.148H189.846H177.289H174.987H162.43H160.128H147.571H145.269H132.712H130.41H121.065V213.967L124.132 217.024L131.557 209.599L138.991 217.024L146.416 209.599L153.85 217.024L161.275 209.599L168.709 217.024L176.134 209.599L183.568 217.024L190.993 209.599L198.427 217.024L205.851 209.599L213.285 217.024L214.887 215.422V208.443Z" fill="#BC5B5B"/>
<path d="M187.989 194.568C187.989 194.568 189.463 225.151 212.175 235.442H214.905V199.664L187.989 194.568Z" fill="#2B4257"/>
<path d="M214.887 235.44V142.519C214.887 130.079 209.945 118.148 201.148 109.352C192.352 100.555 180.421 95.6133 167.98 95.6133" stroke="#FFF1D7" stroke-miterlimit="10" stroke-linecap="round"/>
<path d="M155.659 99.1264L184.576 99.4903V69.7452L155.659 66.5059V99.1264Z" fill="#FBC2A5"/>
<path d="M155.668 66.5059V99.1264" stroke="#2B4257" stroke-miterlimit="10" stroke-linecap="round"/>
<path d="M184.576 85.3411C176.242 83.9126 170.154 79.1628 170.154 73.5486C170.168 72.1533 170.537 70.7846 171.228 69.5723L184.613 69.7452L184.576 85.3411Z" fill="#2B4257"/>
<path d="M207.561 14.459L202.283 56.0422H213.666L207.561 14.459Z" fill="#F39B92"/>
<path d="M202.283 56.0508H213.666" stroke="#2B4257" stroke-miterlimit="10" stroke-linecap="round"/>
<path d="M184.577 99.4913V69.7461" stroke="#FFF1D7" stroke-miterlimit="10" stroke-linecap="round"/>
<path d="M156.314 87.7891C156.314 87.7891 185.04 87.9801 194.576 103.895C204.112 119.809 143.12 108.28 143.12 108.28" fill="#E57873"/>
<path d="M163.866 14.459H207.542V61.5654C207.542 66.5487 205.562 71.328 202.039 74.8518C198.515 78.3755 193.736 80.3552 188.752 80.3552H186.168C178.126 80.3552 170.413 77.163 164.723 71.48C159.033 65.7969 155.832 58.0877 155.822 50.0458V22.5117C155.822 20.3784 156.67 18.3325 158.178 16.824C159.687 15.3155 161.733 14.4681 163.866 14.4681V14.459Z" fill="#FBC2A5"/>
<path d="M216.769 41.364C216.769 41.364 220.936 17.7062 194.576 5.77714C190.867 3.9711 187.002 2.50322 183.029 1.39134H182.929C174.332 -0.916217 165.212 -0.308218 156.997 3.12018C130.736 14.2667 123.093 47.8972 155.122 74.5305L171.228 45.4131C171.228 45.4131 183.684 36.3139 186.023 27.8062C186.819 25.644 187.966 23.6274 189.417 21.8372" fill="#2B4257"/>
<path d="M216.769 41.3642C216.769 41.3642 220.936 17.7064 194.576 5.77734" stroke="#586977" stroke-miterlimit="10" stroke-linecap="round"/>
<path d="M171.237 45.341C171.237 45.341 183.694 36.2419 186.033 27.7342C186.833 25.5981 187.977 23.6066 189.417 21.8379" stroke="#586977" stroke-miterlimit="10" stroke-linecap="round"/>
<path d="M207.561 57.4336V61.5646C207.562 64.0325 207.077 66.4763 206.133 68.7566C205.19 71.0368 203.806 73.1086 202.061 74.8537C200.315 76.5987 198.244 77.9827 195.963 78.9266C193.683 79.8704 191.239 80.3556 188.771 80.3544" stroke="#FFF1D7" stroke-miterlimit="10" stroke-linecap="round"/>
<path d="M191.293 45.887C191.471 45.7385 191.633 45.5707 191.775 45.3865C191.997 45.1235 192.277 44.9146 192.592 44.7759C192.907 44.6371 193.25 44.5721 193.595 44.5858H202.503V50.9006C202.503 51.7975 202.326 52.6857 201.982 53.5143C201.639 54.3428 201.135 55.0956 200.501 55.7294C199.866 56.3632 199.113 56.8657 198.284 57.2081C197.455 57.5505 196.566 57.7262 195.669 57.725C193.859 57.725 192.123 57.006 190.844 55.7262C189.564 54.4463 188.845 52.7105 188.845 50.9006C188.839 49.9329 189.058 48.977 189.482 48.1074C189.907 47.2378 190.526 46.4779 191.293 45.887Z" fill="#F4AB9D"/>
<path d="M202.493 43.4213C202.102 45.9781 199.663 47.616 196.497 47.2065C194.485 46.9192 192.63 45.9566 191.237 44.4768C191.629 41.9199 194.067 40.282 197.225 40.6915C199.241 40.9726 201.1 41.936 202.493 43.4213Z" fill="#F7F7F7"/>
<path d="M202.493 43.4219C202.102 45.9787 199.663 47.6166 196.497 47.2071C194.485 46.9198 192.63 45.9573 191.237 44.4774" stroke="#2B4257" stroke-miterlimit="10" stroke-linecap="round"/>
<path d="M198.965 44.1896C199.299 44.1173 199.496 43.7163 199.404 43.2939C199.313 42.8715 198.968 42.5877 198.634 42.6601C198.3 42.7324 198.103 43.1334 198.195 43.5558C198.286 43.9782 198.631 44.262 198.965 44.1896Z" fill="#2B4257"/>
<path d="M186.031 54.0491C188.645 54.0491 190.763 51.9307 190.763 49.3175C190.763 46.7043 188.645 44.5859 186.031 44.5859C183.418 44.5859 181.3 46.7043 181.3 49.3175C181.3 51.9307 183.418 54.0491 186.031 54.0491Z" fill="#E57873"/>
<path d="M201.282 36.7876C199.99 36.3087 198.593 36.1802 197.235 36.4151C195.877 36.65 194.605 37.24 193.548 38.1251" stroke="#2B4257" stroke-miterlimit="10" stroke-linecap="round"/>
<path d="M196.45 58.3438C197.168 59.2209 198.105 59.8932 199.166 60.2926C200.226 60.692 201.374 60.8044 202.492 60.6185" stroke="#2B4257" stroke-miterlimit="10" stroke-linecap="round"/>
<path d="M163.831 58.7533C163.831 58.7533 155.378 84.4403 160.319 102.72C162.785 111.82 158.344 117.552 152.13 120.346C141.784 124.968 133.84 133.667 129.318 144.058C126.588 150.236 122.039 154.977 114.059 153.894C93.44 151.164 100.037 51.6469 148.909 7.67969" fill="#2B4257"/>
<path d="M163.83 58.7539C163.83 58.7539 155.377 84.4409 160.318 102.721C162.784 111.82 158.344 117.553 152.129 120.346" stroke="#586977" stroke-miterlimit="10" stroke-linecap="round"/>
<path d="M167.979 58.4722C172.296 58.4722 175.795 54.9728 175.795 50.656C175.795 46.3393 172.296 42.8398 167.979 42.8398C163.663 42.8398 160.163 46.3393 160.163 50.656C160.163 54.9728 163.663 58.4722 167.979 58.4722Z" fill="#FBC2A5"/>
<path d="M167.979 54.6596C170.19 54.6596 171.983 52.8671 171.983 50.656C171.983 48.4448 170.19 46.6523 167.979 46.6523C165.768 46.6523 163.976 48.4448 163.976 50.656C163.976 52.8671 165.768 54.6596 167.979 54.6596Z" fill="#F4AB9D"/>
<path d="M407.407 640.955H131.957" stroke="#2B4257" stroke-miterlimit="10" stroke-linecap="round"/>
<path d="M113.995 640.955H103.813" stroke="#2B4257" stroke-miterlimit="10" stroke-linecap="round"/>
<path d="M121.064 235.441H214.885C214.885 235.441 263.247 253.376 338.907 316.033L260.754 394.377C260.754 394.377 114.458 346.679 121.064 235.441Z" fill="#E57873"/>
<path d="M338.907 316.031L260.754 394.375" stroke="#2B4257" stroke-miterlimit="10" stroke-linecap="round"/>
<path d="M214.887 235.441C214.887 235.441 263.249 253.376 338.908 316.033" stroke="#FFF1D7" stroke-miterlimit="10" stroke-linecap="round"/>
<path d="M260.754 394.377C260.754 394.377 114.458 346.679 121.064 235.441" stroke="#2B4257" stroke-miterlimit="10" stroke-linecap="round"/>
<path d="M301.739 228.253C245.733 228.253 207.289 209.281 183.358 191.192C150.41 166.27 137.317 138.08 135.934 134.95L177.553 116.57L177.48 116.406C177.58 116.625 187.626 138.026 212.576 156.215C245.897 180.519 289.4 188.226 341.875 179.127L349.655 223.949C333.835 226.753 317.804 228.193 301.739 228.253Z" fill="#E57873"/>
<path d="M183.357 191.191C172.097 182.699 161.932 172.845 153.093 161.855" stroke="#2B4257" stroke-miterlimit="10" stroke-linecap="round"/>
<path d="M212.575 156.215C245.896 180.519 289.399 188.226 341.874 179.127" stroke="#FFF1D7" stroke-miterlimit="10" stroke-linecap="round"/>
<path d="M349.654 223.948C333.834 226.753 317.803 228.192 301.738 228.252C245.732 228.252 207.288 209.281 183.357 191.191" stroke="#2B4257" stroke-miterlimit="10" stroke-linecap="round"/>
<path d="M365.468 585.677L303.849 557.879L278.116 611.155L344.24 640.954L339.39 626.933L365.468 585.677Z" fill="#E57873"/>
<path d="M303.849 557.879L278.116 611.155L344.24 640.954" stroke="#2B4257" stroke-miterlimit="10" stroke-linecap="round"/>
<path d="M331.883 610.1L337.797 615.332L334.84 605.323L342.119 608.508L337.797 599.418L344.239 603.049V594.404" stroke="#2B4257" stroke-miterlimit="10" stroke-linecap="round"/>
<path d="M249.826 498.489L212.819 441.91L162.474 473.002L202.21 533.675L205.658 519.244L249.826 498.489Z" fill="#E57873"/>
<path d="M212.819 441.91L162.474 473.002L202.21 533.675" stroke="#2B4257" stroke-miterlimit="10" stroke-linecap="round"/>
<path d="M208.381 501.019L210.556 508.608L213.44 498.571L217.871 505.177L219.109 495.186L222.594 501.71L227.243 494.422" stroke="#2B4257" stroke-miterlimit="10" stroke-linecap="round"/>
<path d="M326.195 130.574C326.195 130.574 337.715 134.214 337.87 137.699C338.024 141.184 331.901 139.965 331.901 139.965C331.901 139.965 333.111 147.963 326.195 148.627" stroke="#2B4257" stroke-miterlimit="10" stroke-linecap="round"/>
<path d="M160.745 403.648V640.955" stroke="#2B4257" stroke-miterlimit="10" stroke-linecap="round"/>
<path d="M123.968 504.549H183.112" stroke="#2B4257" stroke-miterlimit="10" stroke-linecap="round"/>
<path d="M475.477 124.703L418.061 209.471C417.34 210.533 416.37 211.402 415.236 212.003C414.102 212.604 412.838 212.919 411.555 212.92H327.843C325.987 212.92 324.15 213.285 322.436 213.996C320.722 214.706 319.165 215.747 317.854 217.059C316.542 218.372 315.502 219.929 314.793 221.644C314.084 223.358 313.72 225.196 313.721 227.051V228.388H528.461C532.524 228.388 536.525 227.392 540.114 225.489C543.703 223.585 546.772 220.832 549.052 217.469L612.92 123.184C613.359 122.534 613.613 121.777 613.655 120.994C613.697 120.211 613.525 119.431 613.157 118.738C612.79 118.046 612.241 117.466 611.569 117.061C610.897 116.657 610.128 116.442 609.344 116.441H491.054C487.982 116.448 484.957 117.204 482.242 118.643C479.528 120.083 477.205 122.163 475.477 124.703Z" fill="#C3D8DD"/>
<path d="M327.851 212.92C325.996 212.92 324.159 213.285 322.445 213.996C320.731 214.706 319.174 215.747 317.862 217.059C316.551 218.372 315.511 219.929 314.802 221.644C314.093 223.358 313.728 225.196 313.729 227.051V228.388H528.47C532.533 228.388 536.533 227.392 540.123 225.489C543.712 223.585 546.781 220.832 549.061 217.469L612.928 123.184C613.367 122.534 613.622 121.777 613.663 120.994C613.705 120.211 613.533 119.431 613.166 118.738C612.798 118.046 612.249 117.466 611.578 117.061C610.906 116.657 610.137 116.442 609.352 116.441" stroke="#2B4257" stroke-miterlimit="10" stroke-linecap="round"/>
<path d="M609.389 116.406H491.1C488.013 116.406 484.974 117.163 482.247 118.609C479.52 120.056 477.189 122.149 475.459 124.705L418.043 209.473C417.323 210.532 416.357 211.399 415.226 212C414.096 212.601 412.835 212.917 411.555 212.921H327.843" stroke="#FFF1D7" stroke-miterlimit="10" stroke-linecap="round"/>
<path d="M526.152 242.529L466.734 301.947C447.515 321.159 436.714 347.219 436.707 374.394V641H517.034" stroke="#2B4257" stroke-miterlimit="10" stroke-linecap="round"/>
<path d="M642.865 242.529L583.457 301.947C573.939 311.459 566.388 322.753 561.236 335.183C556.084 347.614 553.431 360.938 553.43 374.394V641H633.748" stroke="#2B4257" stroke-miterlimit="10" stroke-linecap="round"/>
<path d="M444.558 480.736H553.447" stroke="#2B4257" stroke-miterlimit="10" stroke-linecap="round"/>
</svg>
