<svg width="837" height="831" viewBox="0 0 837 831" fill="none" xmlns="http://www.w3.org/2000/svg">
<path d="M648.82 81.6484L357.856 367.514C356.59 368.758 355.087 369.745 353.433 370.419C351.779 371.092 350.005 371.439 348.215 371.439C346.424 371.439 344.651 371.092 342.997 370.419C341.343 369.745 339.84 368.758 338.574 367.514C337.307 366.27 336.303 364.793 335.617 363.168C334.932 361.543 334.579 359.801 334.579 358.042C334.579 356.282 334.932 354.54 335.617 352.915C336.303 351.29 337.307 349.813 338.574 348.569L353.226 334.173" stroke="#2B4257" stroke-width="2" stroke-miterlimit="10" stroke-linecap="round"/>
<path d="M437.693 60.2826C447.906 61.0704 459.294 66.3598 468.697 75.5883C478.099 84.8167 483.463 96.0146 484.265 106.04C494.479 106.837 505.867 112.117 515.269 121.346C524.671 130.574 530.036 141.772 530.837 151.807C541.051 152.595 552.439 157.875 561.841 167.103C571.243 176.332 576.589 187.567 577.41 197.565C587.623 198.353 599.011 203.633 608.413 212.861C617.816 222.089 623.18 233.287 623.982 243.322C634.196 244.11 645.583 249.39 654.986 258.619C664.388 267.847 669.753 279.045 670.554 289.08C671.156 289.127 671.767 289.183 672.368 289.268C716.879 244.692 700.804 157.5 636.21 94.0357C571.616 30.5716 482.862 14.7782 437.502 58.51C437.578 59.0821 437.645 59.7011 437.693 60.2826Z" fill="#E57873"/>
<path d="M670.558 289.079C671.16 289.126 671.771 289.183 672.372 289.267C716.883 244.691 700.808 157.499 636.214 94.0352" stroke="#2B4257" stroke-width="2" stroke-miterlimit="10" stroke-linecap="round"/>
<path d="M623.982 243.324C634.196 244.112 645.584 249.392 654.986 258.621" stroke="#2B4257" stroke-width="2" stroke-miterlimit="10" stroke-linecap="round"/>
<path d="M577.411 197.566C587.625 198.354 599.013 203.634 608.415 212.863" stroke="#2B4257" stroke-width="2" stroke-miterlimit="10" stroke-linecap="round"/>
<path d="M530.838 151.809C541.052 152.596 552.439 157.876 561.842 167.105" stroke="#2B4257" stroke-width="2" stroke-miterlimit="10" stroke-linecap="round"/>
<path d="M484.267 106.043C494.48 106.84 505.868 112.12 515.27 121.349" stroke="#2B4257" stroke-width="2" stroke-miterlimit="10" stroke-linecap="round"/>
<path d="M437.502 58.5137C437.578 59.1045 437.645 59.7047 437.693 60.2862C447.906 61.074 459.294 66.3635 468.697 75.5919" stroke="#2B4257" stroke-width="2" stroke-miterlimit="10" stroke-linecap="round"/>
<path d="M636.21 94.0357C571.616 30.5716 482.862 14.7782 437.502 58.51" stroke="#FFF1D7" stroke-width="2" stroke-miterlimit="10" stroke-linecap="round"/>
<path d="M32.1351 441.334C42.9979 435.088 43.9524 403.154 43.9524 403.154L7.86103 396.711C-5.15898 425.09 21.2629 447.589 32.1351 441.334Z" fill="#F4AB9D"/>
<path d="M50.2433 433.107C60.7433 425.605 46.7878 398.407 46.511 396.344L27.4201 404.522C21.9983 419.752 37.9487 423.673 37.9487 423.673C37.9487 423.673 30.8183 424.02 26.4942 425.783C22.1701 427.546 39.6956 440.61 50.2433 433.107Z" fill="#F4AB9D"/>
<path d="M27.3843 404.521C22.0007 419.752 37.9512 423.672 37.9512 423.672C37.9512 423.672 30.8207 424.019 26.4966 425.783" stroke="#2B4257" stroke-width="2" stroke-linecap="round" stroke-linejoin="round"/>
<path d="M393.032 317.931C393.032 317.931 394.941 311.366 389.214 309.256C383.487 307.146 359.146 313.945 359.146 313.945L356.282 347.942C372.987 369.512 414.51 350.287 416.896 345.128C419.282 339.97 393.032 317.931 393.032 317.931Z" fill="#FBC2A5"/>
<path d="M356.282 347.94C372.987 369.511 414.51 350.285 416.896 345.127" stroke="#2B4257" stroke-width="2" stroke-miterlimit="10" stroke-linecap="round"/>
<path d="M4.53919 408.319C-7.02036 330.347 22.3606 281.757 49.0497 254.728C77.4856 225.917 108.117 215.479 111.515 214.4L126.387 258.958L126.521 258.911C126.292 258.995 102.657 267.079 81.9911 288.744C55.0156 316.945 44.8497 354.909 51.7701 401.576L4.53919 408.319Z" fill="#628ECC"/>
<path d="M6.92821 330.799C5.40322 337.183 4.23691 343.646 3.43457 350.156L49.8732 366.484C50.1843 359.851 50.9689 353.248 52.2214 346.723L6.92821 330.799Z" fill="#5BC0C3"/>
<path d="M4.53919 408.32C-7.02036 330.347 22.3606 281.757 49.0497 254.729" stroke="#2B4257" stroke-width="2" stroke-miterlimit="10" stroke-linecap="round"/>
<path d="M533.969 664.091C415.004 519.1 257.055 456.077 255.471 455.458L276.69 403.191C278.475 403.885 321.077 420.739 379.543 456.921C433.312 490.196 511.49 547.029 578.556 628.772L533.969 664.091Z" fill="#FBC2A5"/>
<path d="M273.997 463.643C284.344 468.491 298.558 475.544 315.463 484.904L341.235 434.532C339.326 433.5 337.481 432.497 335.699 431.521L273.997 463.643Z" fill="#2B4257"/>
<path d="M263.93 773.724L222.025 735.366C256.904 698.583 280.252 665.637 291.43 637.426C299.496 617.056 300.976 599.64 295.745 585.666C282.257 549.437 222.426 534.591 202.533 532.209L209.349 476.426C228.919 479.17 248.089 484.182 266.459 491.356C308.707 507.937 337.43 533.888 349.505 566.384C359.632 593.582 358.038 624.381 344.732 657.881C330.977 692.75 303.772 731.745 263.93 773.724Z" fill="#FBC2A5"/>
<path d="M302.636 509.983C291.301 502.501 279.171 496.252 266.459 491.348C257.27 487.758 247.87 484.714 238.31 482.232L206.628 498.729L202.533 532.285C217.09 534.002 253.038 542.414 276.558 561.002L302.636 509.983Z" fill="#2B4257"/>
<path d="M144.868 829.471H433.828" stroke="#2B4257" stroke-width="2" stroke-miterlimit="10" stroke-linecap="round"/>
<path d="M452.673 829.471H463.354" stroke="#2B4257" stroke-width="2" stroke-miterlimit="10" stroke-linecap="round"/>
<path d="M173.775 115.24C173.775 115.24 197.762 122.021 212.405 142.654C227.048 163.286 271.587 127.038 290.353 155.005C297.99 166.306 307.239 169.551 315.639 169.41C317.624 169.371 319.585 169.833 321.334 170.754C323.084 171.675 324.562 173.023 325.628 174.668C326.693 176.313 327.31 178.2 327.418 180.147C327.526 182.094 327.122 184.036 326.244 185.785L305.788 226.403C293.704 250.44 260.133 254.736 242.884 233.962C242.512 233.522 242.149 233.071 241.796 232.603C221.75 206.662 206.477 225.24 170.806 213.527C147.277 205.799 151.916 192.425 135.068 196.824C118.22 201.222 117.266 148.562 117.266 148.562" fill="#2B4257"/>
<path d="M173.775 115.24C173.775 115.24 197.762 122.021 212.405 142.654C227.048 163.286 271.587 127.038 290.353 155.005C297.99 166.306 307.239 169.551 315.639 169.41C317.624 169.371 319.585 169.833 321.334 170.754C323.084 171.675 324.562 173.023 325.628 174.668C326.693 176.313 327.31 178.2 327.418 180.147C327.526 182.094 327.122 184.036 326.244 185.785L305.788 226.403C293.704 250.44 260.133 254.736 242.884 233.962C242.512 233.522 242.149 233.071 241.796 232.603C221.75 206.662 206.477 225.24 170.806 213.527C147.277 205.799 151.916 192.425 135.068 196.824C118.22 201.222 117.266 148.562 117.266 148.562" stroke="#586977" stroke-width="2" stroke-miterlimit="10" stroke-linecap="round"/>
<path d="M109.959 212.423L140.294 212.798V182.14L109.959 178.801V212.423Z" fill="#FBC2A5"/>
<path d="M109.959 178.801V212.423" stroke="#2B4257" stroke-width="2" stroke-miterlimit="10" stroke-linecap="round"/>
<path d="M140.296 198.214C131.552 196.751 125.128 191.865 125.128 186.069C125.137 184.628 125.522 183.214 126.245 181.961L140.296 182.139V198.214Z" fill="#2B4257"/>
<path d="M164.412 125.166L158.866 168.026H170.808L164.412 125.166Z" fill="#F39B92"/>
<path d="M170.805 168.026L164.4 125.166" stroke="#FFF1D7" stroke-width="2" stroke-miterlimit="10" stroke-linecap="round"/>
<path d="M158.866 168.023H170.808" stroke="#2B4257" stroke-width="2" stroke-miterlimit="10" stroke-linecap="round"/>
<path d="M140.298 212.799V182.141" stroke="#FFF1D7" stroke-width="2" stroke-miterlimit="10" stroke-linecap="round"/>
<path d="M118.561 125.166H164.379V173.718C164.379 176.262 163.869 178.78 162.879 181.13C161.888 183.479 160.436 185.614 158.606 187.413C156.775 189.211 154.602 190.637 152.211 191.611C149.819 192.584 147.256 193.085 144.668 193.085H141.938C133.495 193.085 125.398 189.79 119.428 183.924C113.457 178.058 110.104 170.103 110.104 161.808V133.457C110.104 131.258 110.993 129.149 112.575 127.594C114.157 126.039 116.304 125.166 118.542 125.166H118.561Z" fill="#FBC2A5"/>
<path d="M190.412 134.056C189.773 110.92 150.932 109.044 130.744 115.459C130.744 115.459 108.321 116.547 101 132.181C93.6787 147.815 110.126 185.385 110.126 185.385L122.057 167.875L129.799 159.106C129.799 159.106 133.235 157.231 135.45 151.603C136.627 148.693 138.636 146.179 141.234 144.364C143.832 142.549 146.908 141.51 150.092 141.372C152.686 141.253 155.263 140.911 157.796 140.349C162.492 139.252 164.907 140.584 166.148 142.178C168.438 145.293 171.846 147.438 175.684 148.18C182.451 149.315 190.794 147.937 190.412 134.056Z" fill="#2B4257"/>
<path d="M166.138 142.141C168.424 145.272 171.836 147.431 175.683 148.18" stroke="#586977" stroke-width="2" stroke-miterlimit="10" stroke-linecap="round"/>
<path d="M129.799 159.117C129.799 159.117 133.235 157.242 135.45 151.615C136.628 148.704 138.636 146.19 141.234 144.375C143.832 142.56 146.908 141.521 150.092 141.383C152.686 141.264 155.263 140.922 157.796 140.36C162.492 139.263 164.907 140.595 166.148 142.189" stroke="#586977" stroke-width="2" stroke-miterlimit="10" stroke-linecap="round"/>
<path d="M164.401 169.459V173.707C164.402 176.251 163.893 178.77 162.903 181.12C161.913 183.47 160.461 185.606 158.63 187.404C156.8 189.203 154.626 190.629 152.234 191.602C149.842 192.575 147.278 193.075 144.689 193.074" stroke="#FFF1D7" stroke-width="2" stroke-miterlimit="10" stroke-linecap="round"/>
<path d="M147.336 157.559C147.526 157.406 147.699 157.233 147.851 157.043C148.083 156.769 148.376 156.553 148.707 156.409C149.038 156.266 149.399 156.201 149.76 156.217H159.105V162.726C159.105 163.651 158.92 164.566 158.559 165.42C158.199 166.274 157.671 167.05 157.005 167.703C156.339 168.356 155.549 168.874 154.679 169.227C153.809 169.58 152.877 169.761 151.937 169.76C150.038 169.76 148.217 169.019 146.874 167.7C145.532 166.381 144.777 164.592 144.777 162.726C144.772 161.73 145 160.745 145.444 159.849C145.887 158.953 146.535 158.17 147.336 157.559V157.559Z" fill="#F4AB9D"/>
<path d="M159.081 155.007C158.671 157.642 156.113 159.33 152.791 158.908C150.68 158.612 148.735 157.62 147.273 156.095C147.684 153.46 150.242 151.771 153.564 152.193C155.676 152.485 157.623 153.478 159.081 155.007V155.007Z" fill="#F7F7F7"/>
<path d="M159.081 155.008C158.671 157.643 156.113 159.331 152.791 158.909C150.68 158.613 148.735 157.621 147.273 156.096" stroke="#2B4257" stroke-width="2" stroke-miterlimit="10" stroke-linecap="round"/>
<path d="M155.526 156.346C155.876 156.271 156.082 155.858 155.986 155.423C155.891 154.987 155.529 154.695 155.178 154.769C154.828 154.844 154.622 155.257 154.718 155.693C154.814 156.128 155.175 156.42 155.526 156.346Z" fill="#2B4257"/>
<path d="M141.812 165.959C144.554 165.959 146.776 163.775 146.776 161.082C146.776 158.388 144.554 156.205 141.812 156.205C139.071 156.205 136.849 158.388 136.849 161.082C136.849 163.775 139.071 165.959 141.812 165.959Z" fill="#E57873"/>
<path d="M159.304 147.456C157.627 147.015 155.861 147.017 154.185 147.462C152.509 147.907 150.982 148.778 149.759 149.988" stroke="#2B4257" stroke-width="2" stroke-miterlimit="10" stroke-linecap="round"/>
<path d="M159.075 172.779C158.401 171.949 157.518 171.307 156.513 170.917C155.508 170.527 154.417 170.403 153.348 170.556" stroke="#2B4257" stroke-width="2" stroke-miterlimit="10" stroke-linecap="round"/>
<path d="M122.873 170.52C127.402 170.52 131.073 166.914 131.073 162.464C131.073 158.015 127.402 154.408 122.873 154.408C118.345 154.408 114.674 158.015 114.674 162.464C114.674 166.914 118.345 170.52 122.873 170.52Z" fill="#FBC2A5"/>
<path d="M122.876 166.589C125.195 166.589 127.076 164.741 127.076 162.462C127.076 160.183 125.195 158.336 122.876 158.336C120.556 158.336 118.676 160.183 118.676 162.462C118.676 164.741 120.556 166.589 122.876 166.589Z" fill="#F4AB9D"/>
<path d="M78.7373 352.922H177.161V364.823C177.155 377.642 171.969 389.934 162.741 398.997C153.514 408.059 141.001 413.15 127.954 413.15V413.15C114.905 413.153 102.389 408.063 93.1598 399C83.9302 389.937 78.7424 377.644 78.7373 364.823V352.922Z" fill="#5BC0C3"/>
<path d="M127.954 208.801C141.004 208.801 153.52 213.894 162.748 222.961C171.976 232.028 177.161 244.325 177.161 257.147V352.92H78.7373V257.156C78.7361 250.806 80.0082 244.517 82.4811 238.65C84.954 232.783 88.5792 227.451 93.1497 222.961C97.7201 218.471 103.146 214.909 109.118 212.479C115.09 210.049 121.49 208.8 127.954 208.801V208.801Z" fill="#5BC0C3"/>
<path d="M170.804 328.969L78.7378 364.823C78.7378 364.823 69.9177 526.855 233.622 551.239L345.304 426.505L170.804 328.969Z" fill="#5BC0C3"/>
<path d="M78.7378 364.824C78.7378 364.824 69.9177 526.856 233.622 551.24" stroke="#2B4257" stroke-width="2" stroke-miterlimit="10" stroke-linecap="round"/>
<path d="M242.836 699.295L191.644 755.978L236.488 822.275L242.855 795.396L298.219 757.254L242.836 699.295Z" fill="#5BC0C3"/>
<path d="M242.836 699.295L191.644 755.978L236.488 822.275" stroke="#2B4257" stroke-width="2" stroke-miterlimit="10" stroke-linecap="round"/>
<path d="M593.485 640.331L556.258 583.441L494.604 634.676L558.997 693.367L614.485 640.331H593.485Z" fill="#5BC0C3"/>
<path d="M494.604 634.68L558.997 693.37L614.485 640.335" stroke="#2B4257" stroke-width="2" stroke-miterlimit="10" stroke-linecap="round"/>
<path d="M358.137 351.899C265.327 332.401 168.879 291.876 126.364 272.763C123.459 271.457 120.851 269.59 118.694 267.275C116.537 264.96 114.876 262.243 113.807 259.285C112.739 256.327 112.286 253.188 112.476 250.055C112.665 246.922 113.493 243.858 114.909 241.045C117.65 235.574 122.452 231.367 128.297 229.316C134.143 227.266 140.571 227.534 146.219 230.063C187.016 248.304 280.752 287.684 368.16 306.029L358.137 351.899Z" fill="#628ECC"/>
<path d="M302.902 338.132C309.202 339.921 315.537 341.652 321.907 343.328L334.975 298.236C328.611 296.573 322.276 294.838 315.97 293.031L302.902 338.132Z" fill="#5BC0C3"/>
<path d="M146.176 230.053C186.973 248.294 280.71 287.674 368.117 306.018" stroke="#FFF1D7" stroke-width="2" stroke-miterlimit="10" stroke-linecap="round"/>
<path d="M358.133 351.901C265.322 332.403 168.875 291.879 126.359 272.766" stroke="#2B4257" stroke-width="2" stroke-miterlimit="10" stroke-linecap="round"/>
<path d="M260.035 768.818L273.084 780.073" stroke="#2B4257" stroke-width="2" stroke-miterlimit="10" stroke-linecap="round"/>
<path d="M250.854 773.143L263.903 784.397" stroke="#2B4257" stroke-width="2" stroke-miterlimit="10" stroke-linecap="round"/>
<path d="M241.679 777.467L254.727 788.721" stroke="#2B4257" stroke-width="2" stroke-miterlimit="10" stroke-linecap="round"/>
<path d="M566.443 617.209L559.761 627.525" stroke="#2B4257" stroke-width="2" stroke-miterlimit="10" stroke-linecap="round"/>
<path d="M573.127 625.93L566.445 636.246" stroke="#2B4257" stroke-width="2" stroke-miterlimit="10" stroke-linecap="round"/>
<path d="M579.807 634.658L573.125 644.975" stroke="#2B4257" stroke-width="2" stroke-miterlimit="10" stroke-linecap="round"/>
<path d="M64.2393 653.744C64.2393 653.744 84.7238 559.34 195.346 634.678C305.969 710.015 433.83 596.066 433.83 596.066" stroke="#2B4257" stroke-width="2" stroke-miterlimit="10" stroke-linecap="round" stroke-dasharray="8 8"/>
<path d="M510.728 533.634C510.728 533.634 654.329 415.972 636.212 351.279C618.095 286.586 522.621 416.834 636.212 435.413C749.803 453.992 789.894 280.865 789.894 280.865" stroke="#2B4257" stroke-width="2" stroke-miterlimit="10" stroke-linecap="round" stroke-dasharray="8 8"/>
<path d="M758.481 129.985C799.163 136.831 788.692 173.501 788.692 173.501L784.349 178.95C784.349 178.95 782.01 177.731 777.075 178.209C772.14 178.688 775.987 173.295 775.987 173.295C774.344 174.668 772.44 175.707 770.385 176.351C768.33 176.995 766.166 177.232 764.017 177.046C756.982 176.446 765.382 169.3 765.926 168.821C765.267 169.365 753.164 179.288 745.881 174.552C738.359 169.694 749.107 162.51 749.107 162.51C749.107 162.51 734.178 172.029 727.152 168.137C720.127 164.245 738.216 154.069 738.216 154.069C738.216 154.069 721.616 158.336 712.939 152.765C704.262 147.195 731.372 141.755 731.372 141.755C731.372 141.755 708.711 135.265 703.756 129.122C698.802 122.979 717.798 123.129 758.481 129.985Z" fill="#2B4257"/>
<path d="M759.778 144.374L772.961 145.153C772.961 145.153 773.753 191.848 801.712 207.988L768.455 224.56L802.084 253.09C802.084 253.09 830.281 178.062 806.551 145.068C795.345 129.481 771.767 129.341 759.778 144.374Z" fill="#7296A3"/>
<path d="M768.455 224.556L802.084 253.086C802.084 253.086 830.281 178.058 806.551 145.064" stroke="#2B4257" stroke-width="2" stroke-miterlimit="10" stroke-linecap="round"/>
<path d="M777.18 133.832C770.282 135.187 764.108 138.927 759.778 144.373V144.373L772.961 145.152C772.961 145.152 772.961 145.658 772.961 146.559C775.688 143.01 777.159 138.682 777.151 134.235C777.189 134.113 777.18 133.973 777.18 133.832Z" fill="#E57873"/>
<path d="M778.973 142.459C782.6 142.459 785.54 140.783 785.54 138.717C785.54 136.65 782.6 134.975 778.973 134.975C775.346 134.975 772.405 136.65 772.405 138.717C772.405 140.783 775.346 142.459 778.973 142.459Z" fill="white"/>
<path d="M772.416 138.717C773.075 139.855 774.03 140.802 775.183 141.461C776.335 142.12 777.645 142.466 778.979 142.466C780.312 142.466 781.622 142.12 782.774 141.461C783.927 140.802 784.882 139.855 785.541 138.717" stroke="#2B4257" stroke-width="2" stroke-miterlimit="10" stroke-linecap="round"/>
<path d="M778.973 140.132C779.416 140.132 779.775 139.523 779.775 138.772C779.775 138.021 779.416 137.412 778.973 137.412C778.53 137.412 778.171 138.021 778.171 138.772C778.171 139.523 778.53 140.132 778.973 140.132Z" fill="#354B5F"/>
<path d="M831.941 120.526C850.077 156.97 813.623 170.035 813.623 170.035L806.636 169.753C806.636 169.753 806.273 167.174 802.989 163.516C799.706 159.859 806.416 159.765 806.416 159.765C804.322 159.26 802.35 158.35 800.616 157.089C798.883 155.829 797.421 154.242 796.317 152.422C792.699 146.457 803.514 148.989 804.24 149.167C803.4 148.961 788.146 145.097 787.784 136.506C787.411 127.672 799.62 132.052 799.62 132.052C799.62 132.052 783.039 125.693 782.19 117.834C781.34 109.975 800.269 118.443 800.269 118.443C800.269 118.443 787.01 107.705 786.59 97.5389C786.17 87.3726 806.454 105.811 806.454 105.811C806.454 105.811 798.579 83.9495 800.727 76.4092C802.875 68.8689 813.843 84.0714 831.941 120.526Z" fill="#7296A3"/>
<path d="M802.943 163.504C799.668 159.847 806.369 159.753 806.369 159.753C804.275 159.247 802.303 158.338 800.57 157.077C798.836 155.817 797.374 154.23 796.27 152.409C792.653 146.445 803.468 148.977 804.193 149.155C803.353 148.949 788.099 145.085 787.737 136.494C787.364 127.66 799.573 132.039 799.573 132.039C799.573 132.039 782.993 125.681 782.143 117.822C781.293 109.962 800.222 118.431 800.222 118.431C800.222 118.431 787.011 107.702 786.591 97.536C786.171 87.3697 806.455 105.808 806.455 105.808C806.455 105.808 798.58 83.9465 800.728 76.4062" stroke="white" stroke-width="2" stroke-miterlimit="10" stroke-linecap="round"/>
</svg>
