<svg width="648" height="667" viewBox="0 0 648 667" fill="none" xmlns="http://www.w3.org/2000/svg">
<path d="M556.314 55.3398H444.47V199.743H612.241V111.266C612.241 96.4338 606.349 82.2086 595.86 71.7204C585.372 61.2321 571.147 55.3398 556.314 55.3398Z" fill="#7296A3"/>
<path d="M556.313 129.44V27.6138C556.316 25.0177 557.349 22.5287 559.185 20.6937C561.022 18.8588 563.512 17.8281 566.108 17.8281H586.585C587.299 17.8281 587.984 18.1118 588.489 18.6167C588.994 19.1216 589.277 19.8064 589.277 20.5205V25.4219C589.277 28.0607 588.229 30.5914 586.363 32.4573C584.497 34.3233 581.967 35.3715 579.328 35.3715H556.313" fill="#5BC0C3"/>
<path d="M612.24 199.743V111.266C612.24 96.4338 606.348 82.2086 595.86 71.7204C585.371 61.2321 571.146 55.3398 556.313 55.3398" stroke="#2B4257" stroke-width="2" stroke-miterlimit="10" stroke-linecap="round"/>
<path d="M379.586 199.742H613.009" stroke="#2B4257" stroke-width="2" stroke-miterlimit="10" stroke-linecap="round"/>
<path d="M444.47 55.3398C459.3 55.3398 473.523 61.2312 484.01 71.7178C494.496 82.2045 500.388 96.4274 500.388 111.258V199.743H388.552V111.266C388.551 103.922 389.996 96.6502 392.806 89.8649C395.615 83.0796 399.734 76.9143 404.927 71.7209C410.119 66.5275 416.284 62.4078 423.069 59.5972C429.854 56.7865 437.126 55.3398 444.47 55.3398Z" fill="#2B4257"/>
<path d="M387.3 291.109C363.595 291.109 348.985 265.221 361.248 244.917L388.551 199.742H500.395L475.094 241.62C465.956 256.727 453.074 269.22 437.693 277.889C422.313 286.559 404.955 291.113 387.3 291.109Z" fill="#40697F"/>
<path d="M475.094 241.621C465.959 256.733 453.078 269.23 437.698 277.905C422.317 286.579 404.958 291.137 387.3 291.136C363.595 291.136 348.985 265.248 361.248 244.943" stroke="#2B4257" stroke-width="2" stroke-miterlimit="10" stroke-linecap="round"/>
<path d="M274.015 146.181C274.015 146.181 320.043 128.629 329.242 129.492C338.441 130.355 314.866 142.436 314.866 142.436C314.866 142.436 320.328 181.561 276.319 176.668" fill="#FBC2A5"/>
<path d="M329.243 129.492C338.45 130.355 314.866 142.436 314.866 142.436C314.866 142.436 320.329 181.561 276.319 176.669" stroke="#2B4257" stroke-width="2" stroke-miterlimit="10" stroke-linecap="round"/>
<path d="M114.993 116.547C114.993 116.547 139.397 163.249 282.643 159.167" stroke="#628ECC" stroke-width="20" stroke-miterlimit="10"/>
<path d="M393.773 168.012H291.947C288.491 168.012 285.69 170.813 285.69 174.268V225.198C285.69 228.653 288.491 231.454 291.947 231.454H393.773C397.228 231.454 400.029 228.653 400.029 225.198V174.268C400.029 170.813 397.228 168.012 393.773 168.012Z" fill="#CAAF95"/>
<path d="M393.773 168.012C395.431 168.014 397.021 168.674 398.194 169.847C399.367 171.019 400.027 172.609 400.029 174.268V225.181C400.027 226.839 399.367 228.429 398.194 229.602C397.021 230.775 395.431 231.435 393.773 231.437H291.947C290.288 231.435 288.698 230.775 287.525 229.602C286.353 228.429 285.693 226.839 285.69 225.181" stroke="#2B4257" stroke-width="2" stroke-miterlimit="10" stroke-linecap="round"/>
<path d="M285.69 225.226V174.313C285.693 172.654 286.353 171.064 287.525 169.892C288.698 168.719 290.288 168.059 291.947 168.057H393.773" stroke="#FFF1D7" stroke-width="2" stroke-miterlimit="10" stroke-linecap="round"/>
<path d="M310.698 178.635H299.946C298.626 178.635 297.556 179.705 297.556 181.025V187.04C297.556 188.36 298.626 189.43 299.946 189.43H310.698C312.018 189.43 313.088 188.36 313.088 187.04V181.025C313.088 179.705 312.018 178.635 310.698 178.635Z" fill="#FDEED9"/>
<path d="M310.698 178.635H299.946C298.626 178.635 297.556 179.705 297.556 181.025V187.04C297.556 188.36 298.626 189.43 299.946 189.43H310.698C312.018 189.43 313.088 188.36 313.088 187.04V181.025C313.088 179.705 312.018 178.635 310.698 178.635Z" fill="#FDEED9"/>
<path d="M299.946 189.431C299.312 189.431 298.704 189.179 298.256 188.73C297.807 188.282 297.556 187.674 297.556 187.04V181C297.556 180.366 297.807 179.758 298.256 179.309C298.704 178.861 299.312 178.609 299.946 178.609H310.698C311.332 178.609 311.94 178.861 312.388 179.309C312.837 179.758 313.088 180.366 313.088 181" stroke="#2B4257" stroke-width="2" stroke-miterlimit="10" stroke-linecap="round"/>
<path d="M340.84 581.211C326.619 589.081 326.231 564.479 326.231 564.479L282.679 581.47L305.469 627.283L373.459 582.643C370.732 584.429 365.822 567.387 340.84 581.211Z" fill="#5BC0C3"/>
<path d="M343.531 579.804C342.545 583.264 342.045 586.845 342.047 590.444C342.039 594.393 342.642 598.319 343.833 602.085L373.458 582.643C370.834 584.36 366.175 568.672 343.531 579.804Z" fill="#628ECC"/>
<path d="M305.469 627.282L373.459 582.643" stroke="#2B4257" stroke-width="2" stroke-miterlimit="10" stroke-linecap="round"/>
<path d="M282.679 581.469L305.469 627.282" stroke="#2B4257" stroke-width="2" stroke-miterlimit="10" stroke-linecap="round"/>
<path d="M326.662 584.066L333.911 579.303" stroke="#2B4257" stroke-width="2" stroke-miterlimit="10" stroke-linecap="round"/>
<path d="M333.012 585.836L340.26 581.072" stroke="#2B4257" stroke-width="2" stroke-miterlimit="10" stroke-linecap="round"/>
<path d="M99.7295 246.953C99.7295 246.953 230.118 379.456 305.616 576.205" stroke="#1D2537" stroke-width="30" stroke-miterlimit="10"/>
<path d="M296.27 212.566C290.868 206.025 279.201 204.886 267.793 212.566C256.385 220.246 232.413 217.873 232.413 217.873L220.53 243.977C239.877 250.803 253.581 243.865 277.484 243.01C301.387 242.156 294.32 220.048 294.32 220.048C294.32 220.048 299.972 224.362 304.243 222.636C308.515 220.911 301.68 219.107 296.27 212.566Z" fill="#FBC2A5"/>
<path d="M304.242 222.637C308.513 220.911 301.653 219.125 296.268 212.584C290.883 206.043 279.199 204.904 267.791 212.584C256.383 220.264 232.411 217.891 232.411 217.891" stroke="#FFF1D7" stroke-width="2" stroke-miterlimit="10" stroke-linecap="round"/>
<path d="M220.539 243.976C239.886 250.802 253.589 243.864 277.493 243.009C301.396 242.155 294.32 220.047 294.32 220.047" stroke="#2B4257" stroke-width="2" stroke-miterlimit="10" stroke-linecap="round"/>
<path d="M145.895 646.103C129.697 644.878 142.874 624.099 142.874 624.099L97.139 614.391L91.0381 665.2H172.378C169.125 665.2 174.371 648.261 145.895 646.103Z" fill="#5BC0C3"/>
<path d="M172.379 665.2C169.264 665.2 173.933 649.667 149.356 646.457C142.315 650.892 137.336 657.546 135.843 665.2H172.379Z" fill="#628ECC"/>
<path d="M97.139 614.391L91.0381 665.2" stroke="#2B4257" stroke-width="2" stroke-miterlimit="10" stroke-linecap="round"/>
<path d="M77.5247 10.5371C77.5247 10.5371 55.1748 16.2411 73.4862 38.0646C91.7976 59.8882 96.2331 30.8764 96.2331 30.8764L77.5247 10.5371Z" fill="#2B4257"/>
<path d="M293.128 282.652C287.555 282.652 282.21 284.866 278.27 288.807C274.329 292.747 272.115 298.092 272.115 303.665H314.14C314.14 298.092 311.926 292.747 307.986 288.807C304.045 284.866 298.7 282.652 293.128 282.652Z" fill="#EFEEED"/>
<path d="M269.07 291.402C265.818 291.402 262.699 292.694 260.399 294.994C258.1 297.293 256.808 300.412 256.808 303.665H281.332C281.33 300.413 280.037 297.296 277.738 294.996C275.439 292.697 272.321 291.405 269.07 291.402Z" fill="#EFEEED"/>
<path d="M611.671 257.48C617.241 257.487 622.581 259.705 626.518 263.647C630.455 267.588 632.666 272.931 632.666 278.501H590.658C590.658 272.928 592.872 267.582 596.812 263.64C600.752 259.698 606.097 257.483 611.671 257.48Z" fill="#EFEEED"/>
<path d="M635.738 266.24C638.99 266.24 642.109 267.532 644.409 269.832C646.708 272.131 648 275.25 648 278.502H623.476C623.476 275.25 624.768 272.131 627.067 269.832C629.367 267.532 632.486 266.24 635.738 266.24Z" fill="#EFEEED"/>
<path d="M574.945 253.994C578.164 253.993 581.351 254.626 584.325 255.857C587.299 257.089 590.001 258.894 592.277 261.17C594.553 263.446 596.358 266.148 597.589 269.122C598.82 272.095 599.453 275.283 599.452 278.501H550.446C550.445 275.283 551.078 272.097 552.309 269.124C553.539 266.15 555.344 263.449 557.619 261.173C559.894 258.897 562.595 257.092 565.568 255.86C568.541 254.628 571.727 253.994 574.945 253.994Z" fill="#EFEEED"/>
<path d="M274.273 4.58203C281.597 4.58203 288.62 7.49133 293.799 12.6699C298.977 17.8485 301.887 24.8722 301.887 32.1958H246.659C246.659 24.8722 249.568 17.8485 254.747 12.6699C259.926 7.49133 266.949 4.58203 274.273 4.58203Z" fill="#EFEEED"/>
<path d="M305.882 16.086C307.998 16.0826 310.095 16.4965 312.052 17.3042C314.008 18.1119 315.786 19.2975 317.284 20.7931C318.782 22.2886 319.971 24.0649 320.782 26.0202C321.592 27.9755 322.01 30.0715 322.01 32.1883H289.779C289.778 30.0734 290.194 27.979 291.003 26.0248C291.812 24.0707 292.998 22.2951 294.493 20.7997C295.988 19.3042 297.764 18.1182 299.718 17.3094C301.672 16.5005 303.767 16.0848 305.882 16.086Z" fill="#EFEEED"/>
<path d="M226.034 0C234.571 0 242.758 3.39116 248.794 9.42745C254.83 15.4637 258.221 23.6507 258.221 32.1873H193.847C193.847 23.6507 197.238 15.4637 203.274 9.42745C209.31 3.39116 217.497 0 226.034 0V0Z" fill="#EFEEED"/>
<path d="M491.826 369.016C486.341 369.027 481.084 371.214 477.21 375.097C473.335 378.979 471.159 384.241 471.159 389.726H512.502C512.502 384.239 510.325 378.977 506.449 375.094C502.572 371.211 497.313 369.025 491.826 369.016Z" fill="#EFEEED"/>
<path d="M468.157 377.627C464.953 377.627 461.88 378.9 459.615 381.165C457.349 383.431 456.076 386.504 456.076 389.708H480.238C480.238 386.504 478.965 383.431 476.7 381.165C474.434 378.9 471.361 377.627 468.157 377.627Z" fill="#EFEEED"/>
<path d="M527.958 365.59C524.793 365.589 521.658 366.211 518.733 367.422C515.809 368.633 513.151 370.408 510.913 372.647C508.675 374.885 506.9 377.542 505.689 380.467C504.478 383.392 503.855 386.526 503.856 389.692H552.06C552.06 383.299 549.521 377.169 545.001 372.649C540.481 368.129 534.35 365.59 527.958 365.59Z" fill="#EFEEED"/>
<path d="M1.8623 665.199H263.089" stroke="#2B4257" stroke-width="2" stroke-miterlimit="10" stroke-linecap="round"/>
<path d="M280.125 665.199H289.781" stroke="#2B4257" stroke-width="2" stroke-miterlimit="10" stroke-linecap="round"/>
<path d="M125.21 100.912L91.4951 101.326V66.6449L125.21 62.8652V100.912Z" fill="#FBC2A5"/>
<path d="M125.211 62.8652V100.912" stroke="#2B4257" stroke-width="2" stroke-miterlimit="10" stroke-linecap="round"/>
<path d="M76.7131 15.9043L81.7181 55.3403H70.9229L76.7131 15.9043Z" fill="#F39B92"/>
<path d="M81.7181 55.3398H70.9229" stroke="#2B4257" stroke-width="2" stroke-miterlimit="10" stroke-linecap="round"/>
<path d="M91.4951 101.326V66.6445" stroke="#FFF1D7" stroke-width="2" stroke-miterlimit="10" stroke-linecap="round"/>
<path d="M97.0015 78.3965H94.4904C89.7718 78.3851 85.2504 76.5026 81.918 73.162C78.5855 69.8215 76.714 65.2955 76.714 60.577V15.903L118.135 15.903C119.139 15.9007 120.133 16.0967 121.061 16.4795C121.989 16.8624 122.833 17.4247 123.543 18.1342C124.253 18.8437 124.817 19.6864 125.2 20.6141C125.584 21.5417 125.781 22.536 125.78 23.5399V49.6091C125.78 57.2417 122.748 64.5617 117.351 69.9588C111.954 75.3558 104.634 78.3879 97.0015 78.3879V78.3965Z" fill="#FBC2A5"/>
<path d="M92.1162 44.7524C91.948 44.6073 91.7922 44.4486 91.6502 44.2778C91.4418 44.0253 91.1771 43.8251 90.8774 43.6932C90.5777 43.5613 90.2513 43.5015 89.9243 43.5184H81.5107V49.5072C81.5107 50.3571 81.6781 51.1987 82.0034 51.9839C82.3286 52.7691 82.8054 53.4826 83.4063 54.0836C84.0073 54.6845 84.7208 55.1613 85.506 55.4865C86.2912 55.8118 87.1328 55.9792 87.9827 55.9792C88.8334 55.9803 89.6759 55.8137 90.4621 55.489C91.2483 55.1643 91.9628 54.6877 92.5647 54.0866C93.1666 53.4855 93.6441 52.7717 93.9699 51.9859C94.2957 51.2001 94.4633 50.3578 94.4633 49.5072C94.464 48.5875 94.2526 47.6801 93.8456 46.8554C93.4385 46.0308 92.8467 45.3111 92.1162 44.7524Z" fill="#F4AB9D"/>
<path d="M74.7895 55.2278C74.7895 55.2278 67.3338 79.3898 80.3899 86.2933C93.4461 93.1967 115.667 81.366 111.637 59.6546C107.814 39.0305 114.225 53.4415 117.436 43.5005C117.436 43.5005 116.055 60.8541 125.685 69.0347C125.685 69.0347 144.161 22.5227 127.221 15.1877C110.282 7.85283 72.3043 5.26403 70.1469 16.4821C67.9896 27.7003 77.9133 31.618 97.7607 35.6047C106.519 37.3306 108.979 63.1581 100.496 59.8099C92.0136 56.4618 84.7909 54.2354 74.7895 55.2278Z" fill="#2B4257"/>
<path d="M71.8906 25.5605C75.653 30.3412 84.4549 32.9645 97.6491 35.6223C106.408 37.3482 108.867 63.1757 100.385 59.8275" stroke="#586977" stroke-width="2" stroke-miterlimit="10" stroke-linecap="round"/>
<path d="M127.178 15.2053C110.23 7.87041 72.2608 5.28161 70.1035 16.4997" stroke="#586977" stroke-width="2" stroke-miterlimit="10" stroke-linecap="round"/>
<path d="M77.5247 10.5371C77.5247 10.5371 55.1748 16.2411 73.4862 38.0646" stroke="#586977" stroke-width="2" stroke-miterlimit="10" stroke-linecap="round"/>
<path d="M80.3896 86.293C93.4027 93.1964 115.666 81.3656 111.636 59.6543L80.3896 86.293Z" fill="#2B4257"/>
<path d="M74.0049 58.2734C72.5034 64.9957 70.1994 80.8995 80.3906 86.2928" stroke="#586977" stroke-width="2" stroke-miterlimit="10" stroke-linecap="round"/>
<path d="M80.3896 86.293C93.4027 93.1964 115.666 81.3656 111.636 59.6543" stroke="#2B4257" stroke-width="2" stroke-miterlimit="10" stroke-linecap="round"/>
<path d="M92.2111 44.1992C91.7624 41.783 89.3979 40.3074 86.4122 40.7906C84.5151 41.1247 82.7872 42.0921 81.5107 43.5348C81.9595 45.951 84.3153 47.4266 87.301 46.9433C89.2026 46.615 90.935 45.6468 92.2111 44.1992Z" fill="#F7F7F7"/>
<path d="M81.5107 43.5352C81.9595 45.9514 84.3153 47.427 87.301 46.9437C89.2026 46.6154 90.935 45.6472 92.2111 44.1996" stroke="#2B4257" stroke-width="2" stroke-miterlimit="10" stroke-linecap="round"/>
<path d="M85.62 44.6659C85.9441 44.6659 86.2068 44.3336 86.2068 43.9238C86.2068 43.5139 85.9441 43.1816 85.62 43.1816C85.2959 43.1816 85.0332 43.5139 85.0332 43.9238C85.0332 44.3336 85.2959 44.6659 85.62 44.6659Z" fill="#2B4257"/>
<path d="M94.4628 55.7792C96.9411 55.7792 98.9501 53.7702 98.9501 51.2919C98.9501 48.8137 96.9411 46.8047 94.4628 46.8047C91.9846 46.8047 89.9756 48.8137 89.9756 51.2919C89.9756 53.7702 91.9846 55.7792 94.4628 55.7792Z" fill="#E57873"/>
<path d="M81.252 38.5037C82.4128 37.4576 83.8293 36.7367 85.3583 36.4139C86.8872 36.0912 88.4743 36.178 89.9589 36.6657" stroke="#2B4257" stroke-width="2" stroke-miterlimit="10" stroke-linecap="round"/>
<path d="M89.3981 59.543C88.2231 60.5707 86.7984 61.2713 85.2671 61.5742C83.7357 61.8771 82.1516 61.7718 80.6738 61.2688" stroke="#FFF1D7" stroke-width="2" stroke-miterlimit="10" stroke-linecap="round"/>
<path d="M117.798 57.6435C121.892 57.6435 125.211 54.3248 125.211 50.2309C125.211 46.1371 121.892 42.8184 117.798 42.8184C113.704 42.8184 110.386 46.1371 110.386 50.2309C110.386 54.3248 113.704 57.6435 117.798 57.6435Z" fill="#FBC2A5"/>
<path d="M117.799 54.0274C119.896 54.0274 121.596 52.3275 121.596 50.2305C121.596 48.1335 119.896 46.4336 117.799 46.4336C115.702 46.4336 114.002 48.1335 114.002 50.2305C114.002 52.3275 115.702 54.0274 117.799 54.0274Z" fill="#F4AB9D"/>
<path d="M62.5195 225.475H151.496V236.442C151.496 242.284 150.346 248.069 148.11 253.466C145.875 258.863 142.598 263.767 138.467 267.897C134.337 272.028 129.433 275.305 124.036 277.54C118.639 279.776 112.854 280.927 107.012 280.927C101.17 280.928 95.3843 279.778 89.9863 277.543C84.5882 275.308 79.6833 272.031 75.5517 267.901C71.42 263.77 68.1426 258.865 65.9065 253.468C63.6704 248.07 62.5195 242.285 62.5195 236.442V225.475Z" fill="#1D2537"/>
<path d="M107.004 92.8691C112.845 92.8691 118.63 94.0198 124.027 96.2553C129.424 98.4908 134.328 101.767 138.459 105.898C142.589 110.029 145.866 114.933 148.102 120.33C150.337 125.727 151.488 131.512 151.488 137.353V225.476H62.5195V137.353C62.5195 125.555 67.2062 114.241 75.5486 105.898C83.891 97.5558 95.2057 92.8691 107.004 92.8691Z" fill="#628ECC"/>
<path d="M151.496 149.564L141.443 159.617L125.488 143.67L109.541 159.617L93.5937 143.67L77.6381 159.617L62.5195 144.498V187.921L77.6381 172.802L93.5937 188.749L109.541 172.802L125.488 188.749L141.443 172.802L151.496 182.847V149.564Z" fill="#5BC0C3"/>
<path d="M107.004 92.8691C95.2057 92.8691 83.891 97.5558 75.5486 105.898C67.2062 114.241 62.5195 125.555 62.5195 137.353V225.476" stroke="#2B4257" stroke-width="2" stroke-miterlimit="10" stroke-linecap="round"/>
<path d="M124.15 176.098C138.422 196.549 158.261 217.328 149.175 223.645C140.088 229.962 105.605 219.434 91.3582 198.983C77.1112 178.531 72.8483 156.837 81.866 150.52C90.8836 144.204 109.877 155.655 124.15 176.098Z" fill="#1D2537"/>
<path d="M151.496 225.476V137.353C151.502 131.82 150.471 126.335 148.459 121.182" stroke="#FFF1D7" stroke-width="2" stroke-miterlimit="10" stroke-linecap="round"/>
<path d="M76.1699 106.935L81.1059 90.5391L132.744 92.7654C133.142 92.7763 133.53 92.8913 133.869 93.0989C134.209 93.3065 134.489 93.5995 134.68 93.9487C134.871 94.2979 134.967 94.6911 134.959 95.0891C134.951 95.4871 134.839 95.876 134.634 96.2172L126.695 110.24" fill="#628ECC"/>
<path d="M81.1055 90.5391L132.743 92.7654C133.141 92.7763 133.529 92.8913 133.869 93.0989C134.209 93.3065 134.488 93.5995 134.679 93.9487C134.87 94.2979 134.967 94.6911 134.959 95.0891C134.951 95.4871 134.838 95.876 134.633 96.2172L126.694 110.24" stroke="#FFF1D7" stroke-width="2" stroke-miterlimit="10" stroke-linecap="round"/>
<path d="M76.1699 106.935L81.1059 90.5391" stroke="#2B4257" stroke-width="2" stroke-miterlimit="10" stroke-linecap="round"/>
<path d="M83.5381 131.83C83.5381 131.83 128.264 232.793 249.877 232.793" stroke="#628ECC" stroke-width="20" stroke-miterlimit="10"/>
<path d="M154.249 634.789L86.4309 622.173C112.923 480.16 73.487 261.64 73.0986 259.448L141.003 246.996C142.694 256.402 183.079 480.134 154.249 634.789Z" fill="#1D2537"/>
<path d="M140.959 246.953C142.685 256.402 183.096 480.134 154.248 634.789" stroke="#FFF1D7" stroke-width="2" stroke-miterlimit="10" stroke-linecap="round"/>
<path d="M132.477 640.709H141.149" stroke="#2B4257" stroke-width="2" stroke-miterlimit="10" stroke-linecap="round"/>
<path d="M136.817 645.672H145.49" stroke="#2B4257" stroke-width="2" stroke-miterlimit="10" stroke-linecap="round"/>
<path d="M336.628 216.354C344.529 216.354 350.935 212.634 350.935 208.044C350.935 203.455 344.529 199.734 336.628 199.734C328.726 199.734 322.32 203.455 322.32 208.044C322.32 212.634 328.726 216.354 336.628 216.354Z" fill="white"/>
<path d="M322.32 208.045C323.761 210.569 325.843 212.666 328.355 214.125C330.868 215.585 333.722 216.353 336.628 216.353C339.533 216.353 342.387 215.585 344.9 214.125C347.413 212.666 349.495 210.569 350.935 208.045" stroke="#2B4257" stroke-width="2" stroke-miterlimit="10" stroke-linecap="round"/>
<path d="M334.092 207.224C335.059 207.224 335.843 205.868 335.843 204.195C335.843 202.522 335.059 201.166 334.092 201.166C333.124 201.166 332.34 202.522 332.34 204.195C332.34 205.868 333.124 207.224 334.092 207.224Z" fill="#354B5F"/>
<path d="M374.243 216.354C382.145 216.354 388.55 212.634 388.55 208.044C388.55 203.455 382.145 199.734 374.243 199.734C366.341 199.734 359.936 203.455 359.936 208.044C359.936 212.634 366.341 216.354 374.243 216.354Z" fill="white"/>
<path d="M359.979 208.045C361.419 210.569 363.501 212.666 366.014 214.125C368.526 215.585 371.38 216.353 374.286 216.353C377.192 216.353 380.046 215.585 382.558 214.125C385.071 212.666 387.153 210.569 388.593 208.045" stroke="#2B4257" stroke-width="2" stroke-miterlimit="10" stroke-linecap="round"/>
<path d="M371.715 207.224C372.682 207.224 373.466 205.868 373.466 204.195C373.466 202.522 372.682 201.166 371.715 201.166C370.747 201.166 369.963 202.522 369.963 204.195C369.963 205.868 370.747 207.224 371.715 207.224Z" fill="#354B5F"/>
<path d="M444.469 116.547C455.497 116.547 464.437 111.359 464.437 104.958C464.437 98.5578 455.497 93.3691 444.469 93.3691C433.441 93.3691 424.501 98.5578 424.501 104.958C424.501 111.359 433.441 116.547 444.469 116.547Z" fill="white"/>
<path d="M424.51 104.959C426.52 108.48 429.425 111.406 432.931 113.442C436.437 115.477 440.42 116.55 444.474 116.55C448.528 116.55 452.51 115.477 456.016 113.442C459.522 111.406 462.427 108.48 464.438 104.959" stroke="#2B4257" stroke-width="2" stroke-miterlimit="10" stroke-linecap="round"/>
<path d="M439.732 111.482C441.085 111.482 442.183 109.593 442.183 107.263C442.183 104.932 441.085 103.043 439.732 103.043C438.379 103.043 437.281 104.932 437.281 107.263C437.281 109.593 438.379 111.482 439.732 111.482Z" fill="#354B5F"/>
<path d="M299.979 159.426C297.175 159.193 293.697 153.291 293.697 153.291C293.697 153.291 293.507 163.292 287.898 163.508" stroke="#2B4257" stroke-width="2" stroke-miterlimit="10" stroke-linecap="round"/>
<path d="M285.69 146.465C285.69 146.465 293.509 140.425 299.765 144.739" stroke="#2B4257" stroke-width="2" stroke-miterlimit="10" stroke-linecap="round"/>
<path d="M299.764 144.74C306.02 149.055 302.784 159.652 299.979 159.41" stroke="#FFF1D7" stroke-width="2" stroke-miterlimit="10" stroke-linecap="round"/>
<path d="M556.313 129.44V27.6138C556.316 25.0177 557.349 22.5287 559.185 20.6937C561.022 18.8588 563.512 17.8281 566.108 17.8281H586.585C587.299 17.8281 587.984 18.1118 588.489 18.6167C588.994 19.1216 589.277 19.8064 589.277 20.5205V25.4219C589.277 28.0607 588.229 30.5914 586.363 32.4573C584.497 34.3233 581.967 35.3715 579.328 35.3715H560.594" stroke="#2B4257" stroke-width="2" stroke-miterlimit="10" stroke-linecap="round"/>
<path d="M564.167 134.479C564.194 132.123 563.64 129.796 562.553 127.705V123.477H556.599C552.414 123.477 549.022 128.404 549.022 134.479C549.022 140.554 552.414 145.481 556.599 145.481H562.553V141.262C563.64 139.167 564.194 136.838 564.167 134.479Z" fill="#2B4257"/>
<path d="M562.553 145.481C566.738 145.481 570.13 140.555 570.13 134.479C570.13 128.402 566.738 123.477 562.553 123.477C558.369 123.477 554.977 128.402 554.977 134.479C554.977 140.555 558.369 145.481 562.553 145.481Z" fill="#FDEED9"/>
<path d="M424.51 128.689C426.52 132.21 429.425 135.137 432.931 137.172C436.437 139.208 440.42 140.28 444.474 140.28C448.528 140.28 452.51 139.208 456.016 137.172C459.522 135.137 462.427 132.21 464.438 128.689" stroke="#F39B92" stroke-width="5" stroke-miterlimit="10" stroke-linecap="round"/>
<path d="M500.396 199.742V640.709" stroke="#2B4257" stroke-width="2" stroke-miterlimit="10" stroke-linecap="round"/>
<path d="M420.712 665.199C420.712 665.199 402.306 658.468 411.514 648.691C420.721 638.914 437.971 648.691 437.971 648.691C437.971 648.691 420.143 634.884 433.372 632.011C446.6 629.137 464.437 648.605 464.437 648.605C464.437 648.605 425.89 593.697 464.437 595.88C502.984 598.063 520.812 647.544 520.812 647.544C520.812 647.544 515.635 605.545 543.827 610.144C572.019 614.743 566.841 650.995 566.841 650.995C566.841 650.995 570.862 637.326 581.796 640.709C592.729 644.092 581.796 657.899 581.796 657.899C581.796 657.899 591.573 651.565 597.329 654.447C603.084 657.329 593.877 665.199 593.877 665.199" fill="#40697F"/>
<path d="M597.33 654.447C603.085 657.321 593.878 665.199 593.878 665.199" stroke="#2B4257" stroke-width="2" stroke-miterlimit="10" stroke-linecap="round"/>
<path d="M581.795 640.709C592.728 644.092 581.795 657.899 581.795 657.899" stroke="#2B4257" stroke-width="2" stroke-miterlimit="10" stroke-linecap="round"/>
<path d="M543.828 610.145C572.02 614.753 566.842 650.996 566.842 650.996" stroke="#2B4257" stroke-width="2" stroke-miterlimit="10" stroke-linecap="round"/>
<path d="M566.843 650.996C566.843 650.996 570.864 637.327 581.797 640.71" stroke="#FFF1D7" stroke-width="2" stroke-miterlimit="10" stroke-linecap="round"/>
<path d="M464.438 595.881C502.986 598.064 520.814 647.545 520.814 647.545" stroke="#2B4257" stroke-width="2" stroke-miterlimit="10" stroke-linecap="round"/>
<path d="M520.811 647.544C520.811 647.544 515.634 605.546 543.826 610.145" stroke="#FFF1D7" stroke-width="2" stroke-miterlimit="10" stroke-linecap="round"/>
<path d="M433.371 632.012C446.6 629.13 464.437 648.606 464.437 648.606" stroke="#2B4257" stroke-width="2" stroke-miterlimit="10" stroke-linecap="round"/>
<path d="M464.437 648.605C464.437 648.605 425.89 593.697 464.437 595.88" stroke="#FFF1D7" stroke-width="2" stroke-miterlimit="10" stroke-linecap="round"/>
<path d="M411.514 648.691C420.713 638.914 437.971 648.691 437.971 648.691" stroke="#2B4257" stroke-width="2" stroke-miterlimit="10" stroke-linecap="round"/>
<path d="M420.712 665.199C420.712 665.199 402.306 658.468 411.514 648.691" stroke="#FFF1D7" stroke-width="2" stroke-miterlimit="10" stroke-linecap="round"/>
<path d="M437.972 648.69C437.972 648.69 420.144 634.883 433.373 632.01" stroke="#FFF1D7" stroke-width="2" stroke-miterlimit="10" stroke-linecap="round"/>
<path d="M369.782 665.199H631.009" stroke="#2B4257" stroke-width="2" stroke-miterlimit="10" stroke-linecap="round"/>
<path d="M581.795 657.899C581.795 657.899 591.572 651.565 597.328 654.447" stroke="#FFF1D7" stroke-width="2" stroke-miterlimit="10" stroke-linecap="round"/>
</svg>
